<?xml version="1.0" standalone="no"?>
<!DOCTYPE svg PUBLIC "-//W3C//DTD SVG 1.1//EN" "http://www.w3.org/Graphics/SVG/1.1/DTD/svg11.dtd" >
<svg xmlns="http://www.w3.org/2000/svg">
<metadata>
Generated by SVGconv.
Copyright   : Copyright  1997 ParaType Inc., ParaType Ltd. All rights reserved.
Designer    : Andrey Kryukov, Dmitry Kirsanov
Foundry     : ParaType, Inc.
Foundry URL : http://www.paratype.com
</metadata>
<defs>
<font id="MagistralWeb-Light" horiz-adv-x="541" >
<font-face units-per-em="1000" ascent="1007" descent="300" />
<missing-glyph horiz-adv-x="500" />
<glyph unicode="&#32;" horiz-adv-x="233" />
<glyph unicode="&#33;" horiz-adv-x="194" d="M70 77h54v-77h-54zM70 158v542h54l0 -542z" />
<glyph unicode="&#34;" horiz-adv-x="262" d="M50 700h54v-187h-54zM158 700h54v-187l-54 0z" />
<glyph unicode="&#35;" horiz-adv-x="800" d="M170 195h-140l19 47h140l92 227h-140l19 47h140l74 184h52l-74 -184h226l74 184h52l-74 -184h140l-19 -47h-140l-92 -227h140l-19 -47h-140l-78 -195h-52l78 195h-226l-78 -195h-52zM559 469h-226l-92 -227l226 0z" />
<glyph unicode="&#36;" horiz-adv-x="650" d="M66 47h236v291l-152 57q-24 9 -42.5 20.5q-18.5 11.5 -31 29q-12.5 17.5 -19.5 41.5q-7 24 -7 57q0 31 7.5 59.5q7.5 28.5 25 50q17.5 21.5 44.5 34.5q27 13 66 13h109v68h44v-68h220v-47h-220v-280l142 -55q25 -10 45.5 -22q20.5 -12 35.5 -30q15 -18 23 -43q8 -25 8 -60q0 -87 -41 -125q-41 -38 -121 -38h-92v-68h-44v68h-236zM446 47q46 0 72 26q26 26 26 83q0 28 -6 48q-6 20 -16 33.5q-10 13.5 -23 22q-13 8.5 -27 13.5l-126 48v-274zM302 653h-105q-28 0 -46 -8.5q-18 -8.5 -28 -23.5q-10 -15 -13.5 -35.5q-3.5 -20.5 -3.5 -44.5q0 -12 1.5 -26q1.5 -14 7 -27.5q5.5 -13.5 15.5 -25q10 -11.5 28 -18.5l144 -54z" />
<glyph unicode="&#37;" horiz-adv-x="681" d="M478 700h47l-318 -700h-47zM182 706q40 0 66 -12q26 -12 40.5 -33.5q14.5 -21.5 20 -52.5q5.5 -31 5.5 -69q0 -38 -5.5 -69q-5.5 -31 -20 -52.5q-14.5 -21.5 -40.5 -33.5q-26 -12 -66 -12q-41 0 -66.5 12q-25.5 12 -40 33.5q-14.5 21.5 -20 52.5q-5.5 31 -5.5 69q0 38 5.5 69q5.5 31 20 52.5q14.5 21.5 40 33.5q25.5 12 66.5 12zt0 0zM100 539q0 -24 2.5 -46.5q2.5 -22.5 11 -40q8.5 -17.5 24.5 -28.5q16 -11 44 -11q28 0 44 11q16 11 24.5 28.5q8.5 17.5 11 40q2.5 22.5 2.5 46.5q0 24 -2.5 46.5q-2.5 22.5 -11 40q-8.5 17.5 -24.5 28.5q-16 11 -44 11q-28 0 -44 -11q-16 -11 -24.5 -28.5q-8.5 -17.5 -11 -40q-2.5 -22.5 -2.5 -46.5zt0 0zM499 328q40 0 66 -12q26 -12 40.5 -33.5q14.5 -21.5 20 -52.5q5.5 -31 5.5 -69q0 -38 -5.5 -69q-5.5 -31 -20 -52.5q-14.5 -21.5 -40.5 -33.5q-26 -12 -66 -12q-41 0 -66.5 12q-25.5 12 -40 33.5q-14.5 21.5 -20 52.5q-5.5 31 -5.5 69q0 38 5.5 69q5.5 31 20 52.5q14.5 21.5 40 33.5q25.5 12 66.5 12zt0 0zM417 161q0 -24 2.5 -46.5q2.5 -22.5 11 -40q8.5 -17.5 24.5 -28.5q16 -11 44 -11q28 0 44 11q16 11 24.5 28.5q8.5 17.5 11 40q2.5 22.5 2.5 46.5q0 24 -2.5 46.5q-2.5 22.5 -11 40q-8.5 17.5 -24.5 28.5q-16 11 -44 11q-28 0 -44 -11q-16 -11 -24.5 -28.5q-8.5 -17.5 -11 -40t-2.5 -46.5z" />
<glyph unicode="&#38;" horiz-adv-x="632" d="M506 76q0 -40 -12 -58q-12 -18 -50 -18h-233q-85 0 -123 45.5q-38 45.5 -38 145.5q0 29 3 54q3 25 13.5 45.5q10.5 20.5 30 35q19.5 14.5 52.5 21.5l0 4q-30 4 -49 19.5q-19 15.5 -30 38q-11 22.5 -15.5 50.5q-4.5 28 -4.5 56q0 40 7.5 74q7.5 34 26 59q18.5 25 49.5 38.5q31 13.5 78 13.5h299v-47h-290q-34 0 -56 -7.5q-22 -7.5 -35 -24q-13 -16.5 -18 -41.5q-5 -25 -5 -61q0 -35 4.5 -62.5q4.5 -27.5 19.5 -46.5q15 -19 43 -29.5q28 -10.5 75 -10.5h374v-47h-116zM412 47q26 0 35.5 4q9.5 4 9.5 29v243h-244q-38 0 -59 -10q-21 -10 -32 -28.5q-11 -18.5 -13.5 -44.5q-2.5 -26 -2.5 -59q0 -34 4 -59q4 -25 16 -41.5q12 -16.5 34.5 -25q22.5 -8.5 59.5 -8.5z" />
<glyph unicode="&#39;" horiz-adv-x="154" d="M50 700h54v-187l-54 0z" />
<glyph unicode="&#40;" horiz-adv-x="324" d="M120 106q0 -100 43 -151.5q43 -51.5 131 -62.5l0 -46q-65 6 -108.5 29q-43.5 23 -69 58q-25.5 35 -36 79q-10.5 44 -10.5 94v338q0 49 10.5 93.5q10.5 44.5 36 79.5q25.5 35 69 58q43.5 23 108.5 29l0 -46q-88 -11 -131 -62.5q-43 -51.5 -43 -151.5z" />
<glyph unicode="&#41;" horiz-adv-x="324" d="M204 444q0 100 -43 151.5q-43 51.5 -131 62.5l0 46q65 -6 108.5 -29q43.5 -23 69 -58q25.5 -35 36 -79.5q10.5 -44.5 10.5 -93.5v-338q0 -50 -10.5 -94q-10.5 -44 -36 -79q-25.5 -35 -69 -58q-43.5 -23 -108.5 -29l0 46q88 11 131 62.5q43 51.5 43 151.5z" />
<glyph unicode="&#42;" horiz-adv-x="508" d="M233 440l-162 -94l-21 36l162 94l-162 94l21 36l162 -94v188h42v-188l162 94l21 -36l-162 -94l162 -94l-21 -36l-162 94v-188l-42 0z" />
<glyph unicode="&#43;" horiz-adv-x="566" d="M256 100v186h-186v48h186v186h54v-186h186v-48h-186l0 -186z" />
<glyph unicode="&#44;" horiz-adv-x="194" d="M0 -57l96 161l48 -29l-96 -161z" />
<glyph unicode="&#45;" horiz-adv-x="400" d="M50 300h300v-50l-300 0z" />
<glyph unicode="&#46;" horiz-adv-x="160" d="M50 0v87h60l0 -87z" />
<glyph unicode="&#47;" horiz-adv-x="468" d="M-10 -163l438 903h50l-438 -903z" />
<glyph unicode="&#48;" horiz-adv-x="610" d="M50 472q0 67 18.5 112q18.5 45 52.5 72q34 27 81 38.5q47 11.5 103 11.5q56 0 103 -11.5q47 -11.5 80.5 -38.5q33.5 -27 52.5 -72q19 -45 19 -112v-241q0 -68 -19 -113q-19 -45 -52.5 -72q-33.5 -27 -80.5 -38q-47 -11 -103 -11q-56 0 -103 11q-47 11 -81 38q-34 27 -52.5 72q-18.5 45 -18.5 113zM104 237q0 -56 13 -93q13 -37 38.5 -59q25.5 -22 63 -31q37.5 -9 86.5 -9q49 0 86.5 9q37.5 9 63 31q25.5 22 38.5 59q13 37 13 93v230q0 56 -13 93q-13 37 -38.5 58.5q-25.5 21.5 -63 30.5q-37.5 9 -86.5 9q-49 0 -86.5 -9q-37.5 -9 -63 -30.5q-25.5 -21.5 -38.5 -58.5q-13 -37 -13 -93z" />
<glyph unicode="&#49;" horiz-adv-x="229" d="M105 612q0 23 -4.5 31.5q-4.5 8.5 -19.5 8.5h-81v48h94q30 0 47.5 -14.5q17.5 -14.5 17.5 -52.5v-633l-54 0z" />
<glyph unicode="&#50;" horiz-adv-x="585" d="M102 0q-19 0 -29.5 5.5q-10.5 5.5 -15.5 13q-5 7.5 -6 15.5q-1 8 -1 14q0 14 5 27.5q5 13.5 22 27.5l349 276q15 12 25 24q10 12 16.5 27.5q6.5 15.5 9 35.5q2.5 20 2.5 48q0 28 -1.5 53q-1.5 25 -11 44q-9.5 19 -29.5 30q-20 11 -57 11h-278v48h273q45 0 75.5 -10.5q30.5 -10.5 49.5 -32.5q19 -22 27 -56.5q8 -34.5 8 -83.5q0 -30 -3 -54.5q-3 -24.5 -11.5 -45.5q-8.5 -21 -24 -40.5q-15.5 -19.5 -40.5 -38.5l-338 -268q-13 -10 -13 -14q0 -6 3.5 -7q3.5 -1 6.5 -1h380v-48l-393 0z" />
<glyph unicode="&#51;" horiz-adv-x="564" d="M50 48h295q26 0 47 3.5q21 3.5 35.5 16.5q14.5 13 22.5 39q8 26 8 71q0 33 -3.5 60.5q-3.5 27.5 -16 47.5q-12.5 20 -36 31q-23.5 11 -63.5 11h-271v48h266q36 0 59 7.5q23 7.5 36.5 23.5q13.5 16 19 42q5.5 26 5.5 64q0 26 -2.5 51q-2.5 25 -11 44.5q-8.5 19.5 -25.5 31.5q-17 12 -46 12h-305v48h296q45 0 74 -12q29 -12 46 -35.5q17 -23.5 23.5 -58.5q6.5 -35 6.5 -81q0 -29 -3 -56q-3 -27 -13 -49q-10 -22 -28.5 -37q-18.5 -15 -49.5 -19l0 -4q29 -4 48 -18q19 -14 30 -36q11 -22 15.5 -49.5q4.5 -27.5 4.5 -58.5q0 -41 -6 -75q-6 -34 -22.5 -59q-16.5 -25 -45 -38.5q-28.5 -13.5 -73.5 -13.5l-317 0z" />
<glyph unicode="&#52;" horiz-adv-x="610" d="M454 136h-367q-10 0 -21.5 2.5q-11.5 2.5 -21.5 9q-10 6.5 -17 17.5q-7 11 -7 28q0 14 7 28.5q7 14.5 18 27.5l358 423q13 15 27 25.5q14 10.5 37 10.5q27 0 33 -15.5q6 -15.5 6 -40.5v-468h74v-48h-74v-136h-52zM454 647q0 4 -4 4q-4 0 -11 -10l-350 -417q-15 -18 -15 -24q0 -10 7.5 -13q7.5 -3 13.5 -3l359 0z" />
<glyph unicode="&#53;" horiz-adv-x="571" d="M50 48h318q32 0 51 13q19 13 29.5 35q10.5 22 13.5 51.5q3 29.5 3 61.5q0 25 -2.5 47.5q-2.5 22.5 -12.5 40q-10 17.5 -29.5 28q-19.5 10.5 -53.5 10.5h-188q-23 0 -46 4.5q-23 4.5 -41 16.5q-18 12 -29.5 33q-11.5 21 -11.5 54v185q0 31 18.5 51.5q18.5 20.5 53.5 20.5h371v-48h-362q-16 0 -21.5 -10.5q-5.5 -10.5 -5.5 -26.5v-162q0 -30 13.5 -50q13.5 -20 52.5 -20h196q45 0 74.5 -11.5q29.5 -11.5 47.5 -34q18 -22.5 25 -56.5q7 -34 7 -79q0 -44 -6 -81q-6 -37 -23 -64q-17 -27 -47 -42q-30 -15 -79 -15l-316 0z" />
<glyph unicode="&#54;" horiz-adv-x="570" d="M337 416q95 0 139 -51q44 -51 44 -156q0 -51 -10 -90q-10 -39 -32 -65.5q-22 -26.5 -58 -40q-36 -13.5 -88 -13.5h-102q-91 0 -135.5 45q-44.5 45 -44.5 146v330q0 38 10.5 71q10.5 33 31 57q20.5 24 49.5 37.5q29 13.5 67 13.5h278v-48h-267q-53 0 -84 -34q-31 -34 -31 -93v-109zM104 179q0 -67 29 -99q29 -32 95 -32h104q39 0 64.5 11q25.5 11 40.5 32q15 21 21 52.5q6 31.5 6 73.5q0 75 -30.5 113q-30.5 38 -109.5 38l-220 0z" />
<glyph unicode="&#55;" horiz-adv-x="465" d="M405 605q8 14 10 21.5q2 7.5 2 9.5q0 11 -6 13.5q-6 2.5 -11 2.5h-410v48h420q10 0 21.5 -1.5q11.5 -1.5 21.5 -6.5q10 -5 16 -16q6 -11 6 -29q0 -23 -8 -40q-8 -17 -12 -23l-350 -584l-61 0z" />
<glyph unicode="&#56;" horiz-adv-x="606" d="M366 700q52 0 86 -11.5q34 -11.5 54 -35.5q20 -24 27.5 -60q7.5 -36 7.5 -85q0 -60 -18.5 -99.5q-18.5 -39.5 -68.5 -52.5l0 -4q33 -3 53 -19.5q20 -16.5 31 -41q11 -24.5 14.5 -56q3.5 -31.5 3.5 -65.5q0 -83 -38 -126.5q-38 -43.5 -128 -43.5h-174q-90 0 -128 43.5q-38 43.5 -38 126.5q0 34 3.5 64.5q3.5 30.5 14.5 54.5q11 24 31 40.5q20 16.5 53 22.5l0 4q-51 13 -69 52.5q-18 39.5 -18 99.5q0 49 7.5 85q7.5 36 27.5 60q20 24 53.5 35.5q33.5 11.5 86.5 11.5zM374 378q65 0 88 34q23 34 23 94q0 37 -4.5 64.5q-4.5 27.5 -18 45.5q-13.5 18 -37.5 27q-24 9 -62 9h-120q-38 0 -62 -9q-24 -9 -37.5 -27q-13.5 -18 -18 -45.5q-4.5 -27.5 -4.5 -64.5q0 -30 4 -54q4 -24 16 -40.5q12 -16.5 33.5 -25q21.5 -8.5 57.5 -8.5zM390 48q34 0 55.5 9.5q21.5 9.5 33.5 26.5q12 17 16.5 41.5q4.5 24.5 4.5 54.5q0 37 -5.5 65.5q-5.5 28.5 -19 47q-13.5 18.5 -38 28q-24.5 9.5 -61.5 9.5h-146q-38 0 -62 -9.5q-24 -9.5 -37.5 -28q-13.5 -18.5 -19 -47q-5.5 -28.5 -5.5 -65.5q0 -30 4.5 -54.5q4.5 -24.5 16.5 -41.5q12 -17 33.5 -26.5q21.5 -9.5 55.5 -9.5z" />
<glyph unicode="&#57;" horiz-adv-x="570" d="M233 284q-95 0 -139 51q-44 51 -44 156q0 51 10 90q10 39 32 65.5q22 26.5 58 40q36 13.5 88 13.5h102q91 0 135.5 -45q44.5 -45 44.5 -146v-330q0 -38 -10.5 -71q-10.5 -33 -31 -57q-20.5 -24 -50 -37.5q-29.5 -13.5 -66.5 -13.5h-278v48h267q53 0 84 34q31 34 31 93v109zM466 521q0 67 -29 99q-29 32 -95 32h-104q-39 0 -64.5 -11q-25.5 -11 -40.5 -32q-15 -21 -21 -52.5q-6 -31.5 -6 -73.5q0 -38 7 -66q7 -28 23.5 -47q16.5 -19 43 -28.5q26.5 -9.5 66.5 -9.5l220 0z" />
<glyph unicode="&#58;" horiz-adv-x="180" d="M60 449v81h60v-81zM60 0v81h60l0 -81z" />
<glyph unicode="&#59;" horiz-adv-x="204" d="M0 -57l96 161l48 -29l-96 -161zM84 449v81h60l0 -81z" />
<glyph unicode="&#60;" horiz-adv-x="567" d="M497 526v-54l-331 -161l331 -161v-54l-427 215z" />
<glyph unicode="&#61;" horiz-adv-x="566" d="M70 232v48h426v-48zM70 340v48h426l0 -48z" />
<glyph unicode="&#62;" horiz-adv-x="567" d="M70 96v54l331 161l-331 161v54l427 -215z" />
<glyph unicode="&#63;" horiz-adv-x="437" d="M107 77h54v-77h-54zM107 158v76q0 25 5 42.5q5 17.5 14.5 31q9.5 13.5 24 24.5q14.5 11 33.5 22l92 54q42 25 53.5 52.5q11.5 27.5 11.5 63.5q0 31 -4.5 55q-4.5 24 -16.5 40q-12 16 -32.5 24.5q-20.5 8.5 -53.5 8.5h-224v48h231q78 0 117 -40q39 -40 39 -129q0 -38 -7.5 -64q-7.5 -26 -20 -44.5q-12.5 -18.5 -29.5 -31.5q-17 -13 -36 -24l-98 -58q-17 -10 -31 -26q-14 -16 -14 -39l0 -86z" />
<glyph unicode="&#64;" horiz-adv-x="973" d="M382 -148q-105 0 -168.5 33q-63.5 33 -97.5 90.5q-34 57.5 -45 134.5q-11 77 -11 166q0 116 14.5 197q14.5 81 53.5 131.5q39 50.5 109 73q70 22.5 181 22.5h181q88 0 148.5 -21.5q60.5 -21.5 97 -67.5q36.5 -46 52.5 -117.5q16 -71.5 16 -170.5q0 -47 -3 -99q-3 -52 -18.5 -95q-15.5 -43 -48.5 -71q-33 -28 -94 -28q-7 0 -23 2q-16 2 -34.5 10.5q-18.5 8.5 -35 26.5q-16.5 18 -23.5 50q-15 -26 -35.5 -43.5q-20.5 -17.5 -44 -27.5q-23.5 -10 -49 -14q-25.5 -4 -50.5 -4q-55 0 -91.5 17q-36.5 17 -58.5 48.5q-22 31.5 -31 77q-9 45.5 -9 102.5q0 51 8.5 97q8.5 46 30 80.5q21.5 34.5 58.5 55q37 20.5 95 20.5h130q45 0 65 -18q20 -18 20 -57v-246q0 -21 2.5 -44q2.5 -23 11 -42q8.5 -19 24.5 -31.5q16 -12.5 44 -12.5q36 0 56.5 17q20.5 17 31 49.5q10.5 32.5 13.5 80q3 47.5 3 108.5q0 86 -12.5 147q-12.5 61 -41.5 99.5q-29 38.5 -77.5 56.5q-48.5 18 -121.5 18h-191q-93 0 -151.5 -19q-58.5 -19 -90.5 -63q-32 -44 -43.5 -116q-11.5 -72 -11.5 -178q0 -97 12 -168.5q12 -71.5 43 -118q31 -46.5 85 -69q54 -22.5 139 -22.5h280v-47zM619 448q0 34 -40 34h-103q-49 0 -79.5 -13q-30.5 -13 -47.5 -39q-17 -26 -23 -64q-6 -38 -6 -89q0 -42 3 -78.5q3 -36.5 16.5 -63.5q13.5 -27 41 -42.5q27.5 -15.5 76.5 -15.5q89 0 125.5 49.5q36.5 49.5 36.5 144.5z" />
<glyph unicode="&#65;" horiz-adv-x="672" d="M258 634q12 29 29 51.5q17 22.5 49 22.5q31 0 48.5 -23q17.5 -23 29.5 -51l268 -634h-58l-85 204h-406l-85 -204h-58zM154 252h364l-153 366q-5 11 -11.5 25.5q-6.5 14.5 -17.5 14.5q-11 0 -17.5 -14.5q-6.5 -14.5 -11.5 -25.5z" />
<glyph unicode="&#66;" horiz-adv-x="687" d="M124 101q0 -28 6 -41q6 -13 37 -13h299q32 0 53 8.5q21 8.5 33 26q12 17.5 16.5 43.5q4.5 26 4.5 62q0 28 -3 53.5q-3 25.5 -13.5 45q-10.5 19.5 -30 31q-19.5 11.5 -53.5 11.5h-349zM124 376h328q36 0 58.5 8.5q22.5 8.5 35 26q12.5 17.5 16.5 44q4 26.5 4 63.5q0 29 -4 53.5q-4 24.5 -15 42.5q-11 18 -30 28q-19 10 -50 10h-303q-20 0 -30 -8.5q-10 -8.5 -10 -31.5zM530 352q27 -5 46 -15q19 -10 31 -28.5q12 -18.5 18 -47.5q6 -29 6 -72q0 -38 -6 -72q-6 -34 -22 -60q-16 -26 -43.5 -41.5q-27.5 -15.5 -70.5 -15.5h-323q-20 0 -37.5 3q-17.5 3 -30.5 13q-13 10 -20.5 27.5q-7.5 17.5 -7.5 46.5v518q0 38 18.5 65q18.5 27 63.5 27h323q41 0 69.5 -13q28.5 -13 46 -37.5q17.5 -24.5 25.5 -59.5q8 -35 8 -79q0 -30 -4 -56q-4 -26 -14.5 -46.5q-10.5 -20.5 -29 -34.5q-18.5 -14 -46.5 -18z" />
<glyph unicode="&#67;" horiz-adv-x="639" d="M337 0q-85 0 -140.5 28q-55.5 28 -88 76q-32.5 48 -45.5 111.5q-13 63.5 -13 134.5q0 71 12.5 134.5q12.5 63.5 46 111.5q33.5 48 91 76q57.5 28 147.5 28h261v-48h-261q-68 0 -113.5 -20.5q-45.5 -20.5 -73.5 -59.5q-28 -39 -40 -95q-12 -56 -12 -127q0 -71 11.5 -127q11.5 -56 38 -95q26.5 -39 70.5 -59.5q44 -20.5 110 -20.5h281l0 -48z" />
<glyph unicode="&#68;" horiz-adv-x="728" d="M165 0q-47 0 -71 20.5q-24 20.5 -24 73.5v513q0 53 24 73q24 20 71 20h239q79 0 131.5 -27.5q52.5 -27.5 84 -74.5q31.5 -47 45 -110q13.5 -63 13.5 -134q0 -71 -11.5 -135.5q-11.5 -64.5 -41.5 -113q-30 -48.5 -81 -77q-51 -28.5 -130 -28.5zM167 652q-26 0 -34.5 -12q-8.5 -12 -8.5 -32v-514q0 -26 7.5 -36q7.5 -10 35.5 -10h237q71 0 114 25.5q43 25.5 65.5 67.5q22.5 42 29.5 97.5q7 55.5 7 115.5q0 60 -8.5 114q-8.5 54 -33 95q-24.5 41 -69 65q-44.5 24 -115.5 24z" />
<glyph unicode="&#69;" horiz-adv-x="620" d="M165 0q-47 0 -71 20.5q-24 20.5 -24 73.5v513q0 53 24 73q24 20 71 20h411v-48h-409q-29 0 -36 -11q-7 -11 -7 -34v-225h442v-48h-442v-240q0 -23 7 -34.5q7 -11.5 36 -11.5h413l0 -48z" />
<glyph unicode="&#70;" horiz-adv-x="564" d="M70 0v607q0 53 24 73q24 20 71 20h389v-48h-387q-29 0 -36 -11q-7 -11 -7 -34v-235h314v-48h-314l0 -324z" />
<glyph unicode="&#71;" horiz-adv-x="704" d="M654 78q0 -38 -18.5 -58q-18.5 -20 -63.5 -20h-261q-80 0 -131 28q-51 28 -80 76q-29 48 -39.5 111.5q-10.5 63.5 -10.5 134.5q0 71 11 134.5q11 63.5 42.5 111.5q31.5 48 87.5 76q56 28 146 28h301v-48h-301q-68 0 -112 -20.5q-44 -20.5 -70 -59.5q-26 -39 -36.5 -95q-10.5 -56 -10.5 -127q0 -71 10 -127q10 -56 33.5 -95q23.5 -39 62.5 -59.5q39 -20.5 96 -20.5h248q23 0 32.5 10.5q9.5 10.5 9.5 33.5v229l54 0z" />
<glyph unicode="&#72;" horiz-adv-x="702" d="M632 0h-54v332h-454v-332h-54v700h54v-320h454v320l54 0z" />
<glyph unicode="&#73;" horiz-adv-x="194" d="M70 0v700h54l0 -700z" />
<glyph unicode="&#74;" horiz-adv-x="412" d="M0 48h118q92 0 131 47.5q39 47.5 39 129.5v475h54v-485q0 -45 -13.5 -84q-13.5 -39 -40 -68.5q-26.5 -29.5 -66.5 -46q-40 -16.5 -93 -16.5l-129 0z" />
<glyph unicode="&#75;" horiz-adv-x="646" d="M575 0l-353 271q-38 30 -49 51.5q-11 21.5 -11 37.5q0 14 10 32.5q10 18.5 41 43.5l328 264h78l-358 -290q-14 -12 -29 -23.5q-15 -11.5 -15 -27.5q0 -17 17.5 -32.5q17.5 -15.5 34.5 -28.5l387 -298zM70 700h54v-700l-54 0z" />
<glyph unicode="&#76;" horiz-adv-x="563" d="M146 0q-32 0 -54 13.5q-22 13.5 -22 50.5v636h54v-618q0 -17 8.5 -25.5q8.5 -8.5 29.5 -8.5h401l0 -48z" />
<glyph unicode="&#77;" horiz-adv-x="932" d="M537 68q-14 -32 -29 -54q-15 -22 -42 -22q-27 0 -42 22q-15 22 -29 54l-238 572q-3 8 -8.5 14.5q-5.5 6.5 -10.5 6.5q-4 0 -9 -3.5q-5 -3.5 -5 -15.5v-642h-54v642q0 29 18 47.5q18 18.5 48 18.5q30 0 46 -18.5q16 -18.5 30 -50.5l237 -570q3 -7 6 -14.5q3 -7.5 11 -7.5q8 0 11 7.5q3 7.5 6 14.5l237 570q14 32 30 50.5q16 18.5 46 18.5q30 0 48 -18.5q18 -18.5 18 -47.5v-642h-54v642q0 12 -5 15.5q-5 3.5 -9 3.5q-5 0 -10.5 -6.5q-5.5 -6.5 -8.5 -14.5z" />
<glyph unicode="&#78;" horiz-adv-x="732" d="M662 70q0 -35 -16 -56.5q-16 -21.5 -48 -21.5q-24 0 -38.5 12q-14.5 12 -31.5 39l-366 591q-3 5 -9 11q-6 6 -14 6q-2 0 -8.5 -3.5q-6.5 -3.5 -6.5 -16.5v-631h-54v637q0 26 8.5 40.5q8.5 14.5 20 21q11.5 6.5 22 8q10.5 1.5 15.5 1.5q29 0 43.5 -14.5q14.5 -14.5 25.5 -32.5l368 -594q4 -7 9 -12.5q5 -5.5 13 -5.5q10 0 11.5 6.5q1.5 6.5 1.5 11.5v633l54 0z" />
<glyph unicode="&#79;" horiz-adv-x="778" d="M390 708q95 0 160 -20.5q65 -20.5 104.5 -64q39.5 -43.5 56.5 -111q17 -67.5 17 -162.5q0 -95 -17 -162.5q-17 -67.5 -56.5 -111q-39.5 -43.5 -104.5 -64q-65 -20.5 -160 -20.5q-95 0 -160 20.5q-65 20.5 -105 64q-40 43.5 -57.5 111q-17.5 67.5 -17.5 162.5q0 95 17.5 162.5q17.5 67.5 57.5 111q40 43.5 105 64q65 20.5 160 20.5zt0 0zM108 350q0 -84 12 -142.5q12 -58.5 43.5 -96q31.5 -37.5 86 -54.5q54.5 -17 139.5 -17q85 0 139.5 17q54.5 17 86 54.5q31.5 37.5 43.5 96q12 58.5 12 142.5q0 84 -12 142.5q-12 58.5 -43.5 96q-31.5 37.5 -86 54.5q-54.5 17 -139.5 17q-85 0 -139.5 -17q-54.5 -17 -86 -54.5q-31.5 -37.5 -43.5 -96t-12 -142.5z" />
<glyph unicode="&#80;" horiz-adv-x="671" d="M70 0v617q0 48 20.5 65.5q20.5 17.5 65.5 17.5h294q50 0 84.5 -12q34.5 -12 56 -36.5q21.5 -24.5 31 -63.5q9.5 -39 9.5 -93q0 -59 -9.5 -98.5q-9.5 -39.5 -31 -64.5q-21.5 -25 -56 -35.5q-34.5 -10.5 -84.5 -10.5h-326v-286zM450 334q40 0 64.5 10q24.5 10 37.5 30.5q13 20.5 17 50.5q4 30 4 70q0 37 -4.5 66.5q-4.5 29.5 -18 49.5q-13.5 20 -37.5 30.5q-24 10.5 -63 10.5h-286q-30 0 -35 -12.5q-5 -12.5 -5 -30.5l0 -275z" />
<glyph unicode="&#81;" horiz-adv-x="781" d="M390 708q95 0 160 -20.5q65 -20.5 104.5 -64q39.5 -43.5 56.5 -111q17 -67.5 17 -162.5q0 -115 -25.5 -188.5q-25.5 -73.5 -85.5 -109.5l0 -4h118v-48h-327q-102 0 -170.5 19q-68.5 19 -110.5 61q-42 42 -59.5 108.5q-17.5 66.5 -17.5 161.5q0 95 17.5 162.5q17.5 67.5 57.5 111q40 43.5 105 64q65 20.5 160 20.5zt0 0zM108 350q0 -84 12 -141.5q12 -57.5 43.5 -93q31.5 -35.5 86 -51.5q54.5 -16 139.5 -16q85 0 139.5 16q54.5 16 86 51.5q31.5 35.5 43.5 93q12 57.5 12 141.5q0 84 -12 142.5q-12 58.5 -43.5 96q-31.5 37.5 -86 54.5q-54.5 17 -139.5 17q-85 0 -139.5 -17q-54.5 -17 -86 -54.5q-31.5 -37.5 -43.5 -96t-12 -142.5z" />
<glyph unicode="&#82;" horiz-adv-x="691" d="M70 593q0 53 25 80q25 27 80 27h295q48 0 79.5 -15q31.5 -15 50.5 -42.5q19 -27.5 26.5 -65q7.5 -37.5 7.5 -82.5q0 -47 -7 -85.5q-7 -38.5 -24.5 -66q-17.5 -27.5 -47.5 -43q-30 -15.5 -77 -15.5h-155v-5l328 -280h-79l-309 266q-8 7 -13.5 12.5q-5.5 5.5 -5.5 15.5v16q0 23 24 23h207q36 0 56.5 13q20.5 13 30 35q9.5 22 12 51.5q2.5 29.5 2.5 62.5q0 35 -3.5 64q-3.5 29 -15.5 49.5q-12 20.5 -35 32q-23 11.5 -62 11.5h-286q-17 0 -33.5 -10q-16.5 -10 -16.5 -37v-605l-54 0z" />
<glyph unicode="&#83;" horiz-adv-x="626" d="M51 48h395q16 0 30.5 5q14.5 5 26 18.5q11.5 13.5 18.5 36.5q7 23 7 60q0 17 -3 33.5q-3 16.5 -12 31q-9 14.5 -26.5 27.5q-17.5 13 -46.5 23l-279 96q-28 10 -50.5 23q-22.5 13 -38 31.5q-15.5 18.5 -24 45q-8.5 26.5 -8.5 63.5q0 75 37.5 116.5q37.5 41.5 120.5 41.5h355v-48h-355q-55 0 -77.5 -25q-22.5 -25 -22.5 -85q0 -17 1.5 -33q1.5 -16 8.5 -30.5q7 -14.5 21 -26.5q14 -12 40 -21l272 -96q31 -11 58 -23q27 -12 46 -30q19 -18 30 -45.5q11 -27.5 11 -68.5q0 -32 -6.5 -62.5q-6.5 -30.5 -23 -54q-16.5 -23.5 -43.5 -37.5q-27 -14 -67 -14l-395 0z" />
<glyph unicode="&#84;" horiz-adv-x="640" d="M293 0v652h-293v48h640v-48h-293l0 -652z" />
<glyph unicode="&#85;" horiz-adv-x="702" d="M351 40q64 0 107.5 9.5q43.5 9.5 70 32.5q26.5 23 38 61q11.5 38 11.5 94v463h54v-482q0 -64 -20 -107q-20 -43 -57 -69.5q-37 -26.5 -88.5 -38q-51.5 -11.5 -115.5 -11.5q-64 0 -116 11.5q-52 11.5 -88.5 38q-36.5 26.5 -56.5 69.5q-20 43 -20 107v482h54v-463q0 -56 11.5 -94q11.5 -38 38 -61q26.5 -23 70 -32.5t107.5 -9.5z" />
<glyph unicode="&#86;" horiz-adv-x="648" d="M307 61q4 -10 8.5 -12.5q4.5 -2.5 8.5 -2.5q4 0 8.5 2.5q4.5 2.5 8.5 12.5l246 639h61l-263 -662q-5 -14 -18 -30q-13 -16 -43 -16q-30 0 -43 16q-13 16 -18 30l-263 662l61 0z" />
<glyph unicode="&#87;" horiz-adv-x="940" d="M399 640q3 10 7.5 21.5q4.5 11.5 12.5 22q8 10.5 20.5 17.5q12.5 7 30.5 7q18 0 30.5 -7q12.5 -7 20.5 -17.5q8 -10.5 12.5 -22q4.5 -11.5 7.5 -21.5l150 -578q2 -8 8 -13q6 -5 11 -5q9 0 12.5 8.5q3.5 8.5 4.5 13.5l158 634h55l-166 -649q-10 -37 -28 -48q-18 -11 -38 -11q-18 0 -30 6q-12 6 -20 15q-8 9 -12.5 20.5q-4.5 11.5 -7.5 22.5l-152 575q-1 4 -4.5 12q-3.5 8 -11.5 8q-8 0 -11.5 -8q-3.5 -8 -4.5 -12l-152 -575q-3 -11 -7.5 -22.5q-4.5 -11.5 -12.5 -20.5q-8 -9 -20 -15q-12 -6 -30 -6q-20 0 -38 11q-18 11 -28 48l-166 649h55l158 -634q1 -5 4.5 -13.5q3.5 -8.5 12.5 -8.5q5 0 11 5q6 5 8 13z" />
<glyph unicode="&#88;" horiz-adv-x="580" d="M526 0l-236 316l-236 -316h-64l271 355l-263 345h64l228 -306l228 306h64l-263 -345l271 -355z" />
<glyph unicode="&#89;" horiz-adv-x="614" d="M564 700h60l-290 -470v-230h-54v230l-290 470h60l257 -421z" />
<glyph unicode="&#90;" horiz-adv-x="578" d="M82 0q-23 0 -37.5 6q-14.5 6 -22 15q-7.5 9 -10 18.5q-2.5 9.5 -2.5 16.5q0 14 7 28q7 14 17 25l465 502q5 5 8.5 13q3.5 8 3.5 13q0 11 -7.5 13q-7.5 2 -11.5 2h-458v48h471q26 0 44.5 -14q18.5 -14 18.5 -40q0 -19 -8 -32.5q-8 -13.5 -16 -22.5l-467 -510q-10 -10 -10 -21q0 -12 12 -12h475l0 -48z" />
<glyph unicode="&#91;" horiz-adv-x="324" d="M120 -108h174v-46h-224v858h224v-46l-174 0z" />
<glyph unicode="&#92;" horiz-adv-x="468" d="M-10 740h50l438 -903l-50 0z" />
<glyph unicode="&#93;" horiz-adv-x="324" d="M204 658h-174v46h224v-858h-224v46l174 0z" />
<glyph unicode="&#94;" horiz-adv-x="452" d="M247 643q-4 3 -9 6q-5 3 -12 3q-7 0 -12 -3q-5 -3 -9 -6l-147 -129l-28 35l157 134q7 6 16.5 11.5q9.5 5.5 22.5 5.5q13 0 22.5 -5.5q9.5 -5.5 16.5 -11.5l157 -134l-28 -35z" />
<glyph unicode="&#95;" horiz-adv-x="530" d="M0 -61h530v-48l-530 0z" />
<glyph unicode="&#96;" horiz-adv-x="214" d="M184 599l-31 -39l-123 100l31 39z" />
<glyph unicode="&#97;" horiz-adv-x="514" d="M333 530q66 0 96.5 -35q30.5 -35 30.5 -98v-327q0 -35 -14.5 -52.5q-14.5 -17.5 -62.5 -17.5h-204q-79 0 -111 38.5q-32 38.5 -32 121.5q0 83 32.5 120q32.5 37 110.5 37h229v89q0 30 -16.5 53.5q-16.5 23.5 -58.5 23.5h-257v47zM165 270q-24 0 -38.5 -8q-14.5 -8 -23 -23q-8.5 -15 -11 -35q-2.5 -20 -2.5 -44q0 -24 2.5 -44.5q2.5 -20.5 11 -36q8.5 -15.5 23 -24q14.5 -8.5 38.5 -8.5h218q14 0 19.5 7.5q5.5 7.5 5.5 16.5l0 199z" />
<glyph unicode="&#98;" horiz-adv-x="526" d="M161 0q-24 0 -44 2.5q-20 2.5 -34 11q-14 8.5 -21.5 25q-7.5 16.5 -7.5 44.5v617h52v-170h167q64 0 105.5 -17q41.5 -17 66.5 -50q25 -33 35 -82q10 -49 10 -113q0 -64 -10 -113.5q-10 -49.5 -35 -84q-25 -34.5 -66.5 -52.5q-41.5 -18 -105.5 -18zM106 88q0 -20 5 -30.5q5 -10.5 32 -10.5h130q52 0 84.5 16q32.5 16 49.5 45.5q17 29.5 23 70q6 40.5 6 89.5q0 49 -6 88.5q-6 39.5 -23 67.5q-17 28 -49.5 43.5q-32.5 15.5 -84.5 15.5l-167 0z" />
<glyph unicode="&#99;" horiz-adv-x="466" d="M260 0q-68 0 -111 17.5q-43 17.5 -68.5 51q-25.5 33.5 -35 83q-9.5 49.5 -9.5 113.5q0 60 9.5 109q9.5 49 35 83.5q25.5 34.5 68.5 53.5q43 19 111 19h178v-47h-178q-53 0 -86 -14.5q-33 -14.5 -51.5 -42q-18.5 -27.5 -25.5 -68.5q-7 -41 -7 -93q0 -56 7 -97q7 -41 25.5 -68q18.5 -27 51.5 -40q33 -13 86 -13h190l0 -47z" />
<glyph unicode="&#100;" horiz-adv-x="526" d="M260 0q-68 0 -111 16q-43 16 -68.5 49q-25.5 33 -35 82.5q-9.5 49.5 -9.5 117.5q0 64 9.5 113q9.5 49 35 83q25.5 34 68.5 51.5q43 17.5 111 17.5h160v170h52v-623q0 -17 -2.5 -31q-2.5 -14 -10 -24.5q-7.5 -10.5 -21.5 -16q-14 -5.5 -38 -5.5zM260 483q-53 0 -86 -13q-33 -13 -51.5 -40q-18.5 -27 -25.5 -68q-7 -41 -7 -97q0 -60 7 -101.5q7 -41.5 25.5 -67.5q18.5 -26 51.5 -37.5q33 -11.5 86 -11.5h120q27 0 33.5 10q6.5 10 6.5 35l0 391z" />
<glyph unicode="&#101;" horiz-adv-x="527" d="M219 0q-55 0 -90.5 19.5q-35.5 19.5 -56 54.5q-20.5 35 -28.5 82.5q-8 47.5 -8 104.5q0 67 10.5 118.5q10.5 51.5 36 86q25.5 34.5 69.5 52.5q44 18 111 18q49 0 91 -10.5q42 -10.5 72.5 -34.5q30.5 -24 47.5 -62.5q17 -38.5 17 -94.5q0 -46 -15.5 -66.5q-15.5 -20.5 -60.5 -20.5h-325q0 -35 4.5 -70.5q4.5 -35.5 18 -64.5q13.5 -29 39 -47q25.5 -18 67.5 -18h260v-47zM415 294q13 0 17.5 8q4.5 8 4.5 16v7q0 49 -11.5 80.5q-11.5 31.5 -34 50q-22.5 18.5 -54.5 26q-32 7.5 -73 7.5q-44 0 -77 -9q-33 -9 -54.5 -31.5q-21.5 -22.5 -32 -60q-10.5 -37.5 -10.5 -94.5z" />
<glyph unicode="&#102;" horiz-adv-x="275" d="M79 0v483h-79v47h79q0 96 51 136q51 40 145 40l0 -48q-37 0 -64 -6q-27 -6 -44.5 -20.5q-17.5 -14.5 -26 -39q-8.5 -24.5 -8.5 -62.5l143 0v-47h-143l0 -483z" />
<glyph unicode="&#103;" horiz-adv-x="540" d="M260 0q-68 0 -111 16q-43 16 -68.5 49q-25.5 33 -35 82.5q-9.5 49.5 -9.5 117.5q0 64 9.5 113q9.5 49 35 83q25.5 34 68.5 51.5q43 17.5 111 17.5h114q52 0 82 -20q30 -20 30 -73v-376q0 -54 -9 -96.5q-9 -42.5 -32 -72.5q-23 -30 -64.5 -46q-41.5 -16 -105.5 -16h-202v47h202q70 0 110.5 26q40.5 26 46.5 97zM434 440q0 20 -10.5 31.5q-10.5 11.5 -36.5 11.5h-127q-53 0 -86 -13q-33 -13 -51.5 -40q-18.5 -27 -25.5 -68q-7 -41 -7 -97q0 -60 7 -101.5q7 -41.5 25.5 -67.5q18.5 -26 51.5 -37.5q33 -11.5 86 -11.5l174 0z" />
<glyph unicode="&#104;" horiz-adv-x="528" d="M54 700h52v-170h204q86 0 125 -43.5q39 -43.5 39 -134.5v-352h-52v358q0 60 -26 92.5q-26 32.5 -86 32.5h-204v-483l-52 0z" />
<glyph unicode="&#105;" horiz-adv-x="164" d="M56 530h52v-530h-52zM54 622v78h56l0 -78z" />
<glyph unicode="&#106;" horiz-adv-x="222" d="M-50 -130q6 0 11.5 -0.5q5.5 -0.5 10.5 -0.5q68 0 105 30q37 30 37 102v529h52v-539q0 -82 -50 -126.5q-50 -44.5 -133 -44.5q-10 0 -18 0.5q-8 0.5 -15 1.5zM112 626v74h56l0 -74z" />
<glyph unicode="&#107;" horiz-adv-x="463" d="M401 0l-215 198q-13 11 -26.5 32q-13.5 21 -13.5 44q0 23 12.5 42q12.5 19 28.5 34l192 180h70l-230 -216q-7 -6 -13 -15.5q-6 -9.5 -6 -22.5q0 -16 10 -29q10 -13 19 -21l244 -226zM54 0v700h52l0 -700z" />
<glyph unicode="&#108;" horiz-adv-x="160" d="M54 700h52v-700l-52 0z" />
<glyph unicode="&#109;" horiz-adv-x="824" d="M54 446q0 38 15 61q15 23 57 23h491q83 0 118 -42.5q35 -42.5 35 -120.5v-367h-52v367q0 24 -4.5 45q-4.5 21 -16 37q-11.5 16 -31 25q-19.5 9 -49.5 9h-179v-483h-52v483h-248q-15 0 -23.5 -6q-8.5 -6 -8.5 -32v-445l-52 0z" />
<glyph unicode="&#110;" horiz-adv-x="528" d="M54 446q0 38 15 61q15 23 57 23h195q83 0 118 -42.5q35 -42.5 35 -120.5v-367h-52v367q0 24 -4.5 45q-4.5 21 -16 37q-11.5 16 -31 25q-19.5 9 -49.5 9h-183q-15 0 -23.5 -6q-8.5 -6 -8.5 -32v-445l-52 0z" />
<glyph unicode="&#111;" horiz-adv-x="596" d="M298 536q71 0 121 -15.5q50 -15.5 81.5 -48.5q31.5 -33 45.5 -84q14 -51 14 -122q0 -71 -14 -122.5q-14 -51.5 -45.5 -84.5q-31.5 -33 -81.5 -49q-50 -16 -121 -16q-71 0 -121 16q-50 16 -81.5 49q-31.5 33 -45.5 84.5q-14 51.5 -14 122.5q0 71 14 122q14 51 45.5 84q31.5 33 81.5 48.5q50 15.5 121 15.5zt0 0zM90 266q0 -64 11.5 -107q11.5 -43 36.5 -69.5q25 -26.5 64.5 -37.5q39.5 -11 95.5 -11q56 0 95.5 11q39.5 11 64.5 37.5q25 26.5 36.5 69.5q11.5 43 11.5 107q0 64 -11.5 106.5q-11.5 42.5 -36.5 68.5q-25 26 -64.5 37q-39.5 11 -95.5 11q-56 0 -95.5 -11q-39.5 -11 -64.5 -37q-25 -26 -36.5 -68.5t-11.5 -106.5z" />
<glyph unicode="&#112;" horiz-adv-x="526" d="M106 -170h-52v624q0 22 7 37q7 15 18.5 23.5q11.5 8.5 26.5 12q15 3.5 32 3.5h135q64 0 105.5 -17.5q41.5 -17.5 66.5 -51q25 -33.5 35 -82.5q10 -49 10 -113q0 -64 -10 -113.5q-10 -49.5 -35 -83.5q-25 -34 -66.5 -51.5q-41.5 -17.5 -105.5 -17.5h-167zM106 47h167q52 0 84.5 16q32.5 16 49.5 45q17 29 23 69q6 40 6 89q0 49 -6 89q-6 40 -23 68.5q-17 28.5 -49.5 44q-32.5 15.5 -84.5 15.5h-135q-16 0 -24 -6.5q-8 -6.5 -8 -29.5z" />
<glyph unicode="&#113;" horiz-adv-x="526" d="M420 0h-167q-64 0 -106 17.5q-42 17.5 -66.5 51.5q-24.5 34 -34.5 83.5q-10 49.5 -10 113.5q0 64 10 113q10 49 34.5 82.5q24.5 33.5 66.5 51q42 17.5 106 17.5h135q16 0 31.5 -3.5q15.5 -3.5 27 -12q11.5 -8.5 18.5 -23.5q7 -15 7 -37v-624h-52zM420 447q0 23 -8 29.5q-8 6.5 -24 6.5h-135q-53 0 -85 -15.5q-32 -15.5 -49 -44q-17 -28.5 -23 -68.5q-6 -40 -6 -89q0 -49 6 -89q6 -40 23 -69q17 -29 49 -45q32 -16 85 -16l167 0z" />
<glyph unicode="&#114;" horiz-adv-x="267" d="M54 348q0 91 43 136.5q43 45.5 134 45.5h36v-47h-36q-68 0 -96.5 -36q-28.5 -36 -28.5 -111v-336l-52 0z" />
<glyph unicode="&#115;" horiz-adv-x="494" d="M34 47h304q47 0 61.5 23q14.5 23 14.5 63q0 24 -8 38.5q-8 14.5 -25 24.5q-17 10 -45 17.5q-28 7.5 -68 16.5l-92 21q-33 7 -60.5 17.5q-27.5 10.5 -47.5 27.5q-20 17 -31 42.5q-11 25.5 -11 63.5q0 63 36.5 95.5q36.5 32.5 96.5 32.5h275v-47h-275q-45 0 -62 -19.5q-17 -19.5 -17 -61.5q0 -27 7 -44.5q7 -17.5 21 -28.5q14 -11 35.5 -18q21.5 -7 50.5 -14l96 -22q45 -10 78 -19.5q33 -9.5 55.5 -24.5q22.5 -15 33.5 -38q11 -23 11 -60q0 -31 -6 -55.5q-6 -24.5 -21 -42q-15 -17.5 -40 -26.5q-25 -9 -63 -9l-304 0z" />
<glyph unicode="&#116;" horiz-adv-x="277" d="M227 0q-54 0 -83.5 14.5q-29.5 14.5 -43 38q-13.5 23.5 -15.5 53.5q-2 30 -2 62v315h-83v47h83v170h52v-170h142v-47h-142v-330q0 -31 4.5 -51.5q4.5 -20.5 16.5 -32.5q12 -12 32 -17q20 -5 51 -5h38l0 -47z" />
<glyph unicode="&#117;" horiz-adv-x="532" d="M478 84q0 -38 -15 -61q-15 -23 -57 -23h-199q-83 0 -118 42.5q-35 42.5 -35 120.5v367h52v-367q0 -24 4.5 -45q4.5 -21 16 -37q11.5 -16 31 -25q19.5 -9 49.5 -9h187q15 0 23.5 6q8.5 6 8.5 32v445l52 0z" />
<glyph unicode="&#118;" horiz-adv-x="478" d="M224 65q3 -8 6.5 -15q3.5 -7 8.5 -7q5 0 8.5 7q3.5 7 6.5 15l171 465h53l-184 -490q-11 -29 -25.5 -37.5q-14.5 -8.5 -29.5 -8.5q-15 0 -29.5 8.5q-14.5 8.5 -25.5 37.5l-184 490l53 0z" />
<glyph unicode="&#119;" horiz-adv-x="706" d="M171 66q2 -5 4.5 -10.5q2.5 -5.5 6.5 -5.5q5 0 7 6.5q2 6.5 3 8.5l111 428q8 28 23 35.5q15 7.5 27 7.5q12 0 27 -7.5q15 -7.5 23 -35.5l111 -428q1 -2 3 -8.5q2 -6.5 7 -6.5q4 0 6.5 5.5q2.5 5.5 4.5 10.5l119 464h52l-130 -492q-5 -17 -15.5 -30.5q-10.5 -13.5 -35.5 -13.5q-14 0 -24 5q-10 5 -16 12q-6 7 -9.5 14.5q-3.5 7.5 -4.5 13.5l-108 414q-2 7 -4.5 13q-2.5 6 -5.5 6q-3 0 -5.5 -6q-2.5 -6 -4.5 -13l-108 -414q-2 -6 -5 -13.5q-3 -7.5 -9 -14.5q-6 -7 -15.5 -12q-9.5 -5 -24.5 -5q-25 0 -35.5 13.5q-10.5 13.5 -15.5 30.5l-130 492l52 0z" />
<glyph unicode="&#120;" horiz-adv-x="438" d="M381 0l-162 233l-162 -233h-63l197 272l-188 258h61l155 -219l155 219h61l-187 -258l196 -272z" />
<glyph unicode="&#121;" horiz-adv-x="504" d="M194 -171h-56l80 174l-224 527h56l196 -465l208 465l56 0z" />
<glyph unicode="&#122;" horiz-adv-x="441" d="M85 0q-9 0 -20.5 1.5q-11.5 1.5 -21 6q-9.5 4.5 -16.5 13.5q-7 9 -7 24q0 17 9 31.5q9 14.5 17 23.5l306 360q2 3 5 6.5q3 3.5 3 8.5q0 6 -4 7q-4 1 -6 1h-315v47h339q23 0 34.5 -14q11.5 -14 11.5 -29q0 -11 -5 -23q-5 -12 -12 -20l-319 -377q-2 -3 -5 -6q-3 -3 -3 -8q0 -5 3 -5l6 -1h336v-47l-336 0z" />
<glyph unicode="&#123;" horiz-adv-x="296" d="M113 280q14 -5 22 -14q8 -9 11.5 -20.5q3.5 -11.5 4.5 -24q1 -12.5 1 -23.5v-138q0 -68 27 -108.5q27 -40.5 87 -40.5l0 -47q-45 0 -76.5 16q-31.5 16 -51 43.5q-19.5 27.5 -28 64.5q-8.5 37 -8.5 78v143q0 26 -16 38q-16 12 -36 14l0 46q20 2 36 14q16 12 16 38v143q0 41 8.5 78q8.5 37 28 64.5q19.5 27.5 51 43.5q31.5 16 76.5 16l0 -47q-60 0 -87 -40.5q-27 -40.5 -27 -108.5v-138q0 -11 -1 -23.5q-1 -12.5 -4.5 -24q-3.5 -11.5 -11.5 -20.5q-8 -9 -22 -14z" />
<glyph unicode="&#124;" horiz-adv-x="150" d="M50 740h50v-903l-50 0z" />
<glyph unicode="&#125;" horiz-adv-x="296" d="M183 288q-14 5 -22 14q-8 9 -12 20.5q-4 11.5 -4.5 24q-0.5 12.5 -0.5 23.5v138q0 68 -27 108.5q-27 40.5 -87 40.5l0 47q45 0 76 -16q31 -16 50.5 -43.5q19.5 -27.5 28.5 -64.5q9 -37 9 -78v-143q0 -26 16 -38q16 -12 36 -14l0 -46q-20 -2 -36 -14q-16 -12 -16 -38v-143q0 -41 -9 -78q-9 -37 -28.5 -64.5q-19.5 -27.5 -50.5 -43.5q-31 -16 -76 -16l0 47q60 0 87 40.5q27 40.5 27 108.5v138q0 11 0.5 23.5q0.5 12.5 4.5 24q4 11.5 12 20.5q8 9 22 14z" />
<glyph unicode="&#126;" horiz-adv-x="533" d="M30 318q24 33 58 58.5q34 25.5 82 25.5q23 0 42.5 -6q19.5 -6 32.5 -14l54 -32q14 -8 27.5 -15q13.5 -7 36.5 -7q16 0 31.5 6.5q15.5 6.5 29 16.5q13.5 10 25 23q11.5 13 19.5 25l35 -31q-23 -36 -57.5 -62q-34.5 -26 -82.5 -26q-23 0 -39.5 5q-16.5 5 -35.5 16l-45 26q-15 8 -32.5 17.5q-17.5 9.5 -40.5 9.5q-33 0 -60 -22q-27 -22 -45 -46z" />
<glyph unicode="&#160;" horiz-adv-x="233" />
<glyph unicode="&#161;" horiz-adv-x="194" d="M124 700v-78h-54v78zM124 0h-54v542l54 0z" />
<glyph unicode="&#162;" horiz-adv-x="474" d="M298 0v-68h-44v68q-68 0 -111 17.5q-43 17.5 -68.5 51q-25.5 33.5 -35 83q-9.5 49.5 -9.5 113.5q0 60 9.5 109q9.5 49 35 83.5q25.5 34.5 68.5 53.5q43 19 111 19l0 68h44v-68h143v-47h-143v-436h154v-47zM254 483q-53 0 -86 -14.5q-33 -14.5 -51.5 -42q-18.5 -27.5 -25.5 -68.5q-7 -41 -7 -93q0 -56 7 -97q7 -41 25.5 -68q18.5 -27 51.5 -40q33 -13 86 -13z" />
<glyph unicode="&#163;" horiz-adv-x="549" d="M162 0q-43 0 -62 16.5q-19 16.5 -19 66.5v361h-51v47h51q0 39 7 77q7 38 25 67q18 29 50 47q32 18 82 18h136v-47h-119q-40 0 -64.5 -10q-24.5 -10 -39 -30q-14.5 -20 -19.5 -50.5q-5 -30.5 -6 -71.5l248 0v-47h-248v-370q0 -27 25 -27h421l0 -47z" />
<glyph unicode="&#164;" horiz-adv-x="572" d="M86 310q0 30 10 62q10 32 32 60l-58 58l36 36l57 -58q29 22 61 32q32 10 62 10q24 0 57 -8q33 -8 65 -35l58 59l36 -36l-58 -58q22 -28 32 -60q10 -32 10 -62q0 -30 -10 -62q-10 -32 -32 -60l58 -58l-36 -36l-58 59q-32 -27 -65 -35q-33 -8 -57 -8q-24 0 -57 8q-33 8 -65 35l-58 -59l-36 37l58 57q-22 28 -32 60q-10 32 -10 62zt0 0zM138 310q0 -30 11.5 -57q11.5 -27 32 -47.5q20.5 -20.5 47.5 -32q27 -11.5 57 -11.5q30 0 57 11.5q27 11.5 47.5 32q20.5 20.5 32 47.5q11.5 27 11.5 57q0 30 -11.5 57q-11.5 27 -32 47.5q-20.5 20.5 -47.5 32q-27 11.5 -57 11.5q-30 0 -57 -11.5q-27 -11.5 -47.5 -32q-20.5 -20.5 -32 -47.5t-11.5 -57z" />
<glyph unicode="&#165;" horiz-adv-x="494" d="M274 276v-79h186v-48h-186v-149h-54v149h-186v48h186v79h-186v48h159l-213 376h60l207 -371l207 371h60l-213 -376h159l0 -48z" />
<glyph unicode="&#166;" horiz-adv-x="150" d="M50 237h50v-300h-50zM50 740h50v-300l-50 0z" />
<glyph unicode="&#167;" horiz-adv-x="484" d="M98 -126h153q5 0 18.5 1q13.5 1 28 8q14.5 7 25.5 21q11 14 11 40q0 24 -9 40q-9 16 -24 29l-202 171q-23 20 -36 45.5q-13 25.5 -13 63.5q0 33 12.5 58.5q12.5 25.5 34 43q21.5 17.5 51 26.5q29.5 9 63.5 10l-69 59q-17 15 -34 38q-17 23 -17 60q0 25 9.5 45.5q9.5 20.5 26.5 35.5q17 15 39 23q22 8 48 8h173v-48h-176q-29 0 -46.5 -18q-17.5 -18 -17.5 -46q0 -14 6 -31q6 -17 21 -30l204 -173q29 -24 42.5 -56q13.5 -32 13.5 -63q0 -35 -14 -59q-14 -24 -37.5 -39q-23.5 -15 -54.5 -22q-31 -7 -64 -7l64 -54q22 -18 42 -43.5q20 -25.5 20 -67.5q0 -30 -11 -52.5q-11 -22.5 -30 -36.5q-19 -14 -44.5 -21q-25.5 -7 -55.5 -7h-151zM219 146q28 0 56 3.5q28 3.5 51 14.5q23 11 37.5 31.5q14.5 20.5 14.5 54.5q0 40 -30 66l-84 71h-16q-26 0 -51.5 -4q-25.5 -4 -45.5 -14.5q-20 -10.5 -32.5 -30q-12.5 -19.5 -12.5 -49.5q0 -46 31 -73z" />
<glyph unicode="&#168;" horiz-adv-x="256" d="M170 622v78h56v-78zM30 622v78h56l0 -78z" />
<glyph unicode="&#169;" horiz-adv-x="834" d="M417 708q100 0 169.5 -19.5q69.5 -19.5 113.5 -62.5q44 -43 64 -111q20 -68 20 -164q0 -99 -20 -167.5q-20 -68.5 -64.5 -111q-44.5 -42.5 -114 -61.5q-69.5 -19 -168.5 -19q-99 0 -169 19q-70 19 -114 61.5q-44 42.5 -64 111q-20 68.5 -20 167.5q0 96 20 164q20 68 64 111q44 43 113.5 62.5q69.5 19.5 169.5 19.5zt0 0zM108 351q0 -83 15.5 -142q15.5 -59 52 -96.5q36.5 -37.5 95.5 -55q59 -17.5 146 -17.5q87 0 146 17.5q59 17.5 95.5 55q36.5 37.5 52 96.5q15.5 59 15.5 142q0 77 -12.5 135q-12.5 58 -46.5 96.5q-34 38.5 -94.5 58q-60.5 19.5 -155.5 19.5q-95 0 -155.5 -19.5q-60.5 -19.5 -94.5 -58q-34 -38.5 -46.5 -96.5q-12.5 -58 -12.5 -135zt0 0zM370 149q-44 0 -74 14q-30 14 -49.5 40q-19.5 26 -28 63q-8.5 37 -8.5 83q0 46 8.5 83.5q8.5 37.5 28.5 64q20 26.5 53 41q33 14.5 81 14.5h176v-48h-176q-33 0 -55 -13q-22 -13 -35 -34.5q-13 -21.5 -18 -49.5q-5 -28 -5 -58q0 -34 5 -62q5 -28 17 -48q12 -20 32 -31q20 -11 51 -11h196l0 -48z" />
<glyph unicode="&#170;" horiz-adv-x="333" d="M213 700q33 0 51.5 -19.5q18.5 -19.5 18.5 -54.5v-179q0 -38 -43 -38h-108q-48 0 -65 25q-17 25 -17 70q0 40 17 67q17 27 65 27h106v17q0 20 -9 31q-9 11 -32 11h-129v43zM132 556q-22 0 -29 -15.5q-7 -15.5 -7 -36.5q0 -21 7 -37q7 -16 29 -16h94q12 0 12 13v92zM61 373h222v-40l-222 0z" />
<glyph unicode="&#171;" horiz-adv-x="394" d="M115 315q-5 -8 -9.5 -14q-4.5 -6 -4.5 -20q0 -14 4.5 -20q4.5 -6 9.5 -14l120 -173l-43 -29l-124 182q-8 12 -13 24.5q-5 12.5 -5 29.5q0 18 5 30q5 12 13 24l124 182l43 -29zM263 313q-2 -3 -9 -14q-7 -11 -7 -18q0 -5 3.5 -12q3.5 -7 12.5 -20l81 -116l-42 -29l-91 133q-7 10 -13 20.5q-6 10.5 -6 23.5q0 13 6 23.5q6 10.5 13 20.5l91 133l42 -29z" />
<glyph unicode="&#172;" horiz-adv-x="566" d="M446 88v198h-376v48h426l0 -246z" />
<glyph unicode="&#173;" horiz-adv-x="400" d="M50 300h300v-58l-300 0z" />
<glyph unicode="&#174;" horiz-adv-x="526" d="M253 275q-53 0 -91 12q-38 12 -63 38q-25 26 -37 67.5q-12 41.5 -12 100.5q0 57 11.5 97.5q11.5 40.5 37 66q25.5 25.5 66.5 37.5q41 12 100 12q55 0 95 -10q40 -10 66 -34.5q26 -24.5 38 -65.5q12 -41 12 -103q0 -60 -12 -101.5q-12 -41.5 -38.5 -67.5q-26.5 -26 -69 -37.5q-42.5 -11.5 -103.5 -11.5zt0 0zM252 309q48 0 82.5 7.5q34.5 7.5 57 27.5q22.5 20 33.5 55q11 35 11 89q0 47 -7.5 82q-7.5 35 -26.5 57.5q-19 22.5 -51.5 33.5q-32.5 11 -81.5 11q-45 0 -78.5 -7.5q-33.5 -7.5 -56 -27q-22.5 -19.5 -33.5 -54q-11 -34.5 -11 -88.5q0 -47 7 -81.5q7 -34.5 25 -58q18 -23.5 49.5 -35q31.5 -11.5 80.5 -11.5zt0 0zM157 373v209q0 14 7 24q7 10 36 10h99q38 0 54 -18q16 -18 16 -60q0 -26 -5.5 -40.5q-5.5 -14.5 -14 -21.5q-8.5 -7 -17.5 -9q-9 -2 -16 -2h-25l91 -92h-54l-81 82q-5 5 -8.5 9.5q-3.5 4.5 -3.5 15.5q0 14 7.5 16q7.5 2 13.5 2h35q11 0 23.5 2.5q12.5 2.5 12.5 17.5v35q0 13 -9 20.5q-9 7.5 -23 7.5h-81q-9 0 -13 -3q-4 -3 -4 -15l0 -190z" />
<glyph unicode="&#175;" horiz-adv-x="336" d="M26 600v46h284l0 -46z" />
<glyph unicode="&#176;" horiz-adv-x="320" d="M50 674q0 22 8.5 42q8.5 20 23.5 35q15 15 35 24q20 9 43 9q22 0 42 -9q20 -9 35 -24q15 -15 24 -35q9 -20 9 -42q0 -23 -9 -43q-9 -20 -24 -35q-15 -15 -35 -23.5q-20 -8.5 -42 -8.5q-23 0 -43 8.5q-20 8.5 -35 23.5q-15 15 -23.5 35q-8.5 20 -8.5 43zt0 0zM90 674q0 -29 20.5 -49.5q20.5 -20.5 49.5 -20.5q29 0 49.5 20.5q20.5 20.5 20.5 49.5q0 29 -20.5 49.5q-20.5 20.5 -49.5 20.5q-29 0 -49.5 -20.5t-20.5 -49.5z" />
<glyph unicode="&#177;" horiz-adv-x="566" d="M256 140v186h-186v48h186v186h54v-186h186v-48h-186v-186zM70 50v48h426l0 -48z" />
<glyph unicode="&#178;" horiz-adv-x="402" d="M80 300q-21 0 -25.5 10q-4.5 10 -4.5 17q0 16 6 22.5q6 6.5 11 11.5l201 157q23 17 27 36.5q4 19.5 4 38.5q0 34 -12 49q-12 15 -45 15h-168v44h184q51 0 72.5 -25.5q21.5 -25.5 21.5 -81.5q0 -38 -9.5 -61.5q-9.5 -23.5 -36.5 -44.5l-168 -132q-2 -2 -5 -3.5q-3 -1.5 -3 -4.5q0 -4 7 -4h198v-44l-255 0z" />
<glyph unicode="&#179;" horiz-adv-x="364" d="M50 344h146q15 0 28 1q13 1 22.5 7q9.5 6 15 19q5.5 13 5.5 37q0 36 -14 53.5q-14 17.5 -49 17.5h-144v46h141q16 0 28 3q12 3 20 10.5q8 7.5 11.5 21q3.5 13.5 3.5 35.5q0 30 -10 46q-10 16 -39 16h-156v44h158q54 0 74.5 -26q20.5 -26 20.5 -80q0 -40 -9.5 -62q-9.5 -22 -44.5 -30l0 -4q32 -4 44 -27.5q12 -23.5 12 -63.5q0 -24 -4 -44q-4 -20 -14.5 -34.5q-10.5 -14.5 -28.5 -22q-18 -7.5 -47 -7.5l-170 0z" />
<glyph unicode="&#180;" horiz-adv-x="214" d="M184 660l-123 -100l-31 39l123 100z" />
<glyph unicode="&#181;" horiz-adv-x="530" d="M54 530h52v-350q0 -32 13 -57.5q13 -25.5 35 -43.5q22 -18 50 -28q28 -10 58 -10q26 0 54.5 9q28.5 9 52.5 26.5q24 17.5 39.5 43q15.5 25.5 15.5 57.5v353h52v-530h-52v72q-19 -28 -41 -43.5q-22 -15.5 -44 -23q-22 -7.5 -42 -9.5q-20 -2 -36 -2q-15 0 -34.5 1.5q-19.5 1.5 -40 8.5q-20.5 7 -41 21q-20.5 14 -39.5 39l0 -242l-52 0z" />
<glyph unicode="&#182;" horiz-adv-x="540" d="M404 -170v823h-52v-823h-52v460h-81q-49 0 -81.5 16.5q-32.5 16.5 -52 44.5q-19.5 28 -27.5 65.5q-8 37.5 -8 78.5q0 41 8 78.5q8 37.5 27.5 65.5q19.5 28 52 44.5q32.5 16.5 81.5 16.5h291v-47h-54v-823zM300 653h-81q-38 0 -60.5 -13.5q-22.5 -13.5 -34.5 -35.5q-12 -22 -16 -50.5q-4 -28.5 -4 -58.5q0 -30 4 -58.5q4 -28.5 16 -51q12 -22.5 34.5 -36q22.5 -13.5 60.5 -13.5l81 0z" />
<glyph unicode="&#183;" horiz-adv-x="160" d="M50 250v87h60l0 -87z" />
<glyph unicode="&#184;" horiz-adv-x="165" d="M0 -129h85q33 0 33 19q0 11 -11 13q-11 2 -16 2h-39q-20 0 -25 8q-5 8 -5 14q0 11 5 19l28 54h46l-20 -40q-1 -2 -2 -4.5q-1 -2.5 -1 -3.5q0 -5 3.5 -5.5q3.5 -0.5 5.5 -0.5h12q27 0 46.5 -10.5q19.5 -10.5 19.5 -44.5q0 -12 -2 -23q-2 -11 -9.5 -19.5q-7.5 -8.5 -21 -13.5q-13.5 -5 -37.5 -5l-95 0z" />
<glyph unicode="&#185;" horiz-adv-x="175" d="M67 629q0 8 -2 18q-2 10 -15 10h-40v44h59q20 0 33 -9q13 -9 13 -38v-354l-48 0z" />
<glyph unicode="&#186;" horiz-adv-x="404" d="M53 373h298v-40h-298zM202 706q80 0 116 -34.5q36 -34.5 36 -116.5q0 -82 -36 -116.5q-36 -34.5 -116 -34.5q-80 0 -116 34.5q-36 34.5 -36 116.5q0 82 36 116.5q36 34.5 116 34.5zt0 0zM96 555q0 -60 23 -84.5q23 -24.5 83 -24.5q60 0 83 24.5q23 24.5 23 84.5q0 60 -23 84.5q-23 24.5 -83 24.5q-60 0 -83 -24.5t-23 -84.5z" />
<glyph unicode="&#187;" horiz-adv-x="394" d="M202 517l124 -182q8 -12 13 -24q5 -12 5 -30q0 -17 -5 -29.5q-5 -12.5 -13 -24.5l-124 -182l-43 29l120 173q5 8 9.5 14q4.5 6 4.5 20q0 14 -4.5 20q-4.5 6 -9.5 14l-120 173zM92 458l91 -133q7 -10 13 -20.5q6 -10.5 6 -23.5q0 -13 -6 -23.5q-6 -10.5 -13 -20.5l-91 -133l-42 29l81 116q9 13 12.5 20q3.5 7 3.5 12q0 7 -7 18q-7 11 -9 14l-81 116z" />
<glyph unicode="&#188;" horiz-adv-x="638" d="M411 700h47l-318 -700h-47zM499 71h-197q-17 0 -30.5 9.5q-13.5 9.5 -13.5 30.5q0 10 4 17q4 7 11 15l204 241q5 7 14.5 14q9.5 7 23.5 7q13 0 22 -5.5q9 -5.5 9 -21.5v-263h42v-44h-42v-72h-47zM499 330q0 4 -1 4q-1 0 -2.5 -0.5q-1.5 -0.5 -4.5 -4.5l-163 -193q-2 -2 -5 -6.5q-3 -4.5 -3 -6.5q0 -2 3 -5q3 -3 9 -3h167zM107 629q0 8 -2 18q-2 10 -15 10h-40v44h59q20 0 33 -9q13 -9 13 -38v-354l-48 0z" />
<glyph unicode="&#189;" horiz-adv-x="708" d="M411 700h47l-318 -700h-47zM107 629q0 8 -2 18q-2 10 -15 10h-40v44h59q20 0 33 -9q13 -9 13 -38v-354h-48zM386 -1q-21 0 -25.5 10q-4.5 10 -4.5 17q0 16 6 22.5q6 6.5 11 11.5l201 157q23 17 27 36.5q4 19.5 4 38.5q0 34 -12 49q-12 15 -45 15h-168v44h184q51 0 72.5 -25.5q21.5 -25.5 21.5 -81.5q0 -38 -9.5 -61.5q-9.5 -23.5 -36.5 -44.5l-168 -132q-2 -2 -5 -3.5q-3 -1.5 -3 -4.5q0 -4 7 -4h198l0 -44z" />
<glyph unicode="&#190;" horiz-adv-x="758" d="M531 700h47l-318 -700h-47zM50 344h146q15 0 28 1q13 1 22.5 7q9.5 6 15 19q5.5 13 5.5 37q0 36 -14 53.5q-14 17.5 -49 17.5h-144v46h141q16 0 28 3q12 3 20 10.5q8 7.5 11.5 21q3.5 13.5 3.5 35.5q0 30 -10 46q-10 16 -39 16h-156v44h158q54 0 74.5 -26q20.5 -26 20.5 -80q0 -40 -9.5 -62q-9.5 -22 -44.5 -30l0 -4q32 -4 44 -27.5q12 -23.5 12 -63.5q0 -24 -4 -44q-4 -20 -14.5 -34.5q-10.5 -14.5 -28.5 -22q-18 -7.5 -47 -7.5h-170zM619 71h-197q-17 0 -30.5 9.5q-13.5 9.5 -13.5 30.5q0 10 4 17q4 7 11 15l204 241q5 7 14.5 14q9.5 7 23.5 7q13 0 22 -5.5q9 -5.5 9 -21.5v-263h42v-44h-42v-72h-47zM619 330q0 4 -1 4q-1 0 -2.5 -0.5q-1.5 -0.5 -4.5 -4.5l-163 -193q-2 -2 -5 -6.5q-3 -4.5 -3 -6.5q0 -2 3 -5q3 -3 9 -3l167 0z" />
<glyph unicode="&#191;" horiz-adv-x="437" d="M330 623h-54v77h54zM330 542v-76q0 -25 -5 -42.5q-5 -17.5 -14.5 -31q-9.5 -13.5 -24 -24.5q-14.5 -11 -33.5 -22l-92 -54q-42 -25 -53.5 -52.5q-11.5 -27.5 -11.5 -63.5q0 -31 4.5 -55q4.5 -24 16.5 -40q12 -16 32.5 -24.5q20.5 -8.5 53.5 -8.5h224v-48h-231q-78 0 -117 40q-39 40 -39 129q0 37 7.5 63.5q7.5 26.5 20 45q12.5 18.5 29.5 31.5q17 13 36 24l98 58q17 10 31 26q14 16 14 39l0 86z" />
<glyph unicode="&#192;" horiz-adv-x="672" d="M258 634q12 29 29 51.5q17 22.5 49 22.5q31 0 48.5 -23q17.5 -23 29.5 -51l268 -634h-58l-85 204h-406l-85 -204h-58zM154 252h364l-153 366q-5 11 -11.5 25.5q-6.5 14.5 -17.5 14.5q-11 0 -17.5 -14.5q-6.5 -14.5 -11.5 -25.5zM403 779l-31 -39l-123 100l31 39z" />
<glyph unicode="&#193;" horiz-adv-x="672" d="M258 634q12 29 29 51.5q17 22.5 49 22.5q31 0 48.5 -23q17.5 -23 29.5 -51l268 -634h-58l-85 204h-406l-85 -204h-58zM154 252h364l-153 366q-5 11 -11.5 25.5q-6.5 14.5 -17.5 14.5q-11 0 -17.5 -14.5q-6.5 -14.5 -11.5 -25.5zM413 840l-123 -100l-31 39l123 100z" />
<glyph unicode="&#194;" horiz-adv-x="672" d="M258 634q12 29 29 51.5q17 22.5 49 22.5q31 0 48.5 -23q17.5 -23 29.5 -51l268 -634h-58l-85 204h-406l-85 -204h-58zM154 252h364l-153 366q-5 11 -11.5 25.5q-6.5 14.5 -17.5 14.5q-11 0 -17.5 -14.5q-6.5 -14.5 -11.5 -25.5zM357 829q-4 3 -9 6q-5 3 -12 3q-7 0 -12 -3q-5 -3 -9 -6l-104 -89l-30 35l112 98q8 7 18.5 12.5q10.5 5.5 24.5 5.5q14 0 24.5 -5.5q10.5 -5.5 18.5 -12.5l112 -98l-30 -35z" />
<glyph unicode="&#195;" horiz-adv-x="672" d="M258 634q12 29 29 51.5q17 22.5 49 22.5q31 0 48.5 -23q17.5 -23 29.5 -51l268 -634h-58l-85 204h-406l-85 -204h-58zM154 252h364l-153 366q-5 11 -11.5 25.5q-6.5 14.5 -17.5 14.5q-11 0 -17.5 -14.5q-6.5 -14.5 -11.5 -25.5zM156 760q9 15 20 29q11 14 24.5 25.5q13.5 11.5 30 18.5q16.5 7 36.5 7q16 0 29 -3.5q13 -3.5 25 -12.5l39 -29q11 -8 22.5 -14q11.5 -6 27.5 -6q25 0 40.5 20q15.5 20 28.5 42l37 -21q-16 -33 -43.5 -59.5q-27.5 -26.5 -68.5 -26.5q-14 0 -28.5 4q-14.5 4 -25.5 12l-33 25q-11 8 -25 16q-14 8 -28 8q-26 0 -42.5 -19.5q-16.5 -19.5 -29.5 -39.5z" />
<glyph unicode="&#196;" horiz-adv-x="672" d="M258 634q12 29 29 51.5q17 22.5 49 22.5q31 0 48.5 -23q17.5 -23 29.5 -51l268 -634h-58l-85 204h-406l-85 -204h-58zM154 252h364l-153 366q-5 11 -11.5 25.5q-6.5 14.5 -17.5 14.5q-11 0 -17.5 -14.5q-6.5 -14.5 -11.5 -25.5zM378 750v79h56v-79zM238 750v79h56l0 -79z" />
<glyph unicode="&#197;" horiz-adv-x="672" d="M258 634q12 29 29 51.5q17 22.5 49 22.5q31 0 48.5 -23q17.5 -23 29.5 -51l268 -634h-58l-85 204h-406l-85 -204h-58zM154 252h364l-153 366q-5 11 -11.5 25.5q-6.5 14.5 -17.5 14.5q-11 0 -17.5 -14.5q-6.5 -14.5 -11.5 -25.5zM336 952q52 0 82 -27q30 -27 30 -84q0 -52 -27.5 -81.5q-27.5 -29.5 -84.5 -29.5q-52 0 -82 27q-30 27 -30 84q0 52 27.5 81.5q27.5 29.5 84.5 29.5zt0 0zM264 841q0 -36 18 -55.5q18 -19.5 54 -19.5q33 0 52.5 17.5q19.5 17.5 19.5 57.5q0 36 -18 55.5q-18 19.5 -54 19.5q-33 0 -52.5 -17.5t-19.5 -57.5z" />
<glyph unicode="&#198;" horiz-adv-x="973" d="M528 0q-47 0 -71 20.5q-24 20.5 -24 73.5v110h-285l-118 -204h-60l390 658q14 23 30.5 32.5q16.5 9.5 42.5 9.5h496v-48h-399q-29 0 -36 -11q-7 -11 -7 -34v-225h432v-48h-432v-240q0 -23 7 -34.5q7 -11.5 36 -11.5h403v-48zM177 252h256v400q-13 0 -21.5 -7.5q-8.5 -7.5 -19.5 -26.5z" />
<glyph unicode="&#199;" horiz-adv-x="639" d="M304 -129h85q33 0 33 19q0 11 -11 13q-11 2 -16 2h-39q-20 0 -25 8q-5 8 -5 14q0 11 5 19l28 54h-22q-85 0 -140.5 28q-55.5 28 -88 76q-32.5 48 -45.5 111.5q-13 63.5 -13 134.5q0 71 12.5 134.5q12.5 63.5 46 111.5q33.5 48 91 76q57.5 28 147.5 28h261v-48h-261q-68 0 -113.5 -20.5q-45.5 -20.5 -73.5 -59.5q-28 -39 -40 -95q-12 -56 -12 -127q0 -71 11.5 -127q11.5 -56 38 -95q26.5 -39 70.5 -59.5q44 -20.5 110 -20.5h281v-48h-214l-20 -40q-1 -2 -2 -4.5q-1 -2.5 -1 -3.5q0 -5 3.5 -5.5q3.5 -0.5 5.5 -0.5h12q27 0 46.5 -10.5q19.5 -10.5 19.5 -44.5q0 -12 -2 -23q-2 -11 -9.5 -19.5q-7.5 -8.5 -21 -13.5q-13.5 -5 -37.5 -5l-95 0z" />
<glyph unicode="&#200;" horiz-adv-x="620" d="M165 0q-47 0 -71 20.5q-24 20.5 -24 73.5v513q0 53 24 73q24 20 71 20h411v-48h-409q-29 0 -36 -11q-7 -11 -7 -34v-225h442v-48h-442v-240q0 -23 7 -34.5q7 -11.5 36 -11.5h413v-48zM387 779l-31 -39l-123 100l31 39z" />
<glyph unicode="&#201;" horiz-adv-x="620" d="M165 0q-47 0 -71 20.5q-24 20.5 -24 73.5v513q0 53 24 73q24 20 71 20h411v-48h-409q-29 0 -36 -11q-7 -11 -7 -34v-225h442v-48h-442v-240q0 -23 7 -34.5q7 -11.5 36 -11.5h413v-48zM417 840l-123 -100l-31 39l123 100z" />
<glyph unicode="&#202;" horiz-adv-x="620" d="M165 0q-47 0 -71 20.5q-24 20.5 -24 73.5v513q0 53 24 73q24 20 71 20h411v-48h-409q-29 0 -36 -11q-7 -11 -7 -34v-225h442v-48h-442v-240q0 -23 7 -34.5q7 -11.5 36 -11.5h413v-48zM351 829q-4 3 -9 6q-5 3 -12 3q-7 0 -12 -3q-5 -3 -9 -6l-104 -89l-30 35l112 98q8 7 18.5 12.5q10.5 5.5 24.5 5.5q14 0 24.5 -5.5q10.5 -5.5 18.5 -12.5l112 -98l-30 -35z" />
<glyph unicode="&#203;" horiz-adv-x="620" d="M165 0q-47 0 -71 20.5q-24 20.5 -24 73.5v513q0 53 24 73q24 20 71 20h411v-48h-409q-29 0 -36 -11q-7 -11 -7 -34v-225h442v-48h-442v-240q0 -23 7 -34.5q7 -11.5 36 -11.5h413v-48zM388 750v79h56v-79zM248 750v79h56l0 -79z" />
<glyph unicode="&#204;" horiz-adv-x="194" d="M70 0v700h54v-700zM174 779l-31 -39l-123 100l31 39z" />
<glyph unicode="&#205;" horiz-adv-x="194" d="M70 0v700h54v-700zM174 840l-123 -100l-31 39l123 100z" />
<glyph unicode="&#206;" horiz-adv-x="194" d="M70 0v700h54v-700zM118 829q-4 3 -9 6q-5 3 -12 3q-7 0 -12 -3q-5 -3 -9 -6l-104 -89l-30 35l112 98q8 7 18.5 12.5q10.5 5.5 24.5 5.5q14 0 24.5 -5.5q10.5 -5.5 18.5 -12.5l112 -98l-30 -35z" />
<glyph unicode="&#207;" horiz-adv-x="194" d="M70 0v700h54v-700zM123 754v79h56v-79zM15 754v79h56l0 -79z" />
<glyph unicode="&#208;" horiz-adv-x="740" d="M177 0q-47 0 -71 20.5q-24 20.5 -24 73.5v232h-82v48h82v233q0 53 24 73q24 20 71 20h239q79 0 131.5 -27.5q52.5 -27.5 84 -74.5q31.5 -47 45 -110q13.5 -63 13.5 -134q0 -71 -11.5 -135.5q-11.5 -64.5 -41.5 -113q-30 -48.5 -81 -77q-51 -28.5 -130 -28.5zM179 652q-26 0 -34.5 -12q-8.5 -12 -8.5 -32v-234h160v-48h-160v-232q0 -26 7.5 -36q7.5 -10 35.5 -10h237q71 0 114 25.5q43 25.5 65.5 67.5q22.5 42 29.5 97.5q7 55.5 7 115.5q0 60 -8.5 114q-8.5 54 -33 95q-24.5 41 -69 65q-44.5 24 -115.5 24z" />
<glyph unicode="&#209;" horiz-adv-x="732" d="M662 70q0 -35 -16 -56.5q-16 -21.5 -48 -21.5q-24 0 -38.5 12q-14.5 12 -31.5 39l-366 591q-3 5 -9 11q-6 6 -14 6q-2 0 -8.5 -3.5q-6.5 -3.5 -6.5 -16.5v-631h-54v637q0 26 8.5 40.5q8.5 14.5 20 21q11.5 6.5 22 8q10.5 1.5 15.5 1.5q29 0 43.5 -14.5q14.5 -14.5 25.5 -32.5l368 -594q4 -7 9 -12.5q5 -5.5 13 -5.5q10 0 11.5 6.5q1.5 6.5 1.5 11.5v633h54zM218 760q9 15 20 29q11 14 24.5 25.5q13.5 11.5 30 18.5q16.5 7 36.5 7q16 0 29 -3.5q13 -3.5 25 -12.5l39 -29q11 -8 22.5 -14q11.5 -6 27.5 -6q25 0 40.5 20q15.5 20 28.5 42l37 -21q-16 -33 -43.5 -59.5q-27.5 -26.5 -68.5 -26.5q-14 0 -28.5 4q-14.5 4 -25.5 12l-33 25q-11 8 -25 16q-14 8 -28 8q-26 0 -42.5 -19.5q-16.5 -19.5 -29.5 -39.5z" />
<glyph unicode="&#210;" horiz-adv-x="778" d="M390 708q95 0 160 -20.5q65 -20.5 104.5 -64q39.5 -43.5 56.5 -111q17 -67.5 17 -162.5q0 -95 -17 -162.5q-17 -67.5 -56.5 -111q-39.5 -43.5 -104.5 -64q-65 -20.5 -160 -20.5q-95 0 -160 20.5q-65 20.5 -105 64q-40 43.5 -57.5 111q-17.5 67.5 -17.5 162.5q0 95 17.5 162.5q17.5 67.5 57.5 111q40 43.5 105 64q65 20.5 160 20.5zt0 0zM108 350q0 -84 12 -142.5q12 -58.5 43.5 -96q31.5 -37.5 86 -54.5q54.5 -17 139.5 -17q85 0 139.5 17q54.5 17 86 54.5q31.5 37.5 43.5 96q12 58.5 12 142.5q0 84 -12 142.5q-12 58.5 -43.5 96q-31.5 37.5 -86 54.5q-54.5 17 -139.5 17q-85 0 -139.5 -17q-54.5 -17 -86 -54.5q-31.5 -37.5 -43.5 -96q-12 -58.5 -12 -142.5zt0 0zM456 779l-31 -39l-123 100l31 39z" />
<glyph unicode="&#211;" horiz-adv-x="778" d="M390 708q95 0 160 -20.5q65 -20.5 104.5 -64q39.5 -43.5 56.5 -111q17 -67.5 17 -162.5q0 -95 -17 -162.5q-17 -67.5 -56.5 -111q-39.5 -43.5 -104.5 -64q-65 -20.5 -160 -20.5q-95 0 -160 20.5q-65 20.5 -105 64q-40 43.5 -57.5 111q-17.5 67.5 -17.5 162.5q0 95 17.5 162.5q17.5 67.5 57.5 111q40 43.5 105 64q65 20.5 160 20.5zt0 0zM108 350q0 -84 12 -142.5q12 -58.5 43.5 -96q31.5 -37.5 86 -54.5q54.5 -17 139.5 -17q85 0 139.5 17q54.5 17 86 54.5q31.5 37.5 43.5 96q12 58.5 12 142.5q0 84 -12 142.5q-12 58.5 -43.5 96q-31.5 37.5 -86 54.5q-54.5 17 -139.5 17q-85 0 -139.5 -17q-54.5 -17 -86 -54.5q-31.5 -37.5 -43.5 -96q-12 -58.5 -12 -142.5zt0 0zM466 840l-123 -100l-31 39l123 100z" />
<glyph unicode="&#212;" horiz-adv-x="778" d="M390 708q95 0 160 -20.5q65 -20.5 104.5 -64q39.5 -43.5 56.5 -111q17 -67.5 17 -162.5q0 -95 -17 -162.5q-17 -67.5 -56.5 -111q-39.5 -43.5 -104.5 -64q-65 -20.5 -160 -20.5q-95 0 -160 20.5q-65 20.5 -105 64q-40 43.5 -57.5 111q-17.5 67.5 -17.5 162.5q0 95 17.5 162.5q17.5 67.5 57.5 111q40 43.5 105 64q65 20.5 160 20.5zt0 0zM108 350q0 -84 12 -142.5q12 -58.5 43.5 -96q31.5 -37.5 86 -54.5q54.5 -17 139.5 -17q85 0 139.5 17q54.5 17 86 54.5q31.5 37.5 43.5 96q12 58.5 12 142.5q0 84 -12 142.5q-12 58.5 -43.5 96q-31.5 37.5 -86 54.5q-54.5 17 -139.5 17q-85 0 -139.5 -17q-54.5 -17 -86 -54.5q-31.5 -37.5 -43.5 -96q-12 -58.5 -12 -142.5zt0 0zM410 829q-4 3 -9 6q-5 3 -12 3q-7 0 -12 -3q-5 -3 -9 -6l-104 -89l-30 35l112 98q8 7 18.5 12.5q10.5 5.5 24.5 5.5q14 0 24.5 -5.5q10.5 -5.5 18.5 -12.5l112 -98l-30 -35z" />
<glyph unicode="&#213;" horiz-adv-x="778" d="M390 708q95 0 160 -20.5q65 -20.5 104.5 -64q39.5 -43.5 56.5 -111q17 -67.5 17 -162.5q0 -95 -17 -162.5q-17 -67.5 -56.5 -111q-39.5 -43.5 -104.5 -64q-65 -20.5 -160 -20.5q-95 0 -160 20.5q-65 20.5 -105 64q-40 43.5 -57.5 111q-17.5 67.5 -17.5 162.5q0 95 17.5 162.5q17.5 67.5 57.5 111q40 43.5 105 64q65 20.5 160 20.5zt0 0zM108 350q0 -84 12 -142.5q12 -58.5 43.5 -96q31.5 -37.5 86 -54.5q54.5 -17 139.5 -17q85 0 139.5 17q54.5 17 86 54.5q31.5 37.5 43.5 96q12 58.5 12 142.5q0 84 -12 142.5q-12 58.5 -43.5 96q-31.5 37.5 -86 54.5q-54.5 17 -139.5 17q-85 0 -139.5 -17q-54.5 -17 -86 -54.5q-31.5 -37.5 -43.5 -96q-12 -58.5 -12 -142.5zt0 0zM225 760q9 15 20 29q11 14 24.5 25.5q13.5 11.5 30 18.5q16.5 7 36.5 7q16 0 29 -3.5q13 -3.5 25 -12.5l39 -29q11 -8 22.5 -14q11.5 -6 27.5 -6q25 0 40.5 20q15.5 20 28.5 42l37 -21q-16 -33 -43.5 -59.5q-27.5 -26.5 -68.5 -26.5q-14 0 -28.5 4q-14.5 4 -25.5 12l-33 25q-11 8 -25 16q-14 8 -28 8q-26 0 -42.5 -19.5q-16.5 -19.5 -29.5 -39.5z" />
<glyph unicode="&#214;" horiz-adv-x="778" d="M390 708q95 0 160 -20.5q65 -20.5 104.5 -64q39.5 -43.5 56.5 -111q17 -67.5 17 -162.5q0 -95 -17 -162.5q-17 -67.5 -56.5 -111q-39.5 -43.5 -104.5 -64q-65 -20.5 -160 -20.5q-95 0 -160 20.5q-65 20.5 -105 64q-40 43.5 -57.5 111q-17.5 67.5 -17.5 162.5q0 95 17.5 162.5q17.5 67.5 57.5 111q40 43.5 105 64q65 20.5 160 20.5zt0 0zM108 350q0 -84 12 -142.5q12 -58.5 43.5 -96q31.5 -37.5 86 -54.5q54.5 -17 139.5 -17q85 0 139.5 17q54.5 17 86 54.5q31.5 37.5 43.5 96q12 58.5 12 142.5q0 84 -12 142.5q-12 58.5 -43.5 96q-31.5 37.5 -86 54.5q-54.5 17 -139.5 17q-85 0 -139.5 -17q-54.5 -17 -86 -54.5q-31.5 -37.5 -43.5 -96q-12 -58.5 -12 -142.5zt0 0zM431 750v79h56v-79zM291 750v79h56l0 -79z" />
<glyph unicode="&#215;" horiz-adv-x="564" d="M428 128l-146 147l-146 -147l-36 36l147 146l-147 146l36 36l146 -147l146 147l36 -36l-147 -146l147 -146z" />
<glyph unicode="&#216;" horiz-adv-x="778" d="M390 708q82 0 141 -15q59 -15 99 -47l63 70l32 -27l-65 -73q36 -44 52 -109.5q16 -65.5 16 -156.5q0 -95 -17 -162.5q-17 -67.5 -56.5 -111q-39.5 -43.5 -104.5 -64q-65 -20.5 -160 -20.5q-83 0 -142.5 15q-59.5 15 -99.5 47l-61 -67l-31 29l62 67q-36 44 -52 109.5q-16 65.5 -16 157.5q0 95 17.5 162.5q17.5 67.5 57.5 111q40 43.5 105 64q65 20.5 160 20.5zt0 0zM108 350q0 -78 10 -133.5q10 -55.5 36 -93.5l441 484q-63 53 -206 53q-85 0 -139.5 -17q-54.5 -17 -86 -54.5q-31.5 -37.5 -43.5 -96q-12 -58.5 -12 -142.5zt0 0zM670 350q0 77 -10 132.5q-10 55.5 -36 93.5l-441 -484q32 -27 82 -39.5q50 -12.5 124 -12.5q85 0 139.5 17q54.5 17 86 54.5q31.5 37.5 43.5 96t12 142.5z" />
<glyph unicode="&#217;" horiz-adv-x="702" d="M351 40q64 0 107.5 9.5q43.5 9.5 70 32.5q26.5 23 38 61q11.5 38 11.5 94v463h54v-482q0 -64 -20 -107q-20 -43 -57 -69.5q-37 -26.5 -88.5 -38q-51.5 -11.5 -115.5 -11.5q-64 0 -116 11.5q-52 11.5 -88.5 38q-36.5 26.5 -56.5 69.5q-20 43 -20 107v482h54v-463q0 -56 11.5 -94q11.5 -38 38 -61q26.5 -23 70 -32.5q43.5 -9.5 107.5 -9.5zt0 0zM418 779l-31 -39l-123 100l31 39z" />
<glyph unicode="&#218;" horiz-adv-x="702" d="M351 40q64 0 107.5 9.5q43.5 9.5 70 32.5q26.5 23 38 61q11.5 38 11.5 94v463h54v-482q0 -64 -20 -107q-20 -43 -57 -69.5q-37 -26.5 -88.5 -38q-51.5 -11.5 -115.5 -11.5q-64 0 -116 11.5q-52 11.5 -88.5 38q-36.5 26.5 -56.5 69.5q-20 43 -20 107v482h54v-463q0 -56 11.5 -94q11.5 -38 38 -61q26.5 -23 70 -32.5q43.5 -9.5 107.5 -9.5zt0 0zM418 840l-123 -100l-31 39l123 100z" />
<glyph unicode="&#219;" horiz-adv-x="702" d="M351 40q64 0 107.5 9.5q43.5 9.5 70 32.5q26.5 23 38 61q11.5 38 11.5 94v463h54v-482q0 -64 -20 -107q-20 -43 -57 -69.5q-37 -26.5 -88.5 -38q-51.5 -11.5 -115.5 -11.5q-64 0 -116 11.5q-52 11.5 -88.5 38q-36.5 26.5 -56.5 69.5q-20 43 -20 107v482h54v-463q0 -56 11.5 -94q11.5 -38 38 -61q26.5 -23 70 -32.5q43.5 -9.5 107.5 -9.5zt0 0zM362 829q-4 3 -9 6q-5 3 -12 3q-7 0 -12 -3q-5 -3 -9 -6l-104 -89l-30 35l112 98q8 7 18.5 12.5q10.5 5.5 24.5 5.5q14 0 24.5 -5.5q10.5 -5.5 18.5 -12.5l112 -98l-30 -35z" />
<glyph unicode="&#220;" horiz-adv-x="702" d="M351 40q64 0 107.5 9.5q43.5 9.5 70 32.5q26.5 23 38 61q11.5 38 11.5 94v463h54v-482q0 -64 -20 -107q-20 -43 -57 -69.5q-37 -26.5 -88.5 -38q-51.5 -11.5 -115.5 -11.5q-64 0 -116 11.5q-52 11.5 -88.5 38q-36.5 26.5 -56.5 69.5q-20 43 -20 107v482h54v-463q0 -56 11.5 -94q11.5 -38 38 -61q26.5 -23 70 -32.5q43.5 -9.5 107.5 -9.5zt0 0zM383 750v79h56v-79zM243 750v79h56l0 -79z" />
<glyph unicode="&#221;" horiz-adv-x="614" d="M564 700h60l-290 -470v-230h-54v230l-290 470h60l257 -421zM384 840l-123 -100l-31 39l123 100z" />
<glyph unicode="&#222;" horiz-adv-x="671" d="M70 700h54v-127h330q56 0 91 -12.5q35 -12.5 54.5 -38.5q19.5 -26 26 -65q6.5 -39 6.5 -91q0 -53 -6.5 -92q-6.5 -39 -26 -64.5q-19.5 -25.5 -54.5 -38.5q-35 -13 -91 -13h-330v-158h-54zM454 206q37 0 60.5 9.5q23.5 9.5 37 29q13.5 19.5 18 50q4.5 30.5 4.5 71.5q0 41 -4.5 71q-4.5 30 -18 49.5q-13.5 19.5 -37 29q-23.5 9.5 -60.5 9.5h-330l0 -319z" />
<glyph unicode="&#223;" horiz-adv-x="539" d="M54 449q0 56 10.5 103.5q10.5 47.5 37.5 81.5q27 34 73.5 53q46.5 19 117.5 19q91 0 132 -38.5q41 -38.5 41 -121.5q0 -53 -18 -91.5q-18 -38.5 -72 -49.5l0 -4q39 -4 63.5 -20q24.5 -16 39 -41q14.5 -25 19.5 -58q5 -33 5 -70q0 -53 -8 -92.5q-8 -39.5 -29 -66q-21 -26.5 -57.5 -40q-36.5 -13.5 -92.5 -13.5h-80v47h80q41 0 66.5 10.5q25.5 10.5 40 31q14.5 20.5 19.5 51.5q5 31 5 72q0 34 -5 63.5q-5 29.5 -19.5 51.5q-14.5 22 -40 35q-25.5 13 -66.5 13h-75v47h65q53 0 78.5 35.5q25.5 35.5 25.5 88.5q0 59 -25 86q-25 27 -92 27q-98 0 -142.5 -46q-44.5 -46 -44.5 -151v-462l-52 0z" />
<glyph unicode="&#224;" horiz-adv-x="514" d="M333 530q66 0 96.5 -35q30.5 -35 30.5 -98v-327q0 -35 -14.5 -52.5q-14.5 -17.5 -62.5 -17.5h-204q-79 0 -111 38.5q-32 38.5 -32 121.5q0 83 32.5 120q32.5 37 110.5 37h229v89q0 30 -16.5 53.5q-16.5 23.5 -58.5 23.5h-257v47zM165 270q-24 0 -38.5 -8q-14.5 -8 -23 -23q-8.5 -15 -11 -35q-2.5 -20 -2.5 -44q0 -24 2.5 -44.5q2.5 -20.5 11 -36q8.5 -15.5 23 -24q14.5 -8.5 38.5 -8.5h218q14 0 19.5 7.5q5.5 7.5 5.5 16.5v199zM305 599l-31 -39l-123 100l31 39z" />
<glyph unicode="&#225;" horiz-adv-x="514" d="M333 530q66 0 96.5 -35q30.5 -35 30.5 -98v-327q0 -35 -14.5 -52.5q-14.5 -17.5 -62.5 -17.5h-204q-79 0 -111 38.5q-32 38.5 -32 121.5q0 83 32.5 120q32.5 37 110.5 37h229v89q0 30 -16.5 53.5q-16.5 23.5 -58.5 23.5h-257v47zM165 270q-24 0 -38.5 -8q-14.5 -8 -23 -23q-8.5 -15 -11 -35q-2.5 -20 -2.5 -44q0 -24 2.5 -44.5q2.5 -20.5 11 -36q8.5 -15.5 23 -24q14.5 -8.5 38.5 -8.5h218q14 0 19.5 7.5q5.5 7.5 5.5 16.5v199zM365 660l-123 -100l-31 39l123 100z" />
<glyph unicode="&#226;" horiz-adv-x="514" d="M333 530q66 0 96.5 -35q30.5 -35 30.5 -98v-327q0 -35 -14.5 -52.5q-14.5 -17.5 -62.5 -17.5h-204q-79 0 -111 38.5q-32 38.5 -32 121.5q0 83 32.5 120q32.5 37 110.5 37h229v89q0 30 -16.5 53.5q-16.5 23.5 -58.5 23.5h-257v47zM165 270q-24 0 -38.5 -8q-14.5 -8 -23 -23q-8.5 -15 -11 -35q-2.5 -20 -2.5 -44q0 -24 2.5 -44.5q2.5 -20.5 11 -36q8.5 -15.5 23 -24q14.5 -8.5 38.5 -8.5h218q14 0 19.5 7.5q5.5 7.5 5.5 16.5v199zM279 639q-4 3 -9 6q-5 3 -12 3q-7 0 -12 -3q-5 -3 -9 -6l-104 -89l-30 35l112 98q10 9 21.5 13q11.5 4 21.5 4q10 0 21.5 -4q11.5 -4 21.5 -13l112 -98l-30 -35z" />
<glyph unicode="&#227;" horiz-adv-x="514" d="M333 530q66 0 96.5 -35q30.5 -35 30.5 -98v-327q0 -35 -14.5 -52.5q-14.5 -17.5 -62.5 -17.5h-204q-79 0 -111 38.5q-32 38.5 -32 121.5q0 83 32.5 120q32.5 37 110.5 37h229v89q0 30 -16.5 53.5q-16.5 23.5 -58.5 23.5h-257v47zM165 270q-24 0 -38.5 -8q-14.5 -8 -23 -23q-8.5 -15 -11 -35q-2.5 -20 -2.5 -44q0 -24 2.5 -44.5q2.5 -20.5 11 -36q8.5 -15.5 23 -24q14.5 -8.5 38.5 -8.5h218q14 0 19.5 7.5q5.5 7.5 5.5 16.5v199zM94 602q8 13 18 26.5q10 13.5 22.5 24q12.5 10.5 27.5 17q15 6.5 33 6.5q18 0 29.5 -4q11.5 -4 22.5 -11l35 -24q8 -6 19 -11q11 -5 24 -5q24 0 37.5 19q13.5 19 24.5 37l35 -19q-15 -30 -40 -55q-25 -25 -63 -25q-28 0 -50 15l-30 20q-10 7 -22 13.5q-12 6.5 -26 6.5q-21 0 -37 -18q-16 -18 -26 -35z" />
<glyph unicode="&#228;" horiz-adv-x="514" d="M333 530q66 0 96.5 -35q30.5 -35 30.5 -98v-327q0 -35 -14.5 -52.5q-14.5 -17.5 -62.5 -17.5h-204q-79 0 -111 38.5q-32 38.5 -32 121.5q0 83 32.5 120q32.5 37 110.5 37h229v89q0 30 -16.5 53.5q-16.5 23.5 -58.5 23.5h-257v47zM165 270q-24 0 -38.5 -8q-14.5 -8 -23 -23q-8.5 -15 -11 -35q-2.5 -20 -2.5 -44q0 -24 2.5 -44.5q2.5 -20.5 11 -36q8.5 -15.5 23 -24q14.5 -8.5 38.5 -8.5h218q14 0 19.5 7.5q5.5 7.5 5.5 16.5v199zM305 622v78h56v-78zM165 622v78h56l0 -78z" />
<glyph unicode="&#229;" horiz-adv-x="514" d="M333 530q66 0 96.5 -35q30.5 -35 30.5 -98v-327q0 -35 -14.5 -52.5q-14.5 -17.5 -62.5 -17.5h-204q-79 0 -111 38.5q-32 38.5 -32 121.5q0 83 32.5 120q32.5 37 110.5 37h229v89q0 30 -16.5 53.5q-16.5 23.5 -58.5 23.5h-257v47zM165 270q-24 0 -38.5 -8q-14.5 -8 -23 -23q-8.5 -15 -11 -35q-2.5 -20 -2.5 -44q0 -24 2.5 -44.5q2.5 -20.5 11 -36q8.5 -15.5 23 -24q14.5 -8.5 38.5 -8.5h218q14 0 19.5 7.5q5.5 7.5 5.5 16.5v199zM258 782q52 0 82 -27q30 -27 30 -84q0 -52 -27.5 -81.5q-27.5 -29.5 -84.5 -29.5q-52 0 -82 27q-30 27 -30 84q0 52 27.5 81.5q27.5 29.5 84.5 29.5zt0 0zM186 671q0 -36 18 -55.5q18 -19.5 54 -19.5q33 0 52.5 17.5q19.5 17.5 19.5 57.5q0 36 -18 55.5q-18 19.5 -54 19.5q-33 0 -52.5 -17.5t-19.5 -57.5z" />
<glyph unicode="&#230;" horiz-adv-x="899" d="M591 0q-48 0 -80.5 16.5q-32.5 16.5 -52.5 46.5q-1 -16 -4.5 -27.5q-3.5 -11.5 -12 -19.5q-8.5 -8 -23 -12q-14.5 -4 -37.5 -4h-202q-72 0 -107.5 36q-35.5 36 -35.5 119q0 83 36 117.5q36 34.5 107 34.5h229v99q0 30 -16.5 53.5q-16.5 23.5 -58.5 23.5h-257v47h257q51 0 79 -21q28 -21 39 -59q26 42 69.5 64q43.5 22 114.5 22q49 0 91 -10.5q42 -10.5 72.5 -34q30.5 -23.5 47.5 -60.5q17 -37 17 -89q0 -46 -15.5 -64q-15.5 -18 -60.5 -18h-325q0 -35 4.5 -72.5q4.5 -37.5 18 -69q13.5 -31.5 39 -51.5q25.5 -20 67.5 -20h260v-47zM165 260q-41 0 -58 -28.5q-17 -28.5 -17 -76.5q0 -48 17 -78q17 -30 58 -30h218q14 0 19.5 7.5q5.5 7.5 5.5 16.5v189zM787 307q13 0 17.5 5.5q4.5 5.5 4.5 13.5v7q0 45 -11.5 75q-11.5 30 -34 48q-22.5 18 -54.5 25.5q-32 7.5 -73 7.5q-38 0 -70 -8.5q-32 -8.5 -55 -29.5q-23 -21 -36 -56q-13 -35 -13 -88z" />
<glyph unicode="&#231;" horiz-adv-x="466" d="M206 -129h85q33 0 33 19q0 11 -11 13q-11 2 -16 2h-39q-20 0 -25 8q-5 8 -5 14q0 11 5 19l27 54q-68 0 -111 17.5q-43 17.5 -68.5 51q-25.5 33.5 -35 83q-9.5 49.5 -9.5 113.5q0 60 9.5 109q9.5 49 35 83.5q25.5 34.5 68.5 53.5q43 19 111 19h178v-47h-178q-53 0 -86 -14.5q-33 -14.5 -51.5 -42q-18.5 -27.5 -25.5 -68.5q-7 -41 -7 -93q0 -56 7 -97q7 -41 25.5 -68q18.5 -27 51.5 -40q33 -13 86 -13h190v-47h-143l-20 -40q-1 -2 -2 -4.5q-1 -2.5 -1 -3.5q0 -5 3.5 -5.5q3.5 -0.5 5.5 -0.5h12q27 0 46.5 -10.5q19.5 -10.5 19.5 -44.5q0 -12 -2 -23q-2 -11 -9.5 -19.5q-7.5 -8.5 -21 -13.5q-13.5 -5 -37.5 -5l-95 0z" />
<glyph unicode="&#232;" horiz-adv-x="527" d="M219 0q-55 0 -90.5 19.5q-35.5 19.5 -56 54.5q-20.5 35 -28.5 82.5q-8 47.5 -8 104.5q0 67 10.5 118.5q10.5 51.5 36 86q25.5 34.5 69.5 52.5q44 18 111 18q49 0 91 -10.5q42 -10.5 72.5 -34.5q30.5 -24 47.5 -62.5q17 -38.5 17 -94.5q0 -46 -15.5 -66.5q-15.5 -20.5 -60.5 -20.5h-325q0 -35 4.5 -70.5q4.5 -35.5 18 -64.5q13.5 -29 39 -47q25.5 -18 67.5 -18h260v-47zM415 294q13 0 17.5 8q4.5 8 4.5 16v7q0 49 -11.5 80.5q-11.5 31.5 -34 50q-22.5 18.5 -54.5 26q-32 7.5 -73 7.5q-44 0 -77 -9q-33 -9 -54.5 -31.5q-21.5 -22.5 -32 -60q-10.5 -37.5 -10.5 -94.5zM340 599l-31 -39l-123 100l31 39z" />
<glyph unicode="&#233;" horiz-adv-x="527" d="M219 0q-55 0 -90.5 19.5q-35.5 19.5 -56 54.5q-20.5 35 -28.5 82.5q-8 47.5 -8 104.5q0 67 10.5 118.5q10.5 51.5 36 86q25.5 34.5 69.5 52.5q44 18 111 18q49 0 91 -10.5q42 -10.5 72.5 -34.5q30.5 -24 47.5 -62.5q17 -38.5 17 -94.5q0 -46 -15.5 -66.5q-15.5 -20.5 -60.5 -20.5h-325q0 -35 4.5 -70.5q4.5 -35.5 18 -64.5q13.5 -29 39 -47q25.5 -18 67.5 -18h260v-47zM415 294q13 0 17.5 8q4.5 8 4.5 16v7q0 49 -11.5 80.5q-11.5 31.5 -34 50q-22.5 18.5 -54.5 26q-32 7.5 -73 7.5q-44 0 -77 -9q-33 -9 -54.5 -31.5q-21.5 -22.5 -32 -60q-10.5 -37.5 -10.5 -94.5zM350 660l-123 -100l-31 39l123 100z" />
<glyph unicode="&#234;" horiz-adv-x="527" d="M219 0q-55 0 -90.5 19.5q-35.5 19.5 -56 54.5q-20.5 35 -28.5 82.5q-8 47.5 -8 104.5q0 67 10.5 118.5q10.5 51.5 36 86q25.5 34.5 69.5 52.5q44 18 111 18q49 0 91 -10.5q42 -10.5 72.5 -34.5q30.5 -24 47.5 -62.5q17 -38.5 17 -94.5q0 -46 -15.5 -66.5q-15.5 -20.5 -60.5 -20.5h-325q0 -35 4.5 -70.5q4.5 -35.5 18 -64.5q13.5 -29 39 -47q25.5 -18 67.5 -18h260v-47zM415 294q13 0 17.5 8q4.5 8 4.5 16v7q0 49 -11.5 80.5q-11.5 31.5 -34 50q-22.5 18.5 -54.5 26q-32 7.5 -73 7.5q-44 0 -77 -9q-33 -9 -54.5 -31.5q-21.5 -22.5 -32 -60q-10.5 -37.5 -10.5 -94.5zM284 639q-4 3 -9 6q-5 3 -12 3q-7 0 -12 -3q-5 -3 -9 -6l-104 -89l-30 35l112 98q10 9 21.5 13q11.5 4 21.5 4q10 0 21.5 -4q11.5 -4 21.5 -13l112 -98l-30 -35z" />
<glyph unicode="&#235;" horiz-adv-x="527" d="M219 0q-55 0 -90.5 19.5q-35.5 19.5 -56 54.5q-20.5 35 -28.5 82.5q-8 47.5 -8 104.5q0 67 10.5 118.5q10.5 51.5 36 86q25.5 34.5 69.5 52.5q44 18 111 18q49 0 91 -10.5q42 -10.5 72.5 -34.5q30.5 -24 47.5 -62.5q17 -38.5 17 -94.5q0 -46 -15.5 -66.5q-15.5 -20.5 -60.5 -20.5h-325q0 -35 4.5 -70.5q4.5 -35.5 18 -64.5q13.5 -29 39 -47q25.5 -18 67.5 -18h260v-47zM415 294q13 0 17.5 8q4.5 8 4.5 16v7q0 49 -11.5 80.5q-11.5 31.5 -34 50q-22.5 18.5 -54.5 26q-32 7.5 -73 7.5q-44 0 -77 -9q-33 -9 -54.5 -31.5q-21.5 -22.5 -32 -60q-10.5 -37.5 -10.5 -94.5zM304 622v78h56v-78zM164 622v78h56l0 -78z" />
<glyph unicode="&#236;" horiz-adv-x="152" d="M50 530h52v-530h-52zM153 599l-31 -39l-123 100l31 39z" />
<glyph unicode="&#237;" horiz-adv-x="152" d="M50 530h52v-530h-52zM153 660l-123 -100l-31 39l123 100z" />
<glyph unicode="&#238;" horiz-adv-x="152" d="M50 530h52v-530h-52zM97 639q-4 3 -9 6q-5 3 -12 3q-7 0 -12 -3q-5 -3 -9 -6l-104 -89l-30 35l112 98q10 9 21.5 13q11.5 4 21.5 4q10 0 21.5 -4q11.5 -4 21.5 -13l112 -98l-30 -35z" />
<glyph unicode="&#239;" horiz-adv-x="156" d="M50 530h52v-530h-52zM100 622v78h52v-78zM4 622v78h52l0 -78z" />
<glyph unicode="&#240;" horiz-adv-x="526" d="M260 0q-68 0 -111 16q-43 16 -68.5 49q-25.5 33 -35 82.5q-9.5 49.5 -9.5 117.5q0 64 9.5 113q9.5 49 35 83q25.5 34 68.5 51.5q43 17.5 111 17.5h160q0 23 -8 47.5q-8 24.5 -28 43.5l-93 -48l-21 38l72 37q-8 4 -27 9.5q-19 5.5 -48 5.5l0 47q41 -2 69 -10q28 -8 59 -25l68 35l23 -37l-58 -29q14 -15 22.5 -31q8.5 -16 13.5 -34.5q5 -18.5 6.5 -40.5q1.5 -22 1.5 -49v-412q0 -17 -2.5 -31q-2.5 -14 -10 -24.5q-7.5 -10.5 -21.5 -16q-14 -5.5 -38 -5.5zM260 483q-53 0 -86 -13q-33 -13 -51.5 -40q-18.5 -27 -25.5 -68q-7 -41 -7 -97q0 -60 7 -101.5q7 -41.5 25.5 -67.5q18.5 -26 51.5 -37.5q33 -11.5 86 -11.5h120q27 0 33.5 10q6.5 10 6.5 35l0 391z" />
<glyph unicode="&#241;" horiz-adv-x="528" d="M54 446q0 38 15 61q15 23 57 23h195q83 0 118 -42.5q35 -42.5 35 -120.5v-367h-52v367q0 24 -4.5 45q-4.5 21 -16 37q-11.5 16 -31 25q-19.5 9 -49.5 9h-183q-15 0 -23.5 -6q-8.5 -6 -8.5 -32v-445h-52zM100 602q8 13 18 26.5q10 13.5 22.5 24q12.5 10.5 27.5 17q15 6.5 33 6.5q18 0 29.5 -4q11.5 -4 22.5 -11l35 -24q8 -6 19 -11q11 -5 24 -5q24 0 37.5 19q13.5 19 24.5 37l35 -19q-15 -30 -40 -55q-25 -25 -63 -25q-28 0 -50 15l-30 20q-10 7 -22 13.5q-12 6.5 -26 6.5q-21 0 -37 -18q-16 -18 -26 -35z" />
<glyph unicode="&#242;" horiz-adv-x="596" d="M298 536q71 0 121 -15.5q50 -15.5 81.5 -48.5q31.5 -33 45.5 -84q14 -51 14 -122q0 -71 -14 -122.5q-14 -51.5 -45.5 -84.5q-31.5 -33 -81.5 -49q-50 -16 -121 -16q-71 0 -121 16q-50 16 -81.5 49q-31.5 33 -45.5 84.5q-14 51.5 -14 122.5q0 71 14 122q14 51 45.5 84q31.5 33 81.5 48.5q50 15.5 121 15.5zt0 0zM90 266q0 -64 11.5 -107q11.5 -43 36.5 -69.5q25 -26.5 64.5 -37.5q39.5 -11 95.5 -11q56 0 95.5 11q39.5 11 64.5 37.5q25 26.5 36.5 69.5q11.5 43 11.5 107q0 64 -11.5 106.5q-11.5 42.5 -36.5 68.5q-25 26 -64.5 37q-39.5 11 -95.5 11q-56 0 -95.5 -11q-39.5 -11 -64.5 -37q-25 -26 -36.5 -68.5q-11.5 -42.5 -11.5 -106.5zt0 0zM375 599l-31 -39l-123 100l31 39z" />
<glyph unicode="&#243;" horiz-adv-x="596" d="M298 536q71 0 121 -15.5q50 -15.5 81.5 -48.5q31.5 -33 45.5 -84q14 -51 14 -122q0 -71 -14 -122.5q-14 -51.5 -45.5 -84.5q-31.5 -33 -81.5 -49q-50 -16 -121 -16q-71 0 -121 16q-50 16 -81.5 49q-31.5 33 -45.5 84.5q-14 51.5 -14 122.5q0 71 14 122q14 51 45.5 84q31.5 33 81.5 48.5q50 15.5 121 15.5zt0 0zM90 266q0 -64 11.5 -107q11.5 -43 36.5 -69.5q25 -26.5 64.5 -37.5q39.5 -11 95.5 -11q56 0 95.5 11q39.5 11 64.5 37.5q25 26.5 36.5 69.5q11.5 43 11.5 107q0 64 -11.5 106.5q-11.5 42.5 -36.5 68.5q-25 26 -64.5 37q-39.5 11 -95.5 11q-56 0 -95.5 -11q-39.5 -11 -64.5 -37q-25 -26 -36.5 -68.5q-11.5 -42.5 -11.5 -106.5zt0 0zM375 660l-123 -100l-31 39l123 100z" />
<glyph unicode="&#244;" horiz-adv-x="596" d="M298 536q71 0 121 -15.5q50 -15.5 81.5 -48.5q31.5 -33 45.5 -84q14 -51 14 -122q0 -71 -14 -122.5q-14 -51.5 -45.5 -84.5q-31.5 -33 -81.5 -49q-50 -16 -121 -16q-71 0 -121 16q-50 16 -81.5 49q-31.5 33 -45.5 84.5q-14 51.5 -14 122.5q0 71 14 122q14 51 45.5 84q31.5 33 81.5 48.5q50 15.5 121 15.5zt0 0zM90 266q0 -64 11.5 -107q11.5 -43 36.5 -69.5q25 -26.5 64.5 -37.5q39.5 -11 95.5 -11q56 0 95.5 11q39.5 11 64.5 37.5q25 26.5 36.5 69.5q11.5 43 11.5 107q0 64 -11.5 106.5q-11.5 42.5 -36.5 68.5q-25 26 -64.5 37q-39.5 11 -95.5 11q-56 0 -95.5 -11q-39.5 -11 -64.5 -37q-25 -26 -36.5 -68.5q-11.5 -42.5 -11.5 -106.5zt0 0zM319 639q-4 3 -9 6q-5 3 -12 3q-7 0 -12 -3q-5 -3 -9 -6l-104 -89l-30 35l112 98q10 9 21.5 13q11.5 4 21.5 4q10 0 21.5 -4q11.5 -4 21.5 -13l112 -98l-30 -35z" />
<glyph unicode="&#245;" horiz-adv-x="596" d="M298 536q71 0 121 -15.5q50 -15.5 81.5 -48.5q31.5 -33 45.5 -84q14 -51 14 -122q0 -71 -14 -122.5q-14 -51.5 -45.5 -84.5q-31.5 -33 -81.5 -49q-50 -16 -121 -16q-71 0 -121 16q-50 16 -81.5 49q-31.5 33 -45.5 84.5q-14 51.5 -14 122.5q0 71 14 122q14 51 45.5 84q31.5 33 81.5 48.5q50 15.5 121 15.5zt0 0zM90 266q0 -64 11.5 -107q11.5 -43 36.5 -69.5q25 -26.5 64.5 -37.5q39.5 -11 95.5 -11q56 0 95.5 11q39.5 11 64.5 37.5q25 26.5 36.5 69.5q11.5 43 11.5 107q0 64 -11.5 106.5q-11.5 42.5 -36.5 68.5q-25 26 -64.5 37q-39.5 11 -95.5 11q-56 0 -95.5 -11q-39.5 -11 -64.5 -37q-25 -26 -36.5 -68.5q-11.5 -42.5 -11.5 -106.5zt0 0zM134 602q8 13 18 26.5q10 13.5 22.5 24q12.5 10.5 27.5 17q15 6.5 33 6.5q18 0 29.5 -4q11.5 -4 22.5 -11l35 -24q8 -6 19 -11q11 -5 24 -5q24 0 37.5 19q13.5 19 24.5 37l35 -19q-15 -30 -40 -55q-25 -25 -63 -25q-28 0 -50 15l-30 20q-10 7 -22 13.5q-12 6.5 -26 6.5q-21 0 -37 -18q-16 -18 -26 -35z" />
<glyph unicode="&#246;" horiz-adv-x="596" d="M298 536q71 0 121 -15.5q50 -15.5 81.5 -48.5q31.5 -33 45.5 -84q14 -51 14 -122q0 -71 -14 -122.5q-14 -51.5 -45.5 -84.5q-31.5 -33 -81.5 -49q-50 -16 -121 -16q-71 0 -121 16q-50 16 -81.5 49q-31.5 33 -45.5 84.5q-14 51.5 -14 122.5q0 71 14 122q14 51 45.5 84q31.5 33 81.5 48.5q50 15.5 121 15.5zt0 0zM90 266q0 -64 11.5 -107q11.5 -43 36.5 -69.5q25 -26.5 64.5 -37.5q39.5 -11 95.5 -11q56 0 95.5 11q39.5 11 64.5 37.5q25 26.5 36.5 69.5q11.5 43 11.5 107q0 64 -11.5 106.5q-11.5 42.5 -36.5 68.5q-25 26 -64.5 37q-39.5 11 -95.5 11q-56 0 -95.5 -11q-39.5 -11 -64.5 -37q-25 -26 -36.5 -68.5q-11.5 -42.5 -11.5 -106.5zt0 0zM339 622v78h56v-78zM199 622v78h56l0 -78z" />
<glyph unicode="&#247;" horiz-adv-x="566" d="M253 414v77h60v-77zM70 286v48h426v-48zM253 129v77h60l0 -77z" />
<glyph unicode="&#248;" horiz-adv-x="596" d="M298 536q121 0 182 -45l42 47l30 -27l-44 -48q27 -33 39.5 -81.5q12.5 -48.5 12.5 -115.5q0 -71 -14 -122.5q-14 -51.5 -45.5 -84.5q-31.5 -33 -81.5 -49q-50 -16 -121 -16q-120 0 -180 45l-45 -49l-30 27l45 49q-28 34 -40 83q-12 49 -12 117q0 71 14 122q14 51 45.5 84q31.5 33 81.5 48.5q50 15.5 121 15.5zt0 0zM90 266q0 -109 35 -160l320 347q-26 20 -61.5 28q-35.5 8 -85.5 8q-56 0 -95.5 -11q-39.5 -11 -64.5 -37q-25 -26 -36.5 -68.5q-11.5 -42.5 -11.5 -106.5zt0 0zM506 266q0 106 -34 158l-320 -348q25 -19 61 -27q36 -8 85 -8q56 0 95.5 11q39.5 11 64.5 37.5q25 26.5 36.5 69.5t11.5 107z" />
<glyph unicode="&#249;" horiz-adv-x="532" d="M478 84q0 -38 -15 -61q-15 -23 -57 -23h-199q-83 0 -118 42.5q-35 42.5 -35 120.5v367h52v-367q0 -24 4.5 -45q4.5 -21 16 -37q11.5 -16 31 -25q19.5 -9 49.5 -9h187q15 0 23.5 6q8.5 6 8.5 32v445h52zM333 599l-31 -39l-123 100l31 39z" />
<glyph unicode="&#250;" horiz-adv-x="532" d="M478 84q0 -38 -15 -61q-15 -23 -57 -23h-199q-83 0 -118 42.5q-35 42.5 -35 120.5v367h52v-367q0 -24 4.5 -45q4.5 -21 16 -37q11.5 -16 31 -25q19.5 -9 49.5 -9h187q15 0 23.5 6q8.5 6 8.5 32v445h52zM353 660l-123 -100l-31 39l123 100z" />
<glyph unicode="&#251;" horiz-adv-x="532" d="M478 84q0 -38 -15 -61q-15 -23 -57 -23h-199q-83 0 -118 42.5q-35 42.5 -35 120.5v367h52v-367q0 -24 4.5 -45q4.5 -21 16 -37q11.5 -16 31 -25q19.5 -9 49.5 -9h187q15 0 23.5 6q8.5 6 8.5 32v445h52zM287 639q-4 3 -9 6q-5 3 -12 3q-7 0 -12 -3q-5 -3 -9 -6l-104 -89l-30 35l112 98q10 9 21.5 13q11.5 4 21.5 4q10 0 21.5 -4q11.5 -4 21.5 -13l112 -98l-30 -35z" />
<glyph unicode="&#252;" horiz-adv-x="532" d="M478 84q0 -38 -15 -61q-15 -23 -57 -23h-199q-83 0 -118 42.5q-35 42.5 -35 120.5v367h52v-367q0 -24 4.5 -45q4.5 -21 16 -37q11.5 -16 31 -25q19.5 -9 49.5 -9h187q15 0 23.5 6q8.5 6 8.5 32v445h52zM319 622v78h56v-78zM179 622v78h56l0 -78z" />
<glyph unicode="&#253;" horiz-adv-x="504" d="M194 -171h-56l80 174l-224 527h56l196 -465l208 465h56zM329 660l-123 -100l-31 39l123 100z" />
<glyph unicode="&#254;" horiz-adv-x="533" d="M54 700h52v-170h188q64 0 103.5 -19q39.5 -19 61.5 -53.5q22 -34.5 30 -83.5q8 -49 8 -109q0 -60 -8 -109q-8 -49 -30 -83.5q-22 -34.5 -61.5 -53.5q-39.5 -19 -103.5 -19h-188v-170h-52zM293 47q49 0 78 18.5q29 18.5 44.5 49q15.5 30.5 20.5 70q5 39.5 5 80.5q0 41 -5 80.5q-5 39.5 -20.5 70q-15.5 30.5 -44.5 49q-29 18.5 -77 18.5h-188l0 -436z" />
<glyph unicode="&#255;" horiz-adv-x="504" d="M194 -171h-56l80 174l-224 527h56l196 -465l208 465h56zM291 622v78h56v-78zM151 622v78h56l0 -78z" />
<glyph unicode="&#256;" horiz-adv-x="672" d="M258 634q12 29 29 51.5q17 22.5 49 22.5q31 0 48.5 -23q17.5 -23 29.5 -51l268 -634h-58l-85 204h-406l-85 -204h-58zM154 252h364l-153 366q-5 11 -11.5 25.5q-6.5 14.5 -17.5 14.5q-11 0 -17.5 -14.5q-6.5 -14.5 -11.5 -25.5zM192 750v48h288l0 -48z" />
<glyph unicode="&#257;" horiz-adv-x="514" d="M333 530q66 0 96.5 -35q30.5 -35 30.5 -98v-327q0 -35 -14.5 -52.5q-14.5 -17.5 -62.5 -17.5h-204q-79 0 -111 38.5q-32 38.5 -32 121.5q0 83 32.5 120q32.5 37 110.5 37h229v89q0 30 -16.5 53.5q-16.5 23.5 -58.5 23.5h-257v47zM165 270q-24 0 -38.5 -8q-14.5 -8 -23 -23q-8.5 -15 -11 -35q-2.5 -20 -2.5 -44q0 -24 2.5 -44.5q2.5 -20.5 11 -36q8.5 -15.5 23 -24q14.5 -8.5 38.5 -8.5h218q14 0 19.5 7.5q5.5 7.5 5.5 16.5v199zM116 600v46h284l0 -46z" />
<glyph unicode="&#258;" horiz-adv-x="672" d="M258 634q12 29 29 51.5q17 22.5 49 22.5q31 0 48.5 -23q17.5 -23 29.5 -51l268 -634h-58l-85 204h-406l-85 -204h-58zM154 252h364l-153 366q-5 11 -11.5 25.5q-6.5 14.5 -17.5 14.5q-11 0 -17.5 -14.5q-6.5 -14.5 -11.5 -25.5zM249 836q8 -35 31 -46.5q23 -11.5 56 -11.5q33 0 56 11.5q23 11.5 31 46.5l58 0q-20 -106 -145 -106q-60 0 -96 24.5q-36 24.5 -49 81.5z" />
<glyph unicode="&#259;" horiz-adv-x="514" d="M333 530q66 0 96.5 -35q30.5 -35 30.5 -98v-327q0 -35 -14.5 -52.5q-14.5 -17.5 -62.5 -17.5h-204q-79 0 -111 38.5q-32 38.5 -32 121.5q0 83 32.5 120q32.5 37 110.5 37h229v89q0 30 -16.5 53.5q-16.5 23.5 -58.5 23.5h-257v47zM165 270q-24 0 -38.5 -8q-14.5 -8 -23 -23q-8.5 -15 -11 -35q-2.5 -20 -2.5 -44q0 -24 2.5 -44.5q2.5 -20.5 11 -36q8.5 -15.5 23 -24q14.5 -8.5 38.5 -8.5h218q14 0 19.5 7.5q5.5 7.5 5.5 16.5v199zM171 665q8 -35 31 -46.5q23 -11.5 56 -11.5q33 0 56 11.5q23 11.5 31 46.5l58 0q-20 -106 -145 -106q-60 0 -96 24.5q-36 24.5 -49 81.5z" />
<glyph unicode="&#260;" horiz-adv-x="672" d="M258 634q12 29 29 51.5q17 22.5 49 22.5q31 0 48.5 -23q17.5 -23 29.5 -51l268 -634l-53 -101q-7 -13 -7 -18q0 -8 8 -9.5q8 -1.5 13 -1.5h63v-40h-87q-47 0 -47 40q0 11 3 18.5q3 7.5 7 15.5l50 96h-8l-85 204h-406l-85 -204h-58zM154 252h364l-153 366q-5 11 -11.5 25.5q-6.5 14.5 -17.5 14.5q-11 0 -17.5 -14.5q-6.5 -14.5 -11.5 -25.5z" />
<glyph unicode="&#261;" horiz-adv-x="514" d="M327 -170q-17 0 -32 10q-15 10 -15 30q0 11 3 18.5q3 7.5 7 15.5l50 96h-161q-79 0 -111 38.5q-32 38.5 -32 121.5q0 83 32.5 120q32.5 37 110.5 37h229v89q0 30 -16.5 53.5q-16.5 23.5 -58.5 23.5h-257v47h257q66 0 96.5 -35q30.5 -35 30.5 -98v-327q0 -34 -13.5 -51.5q-13.5 -17.5 -56.5 -18.5l-53 -101q-7 -13 -7 -18q0 -8 8 -9.5q8 -1.5 13 -1.5h63v-40zM165 270q-24 0 -38.5 -8q-14.5 -8 -23 -23q-8.5 -15 -11 -35q-2.5 -20 -2.5 -44q0 -24 2.5 -44.5q2.5 -20.5 11 -36q8.5 -15.5 23 -24q14.5 -8.5 38.5 -8.5h218q14 0 19.5 7.5q5.5 7.5 5.5 16.5l0 199z" />
<glyph unicode="&#262;" horiz-adv-x="639" d="M337 0q-85 0 -140.5 28q-55.5 28 -88 76q-32.5 48 -45.5 111.5q-13 63.5 -13 134.5q0 71 12.5 134.5q12.5 63.5 46 111.5q33.5 48 91 76q57.5 28 147.5 28h261v-48h-261q-68 0 -113.5 -20.5q-45.5 -20.5 -73.5 -59.5q-28 -39 -40 -95q-12 -56 -12 -127q0 -71 11.5 -127q11.5 -56 38 -95q26.5 -39 70.5 -59.5q44 -20.5 110 -20.5h281v-48zM446 840l-123 -100l-31 39l123 100z" />
<glyph unicode="&#263;" horiz-adv-x="466" d="M260 0q-68 0 -111 17.5q-43 17.5 -68.5 51q-25.5 33.5 -35 83q-9.5 49.5 -9.5 113.5q0 60 9.5 109q9.5 49 35 83.5q25.5 34.5 68.5 53.5q43 19 111 19h178v-47h-178q-53 0 -86 -14.5q-33 -14.5 -51.5 -42q-18.5 -27.5 -25.5 -68.5q-7 -41 -7 -93q0 -56 7 -97q7 -41 25.5 -68q18.5 -27 51.5 -40q33 -13 86 -13h190v-47zM350 660l-123 -100l-31 39l123 100z" />
<glyph unicode="&#264;" horiz-adv-x="639" d="M337 0q-85 0 -140.5 28q-55.5 28 -88 76q-32.5 48 -45.5 111.5q-13 63.5 -13 134.5q0 71 12.5 134.5q12.5 63.5 46 111.5q33.5 48 91 76q57.5 28 147.5 28h261v-48h-261q-68 0 -113.5 -20.5q-45.5 -20.5 -73.5 -59.5q-28 -39 -40 -95q-12 -56 -12 -127q0 -71 11.5 -127q11.5 -56 38 -95q26.5 -39 70.5 -59.5q44 -20.5 110 -20.5h281v-48zM366 829q-4 3 -9 6q-5 3 -12 3q-7 0 -12 -3q-5 -3 -9 -6l-104 -89l-30 35l112 98q8 7 18.5 12.5q10.5 5.5 24.5 5.5q14 0 24.5 -5.5q10.5 -5.5 18.5 -12.5l112 -98l-30 -35z" />
<glyph unicode="&#265;" horiz-adv-x="466" d="M260 0q-68 0 -111 17.5q-43 17.5 -68.5 51q-25.5 33.5 -35 83q-9.5 49.5 -9.5 113.5q0 60 9.5 109q9.5 49 35 83.5q25.5 34.5 68.5 53.5q43 19 111 19h178v-47h-178q-53 0 -86 -14.5q-33 -14.5 -51.5 -42q-18.5 -27.5 -25.5 -68.5q-7 -41 -7 -93q0 -56 7 -97q7 -41 25.5 -68q18.5 -27 51.5 -40q33 -13 86 -13h190v-47zM264 639q-4 3 -9 6q-5 3 -12 3q-7 0 -12 -3q-5 -3 -9 -6l-104 -89l-30 35l112 98q10 9 21.5 13q11.5 4 21.5 4q10 0 21.5 -4q11.5 -4 21.5 -13l112 -98l-30 -35z" />
<glyph unicode="&#266;" horiz-adv-x="639" d="M337 0q-85 0 -140.5 28q-55.5 28 -88 76q-32.5 48 -45.5 111.5q-13 63.5 -13 134.5q0 71 12.5 134.5q12.5 63.5 46 111.5q33.5 48 91 76q57.5 28 147.5 28h261v-48h-261q-68 0 -113.5 -20.5q-45.5 -20.5 -73.5 -59.5q-28 -39 -40 -95q-12 -56 -12 -127q0 -71 11.5 -127q11.5 -56 38 -95q26.5 -39 70.5 -59.5q44 -20.5 110 -20.5h281v-48zM329 746v87h60l0 -87z" />
<glyph unicode="&#267;" horiz-adv-x="466" d="M260 0q-68 0 -111 17.5q-43 17.5 -68.5 51q-25.5 33.5 -35 83q-9.5 49.5 -9.5 113.5q0 60 9.5 109q9.5 49 35 83.5q25.5 34.5 68.5 53.5q43 19 111 19h178v-47h-178q-53 0 -86 -14.5q-33 -14.5 -51.5 -42q-18.5 -27.5 -25.5 -68.5q-7 -41 -7 -93q0 -56 7 -97q7 -41 25.5 -68q18.5 -27 51.5 -40q33 -13 86 -13h190v-47zM239 580v87h60l0 -87z" />
<glyph unicode="&#268;" horiz-adv-x="639" d="M337 0q-85 0 -140.5 28q-55.5 28 -88 76q-32.5 48 -45.5 111.5q-13 63.5 -13 134.5q0 71 12.5 134.5q12.5 63.5 46 111.5q33.5 48 91 76q57.5 28 147.5 28h261v-48h-261q-68 0 -113.5 -20.5q-45.5 -20.5 -73.5 -59.5q-28 -39 -40 -95q-12 -56 -12 -127q0 -71 11.5 -127q11.5 -56 38 -95q26.5 -39 70.5 -59.5q44 -20.5 110 -20.5h281v-48zM508 845l-112 -98q-10 -9 -21.5 -13q-11.5 -4 -21.5 -4q-10 0 -21.5 4q-11.5 4 -21.5 13l-112 98l30 35l104 -89q4 -3 9 -6q5 -3 12 -3q7 0 12 3q5 3 9 6l104 89z" />
<glyph unicode="&#269;" horiz-adv-x="466" d="M260 0q-68 0 -111 17.5q-43 17.5 -68.5 51q-25.5 33.5 -35 83q-9.5 49.5 -9.5 113.5q0 60 9.5 109q9.5 49 35 83.5q25.5 34.5 68.5 53.5q43 19 111 19h178v-47h-178q-53 0 -86 -14.5q-33 -14.5 -51.5 -42q-18.5 -27.5 -25.5 -68.5q-7 -41 -7 -93q0 -56 7 -97q7 -41 25.5 -68q18.5 -27 51.5 -40q33 -13 86 -13h190v-47zM418 675l-112 -98q-10 -9 -21.5 -13q-11.5 -4 -21.5 -4q-10 0 -21.5 4q-11.5 4 -21.5 13l-112 98l30 35l104 -89q4 -3 9 -6q5 -3 12 -3q7 0 12 3q5 3 9 6l104 89z" />
<glyph unicode="&#270;" horiz-adv-x="728" d="M165 0q-47 0 -71 20.5q-24 20.5 -24 73.5v513q0 53 24 73q24 20 71 20h239q79 0 131.5 -27.5q52.5 -27.5 84 -74.5q31.5 -47 45 -110q13.5 -63 13.5 -134q0 -71 -11.5 -135.5q-11.5 -64.5 -41.5 -113q-30 -48.5 -81 -77q-51 -28.5 -130 -28.5zM167 652q-26 0 -34.5 -12q-8.5 -12 -8.5 -32v-514q0 -26 7.5 -36q7.5 -10 35.5 -10h237q71 0 114 25.5q43 25.5 65.5 67.5q22.5 42 29.5 97.5q7 55.5 7 115.5q0 60 -8.5 114q-8.5 54 -33 95q-24.5 41 -69 65q-44.5 24 -115.5 24zM503 845l-112 -98q-10 -9 -21.5 -13q-11.5 -4 -21.5 -4q-10 0 -21.5 4q-11.5 4 -21.5 13l-112 98l30 35l104 -89q4 -3 9 -6q5 -3 12 -3q7 0 12 3q5 3 9 6l104 89z" />
<glyph unicode="&#271;" horiz-adv-x="589" d="M254 0q-68 0 -111 16q-43 16 -68.5 49q-25.5 33 -35 82.5q-9.5 49.5 -9.5 117.5q0 64 9.5 113q9.5 49 35 83q25.5 34 68.5 51.5q43 17.5 111 17.5h160v170h52v-623q0 -17 -2.5 -31q-2.5 -14 -10 -24.5q-7.5 -10.5 -21.5 -16q-14 -5.5 -38 -5.5zM254 483q-53 0 -86 -13q-33 -13 -51.5 -40q-18.5 -27 -25.5 -68q-7 -41 -7 -97q0 -60 7 -101.5q7 -41.5 25.5 -67.5q18.5 -26 51.5 -37.5q33 -11.5 86 -11.5h120q27 0 33.5 10q6.5 10 6.5 35v391zM609 692l-57 -148l-46 18l57 148z" />
<glyph unicode="&#272;" horiz-adv-x="740" d="M177 0q-47 0 -71 20.5q-24 20.5 -24 73.5v232h-82v48h82v233q0 53 24 73q24 20 71 20h239q79 0 131.5 -27.5q52.5 -27.5 84 -74.5q31.5 -47 45 -110q13.5 -63 13.5 -134q0 -71 -11.5 -135.5q-11.5 -64.5 -41.5 -113q-30 -48.5 -81 -77q-51 -28.5 -130 -28.5zM179 652q-26 0 -34.5 -12q-8.5 -12 -8.5 -32v-234h160v-48h-160v-232q0 -26 7.5 -36q7.5 -10 35.5 -10h237q71 0 114 25.5q43 25.5 65.5 67.5q22.5 42 29.5 97.5q7 55.5 7 115.5q0 60 -8.5 114q-8.5 54 -33 95q-24.5 41 -69 65q-44.5 24 -115.5 24z" />
<glyph unicode="&#273;" horiz-adv-x="526" d="M260 0q-68 0 -111 16q-43 16 -68.5 49q-25.5 33 -35 82.5q-9.5 49.5 -9.5 117.5q0 64 9.5 113q9.5 49 35 83q25.5 34 68.5 51.5q43 17.5 111 17.5h160v79h-160v40h160v51h52v-51h74v-40h-74v-532q0 -17 -2.5 -31q-2.5 -14 -10 -24.5q-7.5 -10.5 -21.5 -16q-14 -5.5 -38 -5.5zM260 483q-53 0 -86 -13q-33 -13 -51.5 -40q-18.5 -27 -25.5 -68q-7 -41 -7 -97q0 -60 7 -101.5q7 -41.5 25.5 -67.5q18.5 -26 51.5 -37.5q33 -11.5 86 -11.5h120q27 0 33.5 10q6.5 10 6.5 35l0 391z" />
<glyph unicode="&#274;" horiz-adv-x="620" d="M165 0q-47 0 -71 20.5q-24 20.5 -24 73.5v513q0 53 24 73q24 20 71 20h411v-48h-409q-29 0 -36 -11q-7 -11 -7 -34v-225h442v-48h-442v-240q0 -23 7 -34.5q7 -11.5 36 -11.5h413v-48zM192 750v48h288l0 -48z" />
<glyph unicode="&#275;" horiz-adv-x="527" d="M219 0q-55 0 -90.5 19.5q-35.5 19.5 -56 54.5q-20.5 35 -28.5 82.5q-8 47.5 -8 104.5q0 67 10.5 118.5q10.5 51.5 36 86q25.5 34.5 69.5 52.5q44 18 111 18q49 0 91 -10.5q42 -10.5 72.5 -34.5q30.5 -24 47.5 -62.5q17 -38.5 17 -94.5q0 -46 -15.5 -66.5q-15.5 -20.5 -60.5 -20.5h-325q0 -35 4.5 -70.5q4.5 -35.5 18 -64.5q13.5 -29 39 -47q25.5 -18 67.5 -18h260v-47zM415 294q13 0 17.5 8q4.5 8 4.5 16v7q0 49 -11.5 80.5q-11.5 31.5 -34 50q-22.5 18.5 -54.5 26q-32 7.5 -73 7.5q-44 0 -77 -9q-33 -9 -54.5 -31.5q-21.5 -22.5 -32 -60q-10.5 -37.5 -10.5 -94.5zM121 600v46h284l0 -46z" />
<glyph unicode="&#278;" horiz-adv-x="620" d="M165 0q-47 0 -71 20.5q-24 20.5 -24 73.5v513q0 53 24 73q24 20 71 20h411v-48h-409q-29 0 -36 -11q-7 -11 -7 -34v-225h442v-48h-442v-240q0 -23 7 -34.5q7 -11.5 36 -11.5h413v-48zM306 746v87h60l0 -87z" />
<glyph unicode="&#279;" horiz-adv-x="527" d="M219 0q-55 0 -90.5 19.5q-35.5 19.5 -56 54.5q-20.5 35 -28.5 82.5q-8 47.5 -8 104.5q0 67 10.5 118.5q10.5 51.5 36 86q25.5 34.5 69.5 52.5q44 18 111 18q49 0 91 -10.5q42 -10.5 72.5 -34.5q30.5 -24 47.5 -62.5q17 -38.5 17 -94.5q0 -46 -15.5 -66.5q-15.5 -20.5 -60.5 -20.5h-325q0 -35 4.5 -70.5q4.5 -35.5 18 -64.5q13.5 -29 39 -47q25.5 -18 67.5 -18h260v-47zM415 294q13 0 17.5 8q4.5 8 4.5 16v7q0 49 -11.5 80.5q-11.5 31.5 -34 50q-22.5 18.5 -54.5 26q-32 7.5 -73 7.5q-44 0 -77 -9q-33 -9 -54.5 -31.5q-21.5 -22.5 -32 -60q-10.5 -37.5 -10.5 -94.5zM233 580v87h60l0 -87z" />
<glyph unicode="&#280;" horiz-adv-x="620" d="M492 -170q-17 0 -32 10q-15 10 -15 30q0 11 3 18.5q3 7.5 7 15.5l50 96h-340q-47 0 -71 20.5q-24 20.5 -24 73.5v513q0 53 24 73q24 20 71 20h411v-48h-409q-29 0 -36 -11q-7 -11 -7 -34v-225h442v-48h-442v-240q0 -23 7 -34.5q7 -11.5 36 -11.5h413v-48h-25l-53 -101q-7 -13 -7 -18q0 -8 8 -9.5q8 -1.5 13 -1.5h63l0 -40z" />
<glyph unicode="&#281;" horiz-adv-x="527" d="M392 -170q-17 0 -32 10q-15 10 -15 30q0 11 3 18.5q3 7.5 7 15.5l50 96h-186q-55 0 -90.5 19.5q-35.5 19.5 -56 54.5q-20.5 35 -28.5 82.5q-8 47.5 -8 104.5q0 67 10.5 118.5q10.5 51.5 36 86q25.5 34.5 69.5 52.5q44 18 111 18q49 0 91 -10.5q42 -10.5 72.5 -34.5q30.5 -24 47.5 -62.5q17 -38.5 17 -94.5q0 -46 -15.5 -66.5q-15.5 -20.5 -60.5 -20.5h-325q0 -35 4.5 -70.5q4.5 -35.5 18 -64.5q13.5 -29 39 -47q25.5 -18 67.5 -18h260v-47h-24l-53 -101q-7 -13 -7 -18q0 -8 8 -9.5q8 -1.5 13 -1.5h63v-40zM415 294q13 0 17.5 8q4.5 8 4.5 16v7q0 49 -11.5 80.5q-11.5 31.5 -34 50q-22.5 18.5 -54.5 26q-32 7.5 -73 7.5q-44 0 -77 -9q-33 -9 -54.5 -31.5q-21.5 -22.5 -32 -60q-10.5 -37.5 -10.5 -94.5z" />
<glyph unicode="&#282;" horiz-adv-x="620" d="M165 0q-47 0 -71 20.5q-24 20.5 -24 73.5v513q0 53 24 73q24 20 71 20h411v-48h-409q-29 0 -36 -11q-7 -11 -7 -34v-225h442v-48h-442v-240q0 -23 7 -34.5q7 -11.5 36 -11.5h413v-48zM491 845l-112 -98q-10 -9 -21.5 -13q-11.5 -4 -21.5 -4q-10 0 -21.5 4q-11.5 4 -21.5 13l-112 98l30 35l104 -89q4 -3 9 -6q5 -3 12 -3q7 0 12 3q5 3 9 6l104 89z" />
<glyph unicode="&#283;" horiz-adv-x="527" d="M219 0q-55 0 -90.5 19.5q-35.5 19.5 -56 54.5q-20.5 35 -28.5 82.5q-8 47.5 -8 104.5q0 67 10.5 118.5q10.5 51.5 36 86q25.5 34.5 69.5 52.5q44 18 111 18q49 0 91 -10.5q42 -10.5 72.5 -34.5q30.5 -24 47.5 -62.5q17 -38.5 17 -94.5q0 -46 -15.5 -66.5q-15.5 -20.5 -60.5 -20.5h-325q0 -35 4.5 -70.5q4.5 -35.5 18 -64.5q13.5 -29 39 -47q25.5 -18 67.5 -18h260v-47zM415 294q13 0 17.5 8q4.5 8 4.5 16v7q0 49 -11.5 80.5q-11.5 31.5 -34 50q-22.5 18.5 -54.5 26q-32 7.5 -73 7.5q-44 0 -77 -9q-33 -9 -54.5 -31.5q-21.5 -22.5 -32 -60q-10.5 -37.5 -10.5 -94.5zM418 675l-112 -98q-10 -9 -21.5 -13q-11.5 -4 -21.5 -4q-10 0 -21.5 4q-11.5 4 -21.5 13l-112 98l30 35l104 -89q4 -3 9 -6q5 -3 12 -3q7 0 12 3q5 3 9 6l104 89z" />
<glyph unicode="&#284;" horiz-adv-x="704" d="M654 78q0 -38 -18.5 -58q-18.5 -20 -63.5 -20h-261q-80 0 -131 28q-51 28 -80 76q-29 48 -39.5 111.5q-10.5 63.5 -10.5 134.5q0 71 11 134.5q11 63.5 42.5 111.5q31.5 48 87.5 76q56 28 146 28h301v-48h-301q-68 0 -112 -20.5q-44 -20.5 -70 -59.5q-26 -39 -36.5 -95q-10.5 -56 -10.5 -127q0 -71 10 -127q10 -56 33.5 -95q23.5 -39 62.5 -59.5q39 -20.5 96 -20.5h248q23 0 32.5 10.5q9.5 10.5 9.5 33.5v229h54zM389 829q-4 3 -9 6q-5 3 -12 3q-7 0 -12 -3q-5 -3 -9 -6l-104 -89l-30 35l112 98q8 7 18.5 12.5q10.5 5.5 24.5 5.5q14 0 24.5 -5.5q10.5 -5.5 18.5 -12.5l112 -98l-30 -35z" />
<glyph unicode="&#285;" horiz-adv-x="540" d="M260 0q-68 0 -111 16q-43 16 -68.5 49q-25.5 33 -35 82.5q-9.5 49.5 -9.5 117.5q0 64 9.5 113q9.5 49 35 83q25.5 34 68.5 51.5q43 17.5 111 17.5h114q52 0 82 -20q30 -20 30 -73v-376q0 -54 -9 -96.5q-9 -42.5 -32 -72.5q-23 -30 -64.5 -46q-41.5 -16 -105.5 -16h-202v47h202q70 0 110.5 26q40.5 26 46.5 97zM434 440q0 20 -10.5 31.5q-10.5 11.5 -36.5 11.5h-127q-53 0 -86 -13q-33 -13 -51.5 -40q-18.5 -27 -25.5 -68q-7 -41 -7 -97q0 -60 7 -101.5q7 -41.5 25.5 -67.5q18.5 -26 51.5 -37.5q33 -11.5 86 -11.5h174zM292 639q-4 3 -9 6q-5 3 -12 3q-7 0 -12 -3q-5 -3 -9 -6l-104 -89l-30 35l112 98q10 9 21.5 13q11.5 4 21.5 4q10 0 21.5 -4q11.5 -4 21.5 -13l112 -98l-30 -35z" />
<glyph unicode="&#286;" horiz-adv-x="704" d="M654 78q0 -38 -18.5 -58q-18.5 -20 -63.5 -20h-261q-80 0 -131 28q-51 28 -80 76q-29 48 -39.5 111.5q-10.5 63.5 -10.5 134.5q0 71 11 134.5q11 63.5 42.5 111.5q31.5 48 87.5 76q56 28 146 28h301v-48h-301q-68 0 -112 -20.5q-44 -20.5 -70 -59.5q-26 -39 -36.5 -95q-10.5 -56 -10.5 -127q0 -71 10 -127q10 -56 33.5 -95q23.5 -39 62.5 -59.5q39 -20.5 96 -20.5h248q23 0 32.5 10.5q9.5 10.5 9.5 33.5v229h54zM291 836q8 -35 31 -46.5q23 -11.5 56 -11.5q33 0 56 11.5q23 11.5 31 46.5l58 0q-20 -106 -145 -106q-60 0 -96 24.5q-36 24.5 -49 81.5z" />
<glyph unicode="&#287;" horiz-adv-x="540" d="M260 0q-68 0 -111 16q-43 16 -68.5 49q-25.5 33 -35 82.5q-9.5 49.5 -9.5 117.5q0 64 9.5 113q9.5 49 35 83q25.5 34 68.5 51.5q43 17.5 111 17.5h114q52 0 82 -20q30 -20 30 -73v-376q0 -54 -9 -96.5q-9 -42.5 -32 -72.5q-23 -30 -64.5 -46q-41.5 -16 -105.5 -16h-202v47h202q70 0 110.5 26q40.5 26 46.5 97zM434 440q0 20 -10.5 31.5q-10.5 11.5 -36.5 11.5h-127q-53 0 -86 -13q-33 -13 -51.5 -40q-18.5 -27 -25.5 -68q-7 -41 -7 -97q0 -60 7 -101.5q7 -41.5 25.5 -67.5q18.5 -26 51.5 -37.5q33 -11.5 86 -11.5h174zM184 665q8 -35 31 -46.5q23 -11.5 56 -11.5q33 0 56 11.5q23 11.5 31 46.5l58 0q-20 -106 -145 -106q-60 0 -96 24.5q-36 24.5 -49 81.5z" />
<glyph unicode="&#288;" horiz-adv-x="704" d="M654 78q0 -38 -18.5 -58q-18.5 -20 -63.5 -20h-261q-80 0 -131 28q-51 28 -80 76q-29 48 -39.5 111.5q-10.5 63.5 -10.5 134.5q0 71 11 134.5q11 63.5 42.5 111.5q31.5 48 87.5 76q56 28 146 28h301v-48h-301q-68 0 -112 -20.5q-44 -20.5 -70 -59.5q-26 -39 -36.5 -95q-10.5 -56 -10.5 -127q0 -71 10 -127q10 -56 33.5 -95q23.5 -39 62.5 -59.5q39 -20.5 96 -20.5h248q23 0 32.5 10.5q9.5 10.5 9.5 33.5v229h54zM350 746v87h60l0 -87z" />
<glyph unicode="&#289;" horiz-adv-x="540" d="M260 0q-68 0 -111 16q-43 16 -68.5 49q-25.5 33 -35 82.5q-9.5 49.5 -9.5 117.5q0 64 9.5 113q9.5 49 35 83q25.5 34 68.5 51.5q43 17.5 111 17.5h114q52 0 82 -20q30 -20 30 -73v-376q0 -54 -9 -96.5q-9 -42.5 -32 -72.5q-23 -30 -64.5 -46q-41.5 -16 -105.5 -16h-202v47h202q70 0 110.5 26q40.5 26 46.5 97zM434 440q0 20 -10.5 31.5q-10.5 11.5 -36.5 11.5h-127q-53 0 -86 -13q-33 -13 -51.5 -40q-18.5 -27 -25.5 -68q-7 -41 -7 -97q0 -60 7 -101.5q7 -41.5 25.5 -67.5q18.5 -26 51.5 -37.5q33 -11.5 86 -11.5h174zM248 580v87h60l0 -87z" />
<glyph unicode="&#290;" horiz-adv-x="704" d="M654 78q0 -38 -18.5 -58q-18.5 -20 -63.5 -20h-261q-80 0 -131 28q-51 28 -80 76q-29 48 -39.5 111.5q-10.5 63.5 -10.5 134.5q0 71 11 134.5q11 63.5 42.5 111.5q31.5 48 87.5 76q56 28 146 28h301v-48h-301q-68 0 -112 -20.5q-44 -20.5 -70 -59.5q-26 -39 -36.5 -95q-10.5 -56 -10.5 -127q0 -71 10 -127q10 -56 33.5 -95q23.5 -39 62.5 -59.5q39 -20.5 96 -20.5h248q23 0 32.5 10.5q9.5 10.5 9.5 33.5v229h54zM443 -48l-57 -148l-46 18l57 148z" />
<glyph unicode="&#291;" horiz-adv-x="540" d="M260 0q-68 0 -111 16q-43 16 -68.5 49q-25.5 33 -35 82.5q-9.5 49.5 -9.5 117.5q0 64 9.5 113q9.5 49 35 83q25.5 34 68.5 51.5q43 17.5 111 17.5h114q52 0 82 -20q30 -20 30 -73v-376q0 -54 -9 -96.5q-9 -42.5 -32 -72.5q-23 -30 -64.5 -46q-41.5 -16 -105.5 -16h-202v47h202q70 0 110.5 26q40.5 26 46.5 97zM434 440q0 20 -10.5 31.5q-10.5 11.5 -36.5 11.5h-127q-53 0 -86 -13q-33 -13 -51.5 -40q-18.5 -27 -25.5 -68q-7 -41 -7 -97q0 -60 7 -101.5q7 -41.5 25.5 -67.5q18.5 -26 51.5 -37.5q33 -11.5 86 -11.5h174zM238 578l57 148l46 -18l-57 -148z" />
<glyph unicode="&#292;" horiz-adv-x="702" d="M632 0h-54v332h-454v-332h-54v700h54v-320h454v320h54zM372 829q-4 3 -9 6q-5 3 -12 3q-7 0 -12 -3q-5 -3 -9 -6l-104 -89l-30 35l112 98q8 7 18.5 12.5q10.5 5.5 24.5 5.5q14 0 24.5 -5.5q10.5 -5.5 18.5 -12.5l112 -98l-30 -35z" />
<glyph unicode="&#293;" horiz-adv-x="528" d="M54 700h52v-170h204q86 0 125 -43.5q39 -43.5 39 -134.5v-352h-52v358q0 60 -26 92.5q-26 32.5 -86 32.5h-204v-483h-52zM105 809q-4 3 -9 6q-5 3 -12 3q-7 0 -12 -3q-5 -3 -9 -6l-104 -89l-30 35l112 98q10 9 21.5 13q11.5 4 21.5 4q10 0 21.5 -4q11.5 -4 21.5 -13l112 -98l-30 -35z" />
<glyph unicode="&#294;" horiz-adv-x="742" d="M0 568h90v132h54v-132h454v132h54v-132h90v-48h-90v-520h-54v332h-454v-332h-54v520h-90zM598 380v140h-454l0 -140z" />
<glyph unicode="&#295;" horiz-adv-x="528" d="M54 601h-80v47h80v52h52v-52h154v-47h-154v-71h204q86 0 125 -43.5q39 -43.5 39 -134.5v-352h-52v358q0 60 -26 92.5q-26 32.5 -86 32.5h-204v-483l-52 0z" />
<glyph unicode="&#298;" horiz-adv-x="194" d="M70 0v700h54v-700zM-41 750v48h288l0 -48z" />
<glyph unicode="&#299;" horiz-adv-x="152" d="M50 530h52v-530h-52zM-66 600v46h284l0 -46z" />
<glyph unicode="&#302;" horiz-adv-x="274" d="M180 0l-53 -101q-7 -13 -7 -18q0 -8 8 -9.5q8 -1.5 13 -1.5h63v-40h-87q-47 0 -47 40q0 11 3 18.5q3 7.5 7 15.5l50 96h-4v700l54 0z" />
<glyph unicode="&#303;" horiz-adv-x="234" d="M160 0l-53 -101q-7 -13 -7 -18q0 -8 8 -9.5q8 -1.5 13 -1.5h63v-40h-87q-47 0 -47 40q0 11 3 18.5q3 7.5 7 15.5l48 96v530h52zM106 622v78h56l0 -78z" />
<glyph unicode="&#304;" horiz-adv-x="194" d="M70 0v700h54v-700zM67 746v87h60l0 -87z" />
<glyph unicode="&#305;" horiz-adv-x="152" d="M50 530h52v-530l-52 0z" />
<glyph unicode="&#308;" horiz-adv-x="412" d="M0 48h118q92 0 131 47.5q39 47.5 39 129.5v475h54v-485q0 -45 -13.5 -84q-13.5 -39 -40 -68.5q-26.5 -29.5 -66.5 -46q-40 -16.5 -93 -16.5h-129zM332 829q-4 3 -9 6q-5 3 -12 3q-7 0 -12 -3q-5 -3 -9 -6l-104 -89l-30 35l112 98q8 7 18.5 12.5q10.5 5.5 24.5 5.5q14 0 24.5 -5.5q10.5 -5.5 18.5 -12.5l112 -98l-30 -35z" />
<glyph unicode="&#309;" horiz-adv-x="222" d="M-50 -130q6 0 11.5 -0.5q5.5 -0.5 10.5 -0.5q68 0 105 30q37 30 37 102v529h52v-539q0 -82 -50 -126.5q-50 -44.5 -133 -44.5q-10 0 -18 0.5q-8 0.5 -15 1.5zM152 639q-4 3 -9 6q-5 3 -12 3q-7 0 -12 -3q-5 -3 -9 -6l-104 -89l-30 35l112 98q10 9 21.5 13q11.5 4 21.5 4q10 0 21.5 -4q11.5 -4 21.5 -13l112 -98l-30 -35z" />
<glyph unicode="&#310;" horiz-adv-x="646" d="M575 0l-353 271q-38 30 -49 51.5q-11 21.5 -11 37.5q0 14 10 32.5q10 18.5 41 43.5l328 264h78l-358 -290q-14 -12 -29 -23.5q-15 -11.5 -15 -27.5q0 -17 17.5 -32.5q17.5 -15.5 34.5 -28.5l387 -298zM70 700h54v-700h-54zM364 -48l-57 -148l-46 18l57 148z" />
<glyph unicode="&#311;" horiz-adv-x="463" d="M401 0l-215 198q-13 11 -26.5 32q-13.5 21 -13.5 44q0 23 12.5 42q12.5 19 28.5 34l192 180h70l-230 -216q-7 -6 -13 -15.5q-6 -9.5 -6 -22.5q0 -16 10 -29q10 -13 19 -21l244 -226zM54 0v700h52v-700zM283 -48l-57 -148l-46 18l57 148z" />
<glyph unicode="&#313;" horiz-adv-x="563" d="M146 0q-32 0 -54 13.5q-22 13.5 -22 50.5v636h54v-618q0 -17 8.5 -25.5q8.5 -8.5 29.5 -8.5h401v-48zM348 840l-123 -100l-31 39l123 100z" />
<glyph unicode="&#314;" horiz-adv-x="160" d="M54 700h52v-700h-52zM157 810l-123 -100l-31 39l123 100z" />
<glyph unicode="&#315;" horiz-adv-x="563" d="M146 0q-32 0 -54 13.5q-22 13.5 -22 50.5v636h54v-618q0 -17 8.5 -25.5q8.5 -8.5 29.5 -8.5h401v-48zM353 -48l-57 -148l-46 18l57 148z" />
<glyph unicode="&#316;" horiz-adv-x="160" d="M54 700h52v-700h-52zM134 -48l-57 -148l-46 18l57 148z" />
<glyph unicode="&#317;" horiz-adv-x="563" d="M146 0q-32 0 -54 13.5q-22 13.5 -22 50.5v636h54v-618q0 -17 8.5 -25.5q8.5 -8.5 29.5 -8.5h401v-48zM413 692l-57 -148l-46 18l57 148z" />
<glyph unicode="&#318;" horiz-adv-x="223" d="M50 700h52v-700h-52zM243 692l-57 -148l-46 18l57 148z" />
<glyph unicode="&#319;" horiz-adv-x="563" d="M146 0q-32 0 -54 13.5q-22 13.5 -22 50.5v636h54v-618q0 -17 8.5 -25.5q8.5 -8.5 29.5 -8.5h401v-48zM330 330v87h60l0 -87z" />
<glyph unicode="&#320;" horiz-adv-x="220" d="M54 700h52v-700h-52zM160 320v87h60l0 -87z" />
<glyph unicode="&#321;" horiz-adv-x="560" d="M158 0q-32 0 -54 13.5q-22 13.5 -22 50.5v167l-66 -50l-26 34l92 70v415h54v-378l208 159l26 -34l-234 -179v-186q0 -17 8.5 -25.5q8.5 -8.5 29.5 -8.5h386l0 -48z" />
<glyph unicode="&#322;" horiz-adv-x="243" d="M82 316l-64 -49l-28 37l92 71v325h52v-285l101 76l28 -37l-129 -98v-356l-52 0z" />
<glyph unicode="&#323;" horiz-adv-x="732" d="M662 70q0 -35 -16 -56.5q-16 -21.5 -48 -21.5q-24 0 -38.5 12q-14.5 12 -31.5 39l-366 591q-3 5 -9 11q-6 6 -14 6q-2 0 -8.5 -3.5q-6.5 -3.5 -6.5 -16.5v-631h-54v637q0 26 8.5 40.5q8.5 14.5 20 21q11.5 6.5 22 8q10.5 1.5 15.5 1.5q29 0 43.5 -14.5q14.5 -14.5 25.5 -32.5l368 -594q4 -7 9 -12.5q5 -5.5 13 -5.5q10 0 11.5 6.5q1.5 6.5 1.5 11.5v633h54zM443 840l-123 -100l-31 39l123 100z" />
<glyph unicode="&#324;" horiz-adv-x="528" d="M54 446q0 38 15 61q15 23 57 23h195q83 0 118 -42.5q35 -42.5 35 -120.5v-367h-52v367q0 24 -4.5 45q-4.5 21 -16 37q-11.5 16 -31 25q-19.5 9 -49.5 9h-183q-15 0 -23.5 -6q-8.5 -6 -8.5 -32v-445h-52zM341 660l-123 -100l-31 39l123 100z" />
<glyph unicode="&#325;" horiz-adv-x="732" d="M662 70q0 -35 -16 -56.5q-16 -21.5 -48 -21.5q-24 0 -38.5 12q-14.5 12 -31.5 39l-366 591q-3 5 -9 11q-6 6 -14 6q-2 0 -8.5 -3.5q-6.5 -3.5 -6.5 -16.5v-631h-54v637q0 26 8.5 40.5q8.5 14.5 20 21q11.5 6.5 22 8q10.5 1.5 15.5 1.5q29 0 43.5 -14.5q14.5 -14.5 25.5 -32.5l368 -594q4 -7 9 -12.5q5 -5.5 13 -5.5q10 0 11.5 6.5q1.5 6.5 1.5 11.5v633h54zM397 -48l-57 -148l-46 18l57 148z" />
<glyph unicode="&#326;" horiz-adv-x="528" d="M54 446q0 38 15 61q15 23 57 23h195q83 0 118 -42.5q35 -42.5 35 -120.5v-367h-52v367q0 24 -4.5 45q-4.5 21 -16 37q-11.5 16 -31 25q-19.5 9 -49.5 9h-183q-15 0 -23.5 -6q-8.5 -6 -8.5 -32v-445h-52zM315 -48l-57 -148l-46 18l57 148z" />
<glyph unicode="&#327;" horiz-adv-x="732" d="M662 70q0 -35 -16 -56.5q-16 -21.5 -48 -21.5q-24 0 -38.5 12q-14.5 12 -31.5 39l-366 591q-3 5 -9 11q-6 6 -14 6q-2 0 -8.5 -3.5q-6.5 -3.5 -6.5 -16.5v-631h-54v637q0 26 8.5 40.5q8.5 14.5 20 21q11.5 6.5 22 8q10.5 1.5 15.5 1.5q29 0 43.5 -14.5q14.5 -14.5 25.5 -32.5l368 -594q4 -7 9 -12.5q5 -5.5 13 -5.5q10 0 11.5 6.5q1.5 6.5 1.5 11.5v633h54zM521 845l-112 -98q-10 -9 -21.5 -13q-11.5 -4 -21.5 -4q-10 0 -21.5 4q-11.5 4 -21.5 13l-112 98l30 35l104 -89q4 -3 9 -6q5 -3 12 -3q7 0 12 3q5 3 9 6l104 89z" />
<glyph unicode="&#328;" horiz-adv-x="528" d="M54 446q0 38 15 61q15 23 57 23h195q83 0 118 -42.5q35 -42.5 35 -120.5v-367h-52v367q0 24 -4.5 45q-4.5 21 -16 37q-11.5 16 -31 25q-19.5 9 -49.5 9h-183q-15 0 -23.5 -6q-8.5 -6 -8.5 -32v-445h-52zM419 675l-112 -98q-10 -9 -21.5 -13q-11.5 -4 -21.5 -4q-10 0 -21.5 4q-11.5 4 -21.5 13l-112 98l30 35l104 -89q4 -3 9 -6q5 -3 12 -3q7 0 12 3q5 3 9 6l104 89z" />
<glyph unicode="&#332;" horiz-adv-x="778" d="M390 708q95 0 160 -20.5q65 -20.5 104.5 -64q39.5 -43.5 56.5 -111q17 -67.5 17 -162.5q0 -95 -17 -162.5q-17 -67.5 -56.5 -111q-39.5 -43.5 -104.5 -64q-65 -20.5 -160 -20.5q-95 0 -160 20.5q-65 20.5 -105 64q-40 43.5 -57.5 111q-17.5 67.5 -17.5 162.5q0 95 17.5 162.5q17.5 67.5 57.5 111q40 43.5 105 64q65 20.5 160 20.5zt0 0zM108 350q0 -84 12 -142.5q12 -58.5 43.5 -96q31.5 -37.5 86 -54.5q54.5 -17 139.5 -17q85 0 139.5 17q54.5 17 86 54.5q31.5 37.5 43.5 96q12 58.5 12 142.5q0 84 -12 142.5q-12 58.5 -43.5 96q-31.5 37.5 -86 54.5q-54.5 17 -139.5 17q-85 0 -139.5 -17q-54.5 -17 -86 -54.5q-31.5 -37.5 -43.5 -96q-12 -58.5 -12 -142.5zt0 0zM251 750v48h288l0 -48z" />
<glyph unicode="&#333;" horiz-adv-x="596" d="M298 536q71 0 121 -15.5q50 -15.5 81.5 -48.5q31.5 -33 45.5 -84q14 -51 14 -122q0 -71 -14 -122.5q-14 -51.5 -45.5 -84.5q-31.5 -33 -81.5 -49q-50 -16 -121 -16q-71 0 -121 16q-50 16 -81.5 49q-31.5 33 -45.5 84.5q-14 51.5 -14 122.5q0 71 14 122q14 51 45.5 84q31.5 33 81.5 48.5q50 15.5 121 15.5zt0 0zM90 266q0 -64 11.5 -107q11.5 -43 36.5 -69.5q25 -26.5 64.5 -37.5q39.5 -11 95.5 -11q56 0 95.5 11q39.5 11 64.5 37.5q25 26.5 36.5 69.5q11.5 43 11.5 107q0 64 -11.5 106.5q-11.5 42.5 -36.5 68.5q-25 26 -64.5 37q-39.5 11 -95.5 11q-56 0 -95.5 -11q-39.5 -11 -64.5 -37q-25 -26 -36.5 -68.5q-11.5 -42.5 -11.5 -106.5zt0 0zM156 600v46h284l0 -46z" />
<glyph unicode="&#334;" horiz-adv-x="778" d="M390 708q95 0 160 -20.5q65 -20.5 104.5 -64q39.5 -43.5 56.5 -111q17 -67.5 17 -162.5q0 -95 -17 -162.5q-17 -67.5 -56.5 -111q-39.5 -43.5 -104.5 -64q-65 -20.5 -160 -20.5q-95 0 -160 20.5q-65 20.5 -105 64q-40 43.5 -57.5 111q-17.5 67.5 -17.5 162.5q0 95 17.5 162.5q17.5 67.5 57.5 111q40 43.5 105 64q65 20.5 160 20.5zt0 0zM108 350q0 -84 12 -142.5q12 -58.5 43.5 -96q31.5 -37.5 86 -54.5q54.5 -17 139.5 -17q85 0 139.5 17q54.5 17 86 54.5q31.5 37.5 43.5 96q12 58.5 12 142.5q0 84 -12 142.5q-12 58.5 -43.5 96q-31.5 37.5 -86 54.5q-54.5 17 -139.5 17q-85 0 -139.5 -17q-54.5 -17 -86 -54.5q-31.5 -37.5 -43.5 -96q-12 -58.5 -12 -142.5zt0 0zM302 836q8 -35 31 -46.5q23 -11.5 56 -11.5q33 0 56 11.5q23 11.5 31 46.5l58 0q-20 -106 -145 -106q-60 0 -96 24.5q-36 24.5 -49 81.5z" />
<glyph unicode="&#335;" horiz-adv-x="596" d="M298 536q71 0 121 -15.5q50 -15.5 81.5 -48.5q31.5 -33 45.5 -84q14 -51 14 -122q0 -71 -14 -122.5q-14 -51.5 -45.5 -84.5q-31.5 -33 -81.5 -49q-50 -16 -121 -16q-71 0 -121 16q-50 16 -81.5 49q-31.5 33 -45.5 84.5q-14 51.5 -14 122.5q0 71 14 122q14 51 45.5 84q31.5 33 81.5 48.5q50 15.5 121 15.5zt0 0zM90 266q0 -64 11.5 -107q11.5 -43 36.5 -69.5q25 -26.5 64.5 -37.5q39.5 -11 95.5 -11q56 0 95.5 11q39.5 11 64.5 37.5q25 26.5 36.5 69.5q11.5 43 11.5 107q0 64 -11.5 106.5q-11.5 42.5 -36.5 68.5q-25 26 -64.5 37q-39.5 11 -95.5 11q-56 0 -95.5 -11q-39.5 -11 -64.5 -37q-25 -26 -36.5 -68.5q-11.5 -42.5 -11.5 -106.5zt0 0zM211 665q8 -35 31 -46.5q23 -11.5 56 -11.5q33 0 56 11.5q23 11.5 31 46.5l58 0q-20 -106 -145 -106q-60 0 -96 24.5q-36 24.5 -49 81.5z" />
<glyph unicode="&#336;" horiz-adv-x="778" d="M390 708q95 0 160 -20.5q65 -20.5 104.5 -64q39.5 -43.5 56.5 -111q17 -67.5 17 -162.5q0 -95 -17 -162.5q-17 -67.5 -56.5 -111q-39.5 -43.5 -104.5 -64q-65 -20.5 -160 -20.5q-95 0 -160 20.5q-65 20.5 -105 64q-40 43.5 -57.5 111q-17.5 67.5 -17.5 162.5q0 95 17.5 162.5q17.5 67.5 57.5 111q40 43.5 105 64q65 20.5 160 20.5zt0 0zM108 350q0 -84 12 -142.5q12 -58.5 43.5 -96q31.5 -37.5 86 -54.5q54.5 -17 139.5 -17q85 0 139.5 17q54.5 17 86 54.5q31.5 37.5 43.5 96q12 58.5 12 142.5q0 84 -12 142.5q-12 58.5 -43.5 96q-31.5 37.5 -86 54.5q-54.5 17 -139.5 17q-85 0 -139.5 -17q-54.5 -17 -86 -54.5q-31.5 -37.5 -43.5 -96q-12 -58.5 -12 -142.5zt0 0zM394 840l-123 -100l-31 39l123 100zM538 840l-123 -100l-31 39l123 100z" />
<glyph unicode="&#337;" horiz-adv-x="596" d="M298 536q71 0 121 -15.5q50 -15.5 81.5 -48.5q31.5 -33 45.5 -84q14 -51 14 -122q0 -71 -14 -122.5q-14 -51.5 -45.5 -84.5q-31.5 -33 -81.5 -49q-50 -16 -121 -16q-71 0 -121 16q-50 16 -81.5 49q-31.5 33 -45.5 84.5q-14 51.5 -14 122.5q0 71 14 122q14 51 45.5 84q31.5 33 81.5 48.5q50 15.5 121 15.5zt0 0zM90 266q0 -64 11.5 -107q11.5 -43 36.5 -69.5q25 -26.5 64.5 -37.5q39.5 -11 95.5 -11q56 0 95.5 11q39.5 11 64.5 37.5q25 26.5 36.5 69.5q11.5 43 11.5 107q0 64 -11.5 106.5q-11.5 42.5 -36.5 68.5q-25 26 -64.5 37q-39.5 11 -95.5 11q-56 0 -95.5 -11q-39.5 -11 -64.5 -37q-25 -26 -36.5 -68.5q-11.5 -42.5 -11.5 -106.5zt0 0zM303 660l-123 -100l-31 39l123 100zM447 660l-123 -100l-31 39l123 100z" />
<glyph unicode="&#338;" horiz-adv-x="1182" d="M747 0q-47 0 -71 20.5q-24 20.5 -24 74.5q-37 -54 -101.5 -78.5q-64.5 -24.5 -170.5 -24.5q-95 0 -158.5 20.5q-63.5 20.5 -101.5 64q-38 43.5 -54 111q-16 67.5 -16 162.5q0 95 16 162.5q16 67.5 54 111q38 43.5 101.5 64q63.5 20.5 158.5 20.5q106 0 170.5 -24.5q64.5 -24.5 101.5 -76.5q0 53 24 73q24 20 71 20h391v-48h-389q-29 0 -36 -11q-7 -11 -7 -34v-225h422v-48h-422v-240q0 -23 7 -34.5q7 -11.5 36 -11.5h393v-48zM108 350q0 -84 10.5 -142.5q10.5 -58.5 40 -96q29.5 -37.5 82.5 -54.5q53 -17 138 -17q85 0 138 17q53 17 82.5 54.5q29.5 37.5 40 96q10.5 58.5 10.5 142.5q0 84 -10.5 142.5q-10.5 58.5 -40 96q-29.5 37.5 -82.5 54.5q-53 17 -138 17q-85 0 -138 -17q-53 -17 -82.5 -54.5q-29.5 -37.5 -40 -96t-10.5 -142.5z" />
</font>
</defs>
</svg>
