<?xml version="1.0" standalone="no"?>
<!DOCTYPE svg PUBLIC "-//W3C//DTD SVG 1.1//EN" "http://www.w3.org/Graphics/SVG/1.1/DTD/svg11.dtd" >
<svg xmlns="http://www.w3.org/2000/svg">
<metadata>
Generated by SVGconv.
Copyright   : Copyright  1997 ParaType Inc., ParaType Ltd. All rights reserved.
Designer    : Andrey Kryukov, Dmitry Kirsanov
Foundry     : ParaType, Inc.
Foundry URL : http://www.paratype.com
</metadata>
<defs>
<font id="MagistralWebExtra-Bold" horiz-adv-x="655" >
<font-face units-per-em="1000" ascent="1007" descent="300" />
<missing-glyph horiz-adv-x="500" />
<glyph unicode="&#32;" horiz-adv-x="233" />
<glyph unicode="&#33;" horiz-adv-x="328" d="M66 182h196v-182h-196zM70 241l-20 459h228l-20 -459z" />
<glyph unicode="&#34;" horiz-adv-x="523" d="M50 700h186l-12 -325h-162zM287 700h186l-12 -325l-162 0z" />
<glyph unicode="&#35;" horiz-adv-x="903" d="M149 166h-126l50 130h127l49 117h-127l51 130h126l65 157h150l-64 -157h153l64 157h150l-63 -157h126l-50 -130h-127l-48 -117h126l-51 -130h-126l-68 -166h-151l68 166h-153l-69 -166h-150zM553 413h-154l-49 -117l154 0z" />
<glyph unicode="&#36;" horiz-adv-x="772" d="M69 174h364q6 0 16.5 0.5q10.5 0.5 20.5 3q10 2.5 17 7.5q7 5 7 15q0 19 -16 27.5q-16 8.5 -28 11.5l-255 60q-74 17 -109.5 73q-35.5 56 -35.5 139q0 45 10 80q10 35 31.5 59.5q21.5 24.5 55.5 37q34 12.5 83 12.5h110v72h96v-72h248v-174h-346q-8 0 -18 -0.5q-10 -0.5 -19.5 -3q-9.5 -2.5 -16 -8q-6.5 -5.5 -6.5 -15.5q0 -12 12.5 -22q12.5 -10 41.5 -17l234 -53q46 -10 76 -26q30 -16 48 -41.5q18 -25.5 25 -62.5q7 -37 7 -89q0 -90 -36 -139q-36 -49 -129 -49h-121v-72h-96v72l-271 0z" />
<glyph unicode="&#37;" horiz-adv-x="828" d="M561 700h114l-406 -700h-114zM201 706q49 0 81.5 -9q32.5 -9 52 -29.5q19.5 -20.5 28 -53q8.5 -32.5 8.5 -78.5q0 -47 -8.5 -79q-8.5 -32 -28 -52q-19.5 -20 -52 -29q-32.5 -9 -81.5 -9q-49 0 -81.5 9q-32.5 9 -52.5 29q-20 20 -28.5 52q-8.5 32 -8.5 79q0 46 8.5 78.5q8.5 32.5 28.5 53q20 20.5 52.5 29.5q32.5 9 81.5 9zt0 0zM140 536q0 -41 14 -58q14 -17 47 -17q33 0 46.5 17q13.5 17 13.5 58q0 41 -13.5 58.5q-13.5 17.5 -46.5 17.5q-33 0 -47 -17.5q-14 -17.5 -14 -58.5zt0 0zM628 333q49 0 81.5 -9q32.5 -9 52 -29.5q19.5 -20.5 28 -53q8.5 -32.5 8.5 -78.5q0 -47 -8.5 -79q-8.5 -32 -28 -52q-19.5 -20 -52 -29q-32.5 -9 -81.5 -9q-49 0 -81.5 9q-32.5 9 -52.5 29q-20 20 -28.5 52q-8.5 32 -8.5 79q0 46 8.5 78.5q8.5 32.5 28.5 53q20 20.5 52.5 29.5q32.5 9 81.5 9zt0 0zM567 163q0 -41 14 -58q14 -17 47 -17q33 0 46.5 17q13.5 17 13.5 58q0 41 -13.5 58.5q-13.5 17.5 -46.5 17.5q-33 0 -47 -17.5t-14 -58.5z" />
<glyph unicode="&#38;" horiz-adv-x="834" d="M733 210q0 -60 -10.5 -100.5q-10.5 -40.5 -34.5 -64.5q-24 -24 -64.5 -34.5q-40.5 -10.5 -100.5 -10.5h-270q-98 0 -150.5 43q-52.5 43 -52.5 148q0 30 4.5 57.5q4.5 27.5 16.5 49.5q12 22 33.5 36q21.5 14 56.5 17l0 4q-59 11 -84 53q-25 42 -25 102q0 52 10.5 88.5q10.5 36.5 34 59q23.5 22.5 62 32.5q38.5 10 94.5 10h457v-174h-358q-15 0 -29 -1q-14 -1 -25 -5.5q-11 -4.5 -17.5 -14q-6.5 -9.5 -6.5 -27.5q0 -18 6.5 -28q6.5 -10 17.5 -14.5q11 -4.5 25 -5q14 -0.5 29 -0.5h472v-154h-91zM462 174q27 0 36 8.5q9 8.5 9 35.5v58h-155q-15 0 -29.5 -1q-14.5 -1 -25.5 -5.5q-11 -4.5 -18 -14.5q-7 -10 -7 -29q0 -20 7 -30.5q7 -10.5 18 -15q11 -4.5 25.5 -5.5q14.5 -1 29.5 -1z" />
<glyph unicode="&#39;" horiz-adv-x="288" d="M50 700h188l-13 -325l-162 0z" />
<glyph unicode="&#40;" horiz-adv-x="411" d="M190 158q0 -98 46.5 -145q46.5 -47 144.5 -47l0 -130q-166 0 -248.5 78q-82.5 78 -82.5 244v228q0 166 82.5 244q82.5 78 248.5 78l0 -130q-98 0 -144.5 -47q-46.5 -47 -46.5 -145z" />
<glyph unicode="&#41;" horiz-adv-x="411" d="M221 386q0 98 -46.5 145q-46.5 47 -144.5 47l0 130q166 0 248.5 -78q82.5 -78 82.5 -244v-228q0 -166 -82.5 -244q-82.5 -78 -248.5 -78l0 130q98 0 144.5 47q46.5 47 46.5 145z" />
<glyph unicode="&#42;" horiz-adv-x="492" d="M151 493l-121 69l47 81l120 -70v140h97v-138l118 69l49 -83l-120 -70l121 -69l-47 -82l-121 70v-139h-97v138l-120 -69l-46 83z" />
<glyph unicode="&#43;" horiz-adv-x="707" d="M286 12v235h-236v130h236v235h136v-235h235v-130h-235l0 -235z" />
<glyph unicode="&#44;" horiz-adv-x="357" d="M0 -71l153 256l154 -92l-169 -246z" />
<glyph unicode="&#45;" horiz-adv-x="487" d="M30 347h427v-158l-427 0z" />
<glyph unicode="&#46;" horiz-adv-x="298" d="M50 0v180h198l0 -180z" />
<glyph unicode="&#47;" horiz-adv-x="518" d="M-10 -170l418 910h120l-418 -910z" />
<glyph unicode="&#48;" horiz-adv-x="684" d="M342 708q82 0 141.5 -9q59.5 -9 97 -38.5q37.5 -29.5 55.5 -85.5q18 -56 18 -150v-144q0 -98 -18 -155q-18 -57 -55.5 -87q-37.5 -30 -97 -38.5q-59.5 -8.5 -141.5 -8.5q-83 0 -142 8.5q-59 8.5 -96.5 38.5q-37.5 30 -55.5 87q-18 57 -18 155v144q0 94 18 150q18 56 55.5 85.5q37.5 29.5 96.5 38.5q59 9 142 9zt0 0zM342 172q26 0 43 6q17 6 26.5 18.5q9.5 12.5 13 33.5q3.5 21 3.5 51v144q0 52 -17 77.5q-17 25.5 -69 25.5q-26 0 -43 -6.5q-17 -6.5 -26.5 -19q-9.5 -12.5 -13 -32q-3.5 -19.5 -3.5 -45.5v-144q0 -30 3.5 -51q3.5 -21 13 -33.5q9.5 -12.5 26.5 -18.5t43 -6z" />
<glyph unicode="&#49;" horiz-adv-x="403" d="M127 468q0 11 -1 21.5q-1 10.5 -5 18.5q-4 8 -12.5 13q-8.5 5 -23.5 5h-85v174h241q53 0 82.5 -30.5q29.5 -30.5 29.5 -83.5v-586l-226 0z" />
<glyph unicode="&#50;" horiz-adv-x="677" d="M129 0q-28 0 -47 11q-19 11 -30.5 29.5q-11.5 18.5 -16.5 41.5q-5 23 -5 47q0 10 1.5 28.5q1.5 18.5 7.5 38.5q6 20 18 38.5q12 18.5 34 30.5l295 156q23 12 29 29.5q6 17.5 6 30.5q0 30 -16 37.5q-16 7.5 -46 7.5h-288v174h406q49 0 81.5 -13q32.5 -13 52 -37q19.5 -24 28 -59.5q8.5 -35.5 8.5 -80.5q0 -52 -7.5 -87.5q-7.5 -35.5 -21 -59.5q-13.5 -24 -33 -39.5q-19.5 -15.5 -44.5 -27.5l-212 -105q-3 -2 -6.5 -4q-3.5 -2 -3.5 -6q0 -4 7 -4h308v-177l-505 0z" />
<glyph unicode="&#51;" horiz-adv-x="689" d="M30 166h320q38 0 57.5 12.5q19.5 12.5 19.5 42.5q0 30 -19.5 42q-19.5 12 -57.5 12h-303v154h293q30 0 50.5 13q20.5 13 20.5 43q0 30 -20.5 39.5q-20.5 9.5 -50.5 9.5h-302v166h436q165 0 165 -180q0 -34 -5 -61q-5 -27 -18 -47q-13 -20 -35 -33q-22 -13 -55 -18l0 -4q71 -6 102 -41q31 -35 31 -117q0 -45 -9 -81.5q-9 -36.5 -31 -63q-22 -26.5 -57.5 -40.5q-35.5 -14 -87.5 -14l-444 0z" />
<glyph unicode="&#52;" horiz-adv-x="769" d="M419 95h-314q-30 0 -48.5 12.5q-18.5 12.5 -29 32.5q-10.5 20 -14 45q-3.5 25 -3.5 51q0 31 4.5 53q4.5 22 12 38q7.5 16 17 27.5q9.5 11.5 20.5 21.5l319 287q9 8 21 16q12 8 28.5 14.5q16.5 6.5 38 10.5q21.5 4 49.5 4q22 0 45 -3.5q23 -3.5 41 -14.5q18 -11 29.5 -31q11.5 -20 11.5 -54v-326h102v-184h-104v-95h-226zM419 454q0 4 -4 4q-4 0 -6.5 -3.5q-2.5 -3.5 -6.5 -6.5l-169 -150q-2 -2 -4.5 -5q-2.5 -3 -2.5 -5q0 -3 2.5 -6q2.5 -3 10.5 -3l180 0z" />
<glyph unicode="&#53;" horiz-adv-x="682" d="M40 166h315q30 0 47.5 12.5q17.5 12.5 17.5 42.5q0 30 -17.5 42q-17.5 12 -47.5 12h-201q-68 0 -96 33q-28 33 -28 108v172q0 60 32 86q32 26 92 26h470v-166h-317q-23 0 -37 -11q-14 -11 -14 -41q0 -30 14 -41.5q14 -11.5 37 -11.5h163q52 0 87 -12.5q35 -12.5 56 -39q21 -26.5 30 -67.5q9 -41 9 -97q0 -56 -9 -96.5q-9 -40.5 -30 -66.5q-21 -26 -56 -38q-35 -12 -87 -12l-430 0z" />
<glyph unicode="&#54;" horiz-adv-x="682" d="M472 429q98 0 139 -48.5q41 -48.5 41 -149.5q0 -48 -7 -90.5q-7 -42.5 -27.5 -73.5q-20.5 -31 -56.5 -49q-36 -18 -94 -18h-263q-91 0 -132.5 48.5q-41.5 48.5 -41.5 139.5v327q0 91 41.5 138q41.5 47 132.5 47h412v-166h-293q-30 0 -48.5 -8q-18.5 -8 -18.5 -38v-59zM256 222q0 -30 11 -43q11 -13 41 -13h52q30 0 45 14.5q15 14.5 15 40.5q0 26 -15 40q-15 14 -45 14l-104 0z" />
<glyph unicode="&#55;" horiz-adv-x="583" d="M333 497q10 14 10 21q0 5 -5.5 6.5q-5.5 1.5 -19.5 1.5h-328v174h511q31 0 49.5 -9.5q18.5 -9.5 28 -23.5q9.5 -14 12 -31.5q2.5 -17.5 2.5 -32.5q0 -29 -6 -53q-6 -24 -23 -51l-306 -499l-250 0z" />
<glyph unicode="&#56;" horiz-adv-x="688" d="M395 700q64 0 110.5 -6.5q46.5 -6.5 77 -27q30.5 -20.5 45 -59q14.5 -38.5 14.5 -102.5q0 -60 -24 -97q-24 -37 -80 -48l0 -4q68 -10 94 -50.5q26 -40.5 26 -115.5q0 -60 -15 -97q-15 -37 -45 -58q-30 -21 -75 -28q-45 -7 -105 -7h-148q-53 0 -97 7q-44 7 -75.5 28q-31.5 21 -49.5 58q-18 37 -18 97q0 37 5 65.5q5 28.5 18.5 49q13.5 20.5 37 33q23.5 12.5 59.5 18.5l0 4q-53 8 -78.5 46.5q-25.5 38.5 -25.5 98.5q0 64 14.5 102.5q14.5 38.5 45 59q30.5 20.5 77 27q46.5 6.5 110.5 6.5zM360 430q30 0 40 14.5q10 14.5 10 37.5q0 23 -10 37.5q-10 14.5 -40 14.5h-32q-30 0 -40 -14.5q-10 -14.5 -10 -37.5q0 -23 10 -37.5q10 -14.5 40 -14.5zM363 166q30 0 46.5 13q16.5 13 16.5 43q0 30 -16.5 43q-16.5 13 -45.5 13h-40q-30 0 -46 -13q-16 -13 -16 -43q0 -30 16 -43q16 -13 46 -13z" />
<glyph unicode="&#57;" horiz-adv-x="682" d="M210 271q-98 0 -139 48.5q-41 48.5 -41 149.5q0 48 7 90.5q7 42.5 27.5 73.5q20.5 31 56.5 49q36 18 94 18h263q91 0 132.5 -48.5q41.5 -48.5 41.5 -139.5v-327q0 -91 -41.5 -138q-41.5 -47 -132.5 -47h-412v166h293q30 0 48.5 8q18.5 8 18.5 38v59zM426 478q0 30 -11 43q-11 13 -41 13h-52q-30 0 -45 -14.5q-15 -14.5 -15 -40.5q0 -26 15 -40q15 -14 45 -14l104 0z" />
<glyph unicode="&#58;" horiz-adv-x="298" d="M50 350v180h198v-180zM50 0v180h198l0 -180z" />
<glyph unicode="&#59;" horiz-adv-x="359" d="M0 -71l153 256l154 -92l-169 -246zM113 356v174h196l0 -174z" />
<glyph unicode="&#60;" horiz-adv-x="709" d="M659 627v-142l-363 -168l363 -168v-142l-609 310z" />
<glyph unicode="&#61;" horiz-adv-x="708" d="M50 151v130h608v-130zM50 355v130h608l0 -130z" />
<glyph unicode="&#62;" horiz-adv-x="709" d="M50 7v142l363 168l-363 168v142l609 -310z" />
<glyph unicode="&#63;" horiz-adv-x="510" d="M104 182h196v-182h-196zM104 241v35q0 45 20 69q20 24 55 48l31 21q15 10 24 18q9 8 14 16q5 8 6.5 17q1.5 9 1.5 20q0 30 -18.5 35.5q-18.5 5.5 -48.5 5.5h-179v174h313q82 0 119.5 -38q37.5 -38 37.5 -128q0 -70 -22.5 -109q-22.5 -39 -64.5 -67l-50 -34q-14 -9 -28.5 -26q-14.5 -17 -14.5 -40l0 -17z" />
<glyph unicode="&#64;" horiz-adv-x="984" d="M400 -189q-109 0 -177 27.5q-68 27.5 -106.5 83q-38.5 55.5 -52.5 139q-14 83.5 -14 196.5q0 112 14 196q14 84 52.5 139q38.5 55 107 82.5q68.5 27.5 177.5 27.5h176q109 0 178 -27q69 -27 109 -78q40 -51 55 -125q15 -74 15 -169q0 -45 -3 -98q-3 -53 -19.5 -98.5q-16.5 -45.5 -51.5 -75.5q-35 -30 -98 -30q-23 0 -45 5q-22 5 -41.5 15.5q-19.5 10.5 -33.5 27q-14 16.5 -20 40.5q-17 -30 -38.5 -47.5q-21.5 -17.5 -44 -26.5q-22.5 -9 -43.5 -11.5q-21 -2.5 -37 -2.5q-62 0 -102 19q-40 19 -63.5 53q-23.5 34 -33 81q-9.5 47 -9.5 103q0 56 10 104.5q10 48.5 34.5 84q24.5 35.5 66 56q41.5 20.5 105.5 20.5h138q22 0 40.5 -3q18.5 -3 32 -13q13.5 -10 20.5 -28q7 -18 7 -48v-237q0 -84 56 -84q20 0 30.5 16q10.5 16 15.5 43q5 27 6 62q1 35 1 73q0 69 -6.5 122q-6.5 53 -30 89.5q-23.5 36.5 -69 55q-45.5 18.5 -124.5 18.5h-184q-79 0 -124.5 -19.5q-45.5 -19.5 -69 -60q-23.5 -40.5 -30 -103q-6.5 -62.5 -6.5 -148.5q0 -86 6.5 -149q6.5 -63 30 -103.5q23.5 -40.5 69 -60q45.5 -19.5 124.5 -19.5h282v-114zM573 372q0 17 -11.5 24.5q-11.5 7.5 -29.5 7.5h-39q-34 0 -54.5 -10.5q-20.5 -10.5 -32 -29.5q-11.5 -19 -15.5 -46q-4 -27 -4 -61q0 -26 1.5 -51q1.5 -25 9 -44.5q7.5 -19.5 22.5 -31q15 -11.5 41 -11.5q26 0 47 11q21 11 35.5 29.5q14.5 18.5 22 43.5q7.5 25 7.5 54z" />
<glyph unicode="&#65;" horiz-adv-x="798" d="M239 623q8 19 19 35q11 16 29 27q18 11 44.5 17q26.5 6 67.5 6q25 0 48.5 -2.5q23.5 -2.5 44.5 -11q21 -8.5 38 -25.5q17 -17 29 -46l259 -623h-238l-55 144h-252l-55 -144h-238zM327 304h144l-63 177q-2 5 -4 10q-2 5 -5 5q-3 0 -5 -5q-2 -5 -4 -10z" />
<glyph unicode="&#66;" horiz-adv-x="775" d="M276 220q0 -30 10 -40q10 -10 40 -10h127q30 0 48 12q18 12 18 42q0 30 -18 41.5q-18 11.5 -48 11.5h-177zM276 431h168q30 0 45.5 10q15.5 10 15.5 40q0 30 -16 39.5q-16 9.5 -46 9.5h-127q-23 0 -31.5 -8.5q-8.5 -8.5 -8.5 -31.5zM624 356q37 -7 60.5 -20q23.5 -13 37 -33q13.5 -20 18.5 -46.5q5 -26.5 5 -60.5q0 -49 -8.5 -85.5q-8.5 -36.5 -30 -61q-21.5 -24.5 -58.5 -37q-37 -12.5 -93 -12.5h-395q-53 0 -81.5 28.5q-28.5 28.5 -28.5 81.5v480q0 53 28.5 81.5q28.5 28.5 81.5 28.5h375q105 0 149.5 -45.5q44.5 -45.5 44.5 -150.5q0 -26 -5.5 -50q-5.5 -24 -17.5 -43q-12 -19 -32 -32q-20 -13 -50 -19z" />
<glyph unicode="&#67;" horiz-adv-x="658" d="M336 0q-86 0 -144.5 21q-58.5 21 -94.5 64q-36 43 -51.5 109q-15.5 66 -15.5 156q0 90 15.5 156q15.5 66 51.5 109q36 43 94.5 64q58.5 21 144.5 21h296v-174h-180q-56 0 -93 -6.5q-37 -6.5 -58.5 -25.5q-21.5 -19 -30 -53.5q-8.5 -34.5 -8.5 -90.5q0 -56 8.5 -90.5q8.5 -34.5 30 -53.5q21.5 -19 58.5 -25.5q37 -6.5 93 -6.5h190l0 -174z" />
<glyph unicode="&#68;" horiz-adv-x="778" d="M160 0q-53 0 -81.5 28.5q-28.5 28.5 -28.5 81.5v480q0 53 28.5 81.5q28.5 28.5 81.5 28.5h292q86 0 143 -21q57 -21 91 -64q34 -43 48 -109q14 -66 14 -156q0 -90 -14 -156q-14 -66 -48 -109q-34 -43 -91 -64q-57 -21 -143 -21zM276 224q0 -27 11.5 -38.5q11.5 -11.5 38.5 -11.5h10q52 0 87 6.5q35 6.5 55.5 25.5q20.5 19 29 53.5q8.5 34.5 8.5 90.5q0 55 -9.5 89.5q-9.5 34.5 -31 53.5q-21.5 19 -56 26q-34.5 7 -83.5 7h-10q-27 0 -38.5 -11.5q-11.5 -11.5 -11.5 -38.5z" />
<glyph unicode="&#69;" horiz-adv-x="700" d="M666 530h-346q-44 0 -44 -44v-52h382v-154h-382v-66q0 -44 44 -44h350v-170h-510q-53 0 -81.5 28.5q-28.5 28.5 -28.5 81.5v480q0 53 28.5 81.5q28.5 28.5 81.5 28.5l506 0z" />
<glyph unicode="&#70;" horiz-adv-x="676" d="M50 0v590q0 53 28.5 81.5q28.5 28.5 81.5 28.5h506v-170h-346q-44 0 -44 -44v-52h305v-170h-305l0 -264z" />
<glyph unicode="&#71;" horiz-adv-x="760" d="M412 526q-41 0 -69.5 -8q-28.5 -8 -46.5 -27.5q-18 -19.5 -26 -54q-8 -34.5 -8 -86.5q0 -53 8 -87q8 -34 26 -53.5q18 -19.5 46.5 -27.5q28.5 -8 69.5 -8h48q44 0 44 44v152h226v-260q0 -53 -28.5 -81.5q-28.5 -28.5 -81.5 -28.5h-284q-86 0 -144.5 21q-58.5 21 -94.5 64q-36 43 -51.5 109q-15.5 66 -15.5 156q0 90 15.5 156q15.5 66 51.5 109q36 43 94.5 64q58.5 21 144.5 21h378l0 -174z" />
<glyph unicode="&#72;" horiz-adv-x="806" d="M756 0h-226v278h-254v-278h-226v700h226v-248h254v248l226 0z" />
<glyph unicode="&#73;" horiz-adv-x="326" d="M50 0v700h226l0 -700z" />
<glyph unicode="&#74;" horiz-adv-x="532" d="M0 174h96q45 0 75.5 8q30.5 8 49.5 27q19 19 27 49.5q8 30.5 8 75.5v366h226v-450q0 -56 -18 -102q-18 -46 -51 -79q-33 -33 -79 -51q-46 -18 -102 -18l-232 0z" />
<glyph unicode="&#75;" horiz-adv-x="803" d="M551 0l-212 271q-31 38 -31 88q0 20 5.5 41q5.5 21 16.5 36l188 264h268l-243 -289q-8 -9 -14.5 -22.5q-6.5 -13.5 -6.5 -27.5q0 -11 5.5 -23q5.5 -12 23.5 -32l272 -306zM50 700h226v-700l-226 0z" />
<glyph unicode="&#76;" horiz-adv-x="666" d="M160 0q-53 0 -81.5 28.5q-28.5 28.5 -28.5 81.5v590h226v-482q0 -44 44 -44h346l0 -174z" />
<glyph unicode="&#77;" horiz-adv-x="1072" d="M671 86q-6 -19 -14 -36q-8 -17 -22.5 -30q-14.5 -13 -38 -20.5q-23.5 -7.5 -60.5 -7.5q-37 0 -60.5 7.5q-23.5 7.5 -38 20.5q-14.5 13 -22.5 30q-8 17 -14 36l-108 338q-3 10 -6 17.5q-3 7.5 -7 7.5q-7 0 -8 -9q-1 -9 -1 -14l7 -426h-228v585q0 46 22 71q22 25 50.5 36.5q28.5 11.5 57 13.5q28.5 2 42.5 2q22 0 48 -3q26 -3 51 -14.5q25 -11.5 46 -35q21 -23.5 35 -63.5l113 -340q1 -3 3 -8q2 -5 5 -10.5q3 -5.5 6.5 -9.5q3.5 -4 6.5 -4q3 0 6.5 4q3.5 4 6.5 9.5q3 5.5 5 10.5q2 5 3 8l113 340q13 40 35 63q22 23 46.5 35q24.5 12 50.5 15q26 3 48 3q60 0 94 -13q34 -13 51.5 -32q17.5 -19 22 -40.5q4.5 -21.5 4.5 -37.5v-585h-228l8 426q0 7 -1.5 15q-1.5 8 -7.5 8q-3 0 -6 -5.5q-3 -5.5 -8 -19.5z" />
<glyph unicode="&#78;" horiz-adv-x="864" d="M814 117q0 -9 -3 -30q-3 -21 -18 -42q-15 -21 -45.5 -37q-30.5 -16 -85.5 -16q-20 0 -40 2q-20 2 -39.5 9q-19.5 7 -38 21q-18.5 14 -34.5 37l-253 357q-4 5 -9 11q-5 6 -10 6q-2 0 -8 -2.5q-6 -2.5 -6 -17.5v-415h-174v584q0 34 13 57.5q13 23.5 35 38.5q22 15 50.5 21.5q28.5 6.5 58.5 6.5q14 0 32.5 -1.5q18.5 -1.5 39 -8q20.5 -6.5 40.5 -19.5q20 -13 36 -36l255 -360q4 -5 8.5 -11q4.5 -6 10.5 -6q8 0 9.5 6.5q1.5 6.5 1.5 10.5v417l174 0z" />
<glyph unicode="&#79;" horiz-adv-x="830" d="M415 708q109 0 182.5 -14q73.5 -14 118.5 -53q45 -39 64.5 -109q19.5 -70 19.5 -182q0 -113 -19.5 -183q-19.5 -70 -64.5 -109q-45 -39 -118.5 -52.5q-73.5 -13.5 -182.5 -13.5q-109 0 -182.5 13.5q-73.5 13.5 -118.5 52.5q-45 39 -64.5 109q-19.5 70 -19.5 183q0 112 19.5 182q19.5 70 64.5 109q45 39 118.5 53q73.5 14 182.5 14zt0 0zM262 350q0 -49 7 -83.5q7 -34.5 24.5 -57q17.5 -22.5 47 -33q29.5 -10.5 74.5 -10.5q45 0 74.5 10.5q29.5 10.5 47 33q17.5 22.5 24.5 57q7 34.5 7 83.5q0 49 -7 83.5q-7 34.5 -24.5 57q-17.5 22.5 -47 33q-29.5 10.5 -74.5 10.5q-45 0 -74.5 -10.5q-29.5 -10.5 -47 -33q-17.5 -22.5 -24.5 -57t-7 -83.5z" />
<glyph unicode="&#80;" horiz-adv-x="787" d="M50 0v590q0 53 28.5 81.5q28.5 28.5 81.5 28.5h397q60 0 98.5 -16.5q38.5 -16.5 61 -48q22.5 -31.5 31.5 -77.5q9 -46 9 -106q0 -60 -9 -106.5q-9 -46.5 -31.5 -78.5q-22.5 -32 -61 -48.5q-38.5 -16.5 -98.5 -16.5h-281v-202zM435 376q45 0 67.5 15.5q22.5 15.5 22.5 60.5q0 45 -22.5 59.5q-22.5 14.5 -67.5 14.5h-115q-44 0 -44 -44l0 -106z" />
<glyph unicode="&#81;" horiz-adv-x="844" d="M415 708q109 0 182.5 -14q73.5 -14 118.5 -53q45 -39 64.5 -109q19.5 -70 19.5 -182q0 -107 -35 -180l0 -4l79 8v-174h-429q-109 0 -182.5 12.5q-73.5 12.5 -118.5 50q-45 37.5 -64.5 106q-19.5 68.5 -19.5 181.5q0 112 19.5 182q19.5 70 64.5 109q45 39 118.5 53q73.5 14 182.5 14zt0 0zM262 350q0 -49 7 -82.5q7 -33.5 24.5 -54.5q17.5 -21 47 -30q29.5 -9 74.5 -9q45 0 74.5 9q29.5 9 47 30q17.5 21 24.5 54.5q7 33.5 7 82.5q0 49 -7 83.5q-7 34.5 -24.5 57q-17.5 22.5 -47 33q-29.5 10.5 -74.5 10.5q-45 0 -74.5 -10.5q-29.5 -10.5 -47 -33q-17.5 -22.5 -24.5 -57t-7 -83.5z" />
<glyph unicode="&#82;" horiz-adv-x="789" d="M50 590q0 53 28.5 81.5q28.5 28.5 81.5 28.5h395q60 0 98.5 -16q38.5 -16 61 -46.5q22.5 -30.5 31.5 -75q9 -44.5 9 -100.5q0 -38 -4.5 -81.5q-4.5 -43.5 -21 -80.5q-16.5 -37 -47.5 -62q-31 -25 -83 -25h-30v-4l200 -209h-272l-135 182q-17 23 -32.5 44q-15.5 21 -15.5 51v15q0 45 28 62q28 17 73 17h34q45 0 62.5 17q17.5 17 17.5 62q0 45 -17.5 60.5q-17.5 15.5 -62.5 15.5h-129q-44 0 -44 -44v-482l-226 0z" />
<glyph unicode="&#83;" horiz-adv-x="702" d="M27 174h388q25 0 32 7q7 7 7 15q0 16 -14 23q-14 7 -31 12l-271 76q-34 9 -57 29q-23 20 -36.5 47.5q-13.5 27.5 -19 61q-5.5 33.5 -5.5 71.5q0 41 8.5 75q8.5 34 28 58q19.5 24 51 37.5q31.5 13.5 76.5 13.5h462v-174h-356q-15 0 -31.5 -3q-16.5 -3 -16.5 -19q0 -18 19.5 -26q19.5 -8 39.5 -13l236 -63q80 -21 112.5 -70q32.5 -49 32.5 -139q0 -45 -8.5 -81q-8.5 -36 -28 -60.5q-19.5 -24.5 -52 -38q-32.5 -13.5 -81.5 -13.5l-485 0z" />
<glyph unicode="&#84;" horiz-adv-x="726" d="M250 0v526h-250v174h726v-174h-250l0 -526z" />
<glyph unicode="&#85;" horiz-adv-x="794" d="M397 174q60 0 90.5 28q30.5 28 30.5 96v402h226v-420q0 -83 -23.5 -138q-23.5 -55 -67.5 -88.5q-44 -33.5 -109 -47.5q-65 -14 -147 -14q-83 0 -147.5 14q-64.5 14 -108.5 47.5q-44 33.5 -67.5 88.5q-23.5 55 -23.5 138v420h226v-402q0 -68 30.5 -96t90.5 -28z" />
<glyph unicode="&#86;" horiz-adv-x="798" d="M386 225q3 -9 7 -12q4 -3 6 -3q2 0 6 3q4 3 7 12l164 475h242l-243 -595q-9 -23 -22.5 -43.5q-13.5 -20.5 -33.5 -36q-20 -15.5 -49.5 -24.5q-29.5 -9 -70.5 -9q-41 0 -70.5 9q-29.5 9 -49.5 24.5q-20 15.5 -33.5 36q-13.5 20.5 -22.5 43.5l-243 595l242 0z" />
<glyph unicode="&#87;" horiz-adv-x="1168" d="M455 632q8 27 23.5 42q15.5 15 34 22.5q18.5 7.5 37.5 9.5q19 2 34 2q15 0 34 -2q19 -2 37.5 -9.5q18.5 -7.5 34 -22.5q15.5 -15 23.5 -42l105 -358q1 -4 4.5 -10.5q3.5 -6.5 6.5 -6.5q2 0 5.5 3.5q3.5 3.5 7.5 17.5l116 422h230l-171 -563q-14 -45 -29.5 -73q-15.5 -28 -36 -44q-20.5 -16 -46.5 -22q-26 -6 -60 -6q-40 0 -67 8.5q-27 8.5 -45.5 24q-18.5 15.5 -30 38q-11.5 22.5 -19.5 50.5l-89 304q-2 4 -4 11q-2 7 -6 7q-4 0 -6 -7q-2 -7 -4 -11l-89 -304q-8 -28 -19.5 -50.5q-11.5 -22.5 -30 -38q-18.5 -15.5 -45.5 -24q-27 -8.5 -67 -8.5q-33 0 -59 6q-26 6 -46.5 22q-20.5 16 -37 44.5q-16.5 28.5 -29.5 72.5l-171 563h230l116 -422q4 -14 7.5 -17.5q3.5 -3.5 5.5 -3.5q3 0 6.5 6.5q3.5 6.5 4.5 10.5z" />
<glyph unicode="&#88;" horiz-adv-x="746" d="M500 0l-127 197l-127 -197h-270l265 355l-257 345h270l119 -187l119 187h270l-257 -345l265 -355z" />
<glyph unicode="&#89;" horiz-adv-x="792" d="M570 700h242l-303 -506v-194h-226v194l-303 506h242l174 -302z" />
<glyph unicode="&#90;" horiz-adv-x="679" d="M130 0q-15 0 -36.5 1.5q-21.5 1.5 -41.5 10q-20 8.5 -34 27q-14 18.5 -14 53.5q0 26 6.5 48q6.5 22 17 39.5q10.5 17.5 22 31.5q11.5 14 22.5 24l278 265q4 3 7.5 7.5q3.5 4.5 3.5 10.5q0 8 -18 8h-308v174h543q18 0 35.5 -3.5q17.5 -3.5 31 -13.5q13.5 -10 22 -28q8.5 -18 8.5 -48q0 -26 -5 -44.5q-5 -18.5 -13 -33q-8 -14.5 -18.5 -26q-10.5 -11.5 -22.5 -22.5l-297 -283q-4 -4 -7 -6.5q-3 -2.5 -3 -7.5q0 -3 2 -6.5q2 -3.5 10 -3.5h347l0 -174z" />
<glyph unicode="&#91;" horiz-adv-x="411" d="M190 -34h191v-130h-331v872h331v-130l-191 0z" />
<glyph unicode="&#92;" horiz-adv-x="518" d="M-10 740h120l418 -910l-120 0z" />
<glyph unicode="&#93;" horiz-adv-x="411" d="M221 578h-191v130h331v-872h-331v130l191 0z" />
<glyph unicode="&#94;" horiz-adv-x="612" d="M344 622q-7 5 -18 10q-11 5 -18 5q-7 0 -18 -5q-11 -5 -18 -10l-151 -117l-71 82l193 147q12 9 30 15q18 6 33 6q15 0 33 -6q18 -6 30 -15l193 -147l-68 -82z" />
<glyph unicode="&#95;" horiz-adv-x="660" d="M0 -6h660v-158l-660 0z" />
<glyph unicode="&#96;" horiz-adv-x="339" d="M309 678l-87 -108l-192 158l87 109z" />
<glyph unicode="&#97;" horiz-adv-x="630" d="M412 530q83 0 131.5 -48.5q48.5 -48.5 48.5 -131.5v-240q0 -53 -28.5 -81.5q-28.5 -28.5 -81.5 -28.5h-328q-75 0 -102.5 42.5q-27.5 42.5 -27.5 125.5q0 37 6 67.5q6 30.5 21 52q15 21.5 40 33q25 11.5 63 11.5h242v10q0 26 -16 39q-16 13 -44 13h-276v136zM257 208q-15 0 -26 -11q-11 -11 -11 -29q0 -14 9 -26q9 -12 26 -12h101q23 0 31.5 8.5q8.5 8.5 8.5 31.5l0 38z" />
<glyph unicode="&#98;" horiz-adv-x="626" d="M148 0q-53 0 -81.5 28.5q-28.5 28.5 -28.5 81.5v590h196v-170h148q64 0 106 -19q42 -19 67.5 -53.5q25.5 -34.5 36 -83.5q10.5 -49 10.5 -109q0 -60 -10.5 -109q-10.5 -49 -36 -83.5q-25.5 -34.5 -67.5 -53.5q-42 -19 -106 -19zM234 190q0 -30 10 -40q10 -10 40 -10h36q28 0 44 10.5q16 10.5 24.5 28q8.5 17.5 11 40q2.5 22.5 2.5 46.5q0 19 -2.5 41q-2.5 22 -10.5 40.5q-8 18.5 -23.5 31q-15.5 12.5 -41.5 12.5l-90 0z" />
<glyph unicode="&#99;" horiz-adv-x="551" d="M244 0q-68 0 -110.5 18.5q-42.5 18.5 -67 53q-24.5 34.5 -33.5 83.5q-9 49 -9 109q0 60 9 109q9 49 33.5 84q24.5 35 67 54q42.5 19 110.5 19h284v-140h-194q-60 0 -85 -33q-25 -33 -25 -93q0 -60 25 -92q25 -32 85 -32h205l0 -140z" />
<glyph unicode="&#100;" horiz-adv-x="626" d="M244 0q-64 0 -106 19q-42 19 -67.5 53.5q-25.5 34.5 -36 83.5q-10.5 49 -10.5 109q0 60 10.5 109q10.5 49 36 83.5q25.5 34.5 67.5 53.5q42 19 106 19h148v170h196v-590q0 -53 -28.5 -81.5q-28.5 -28.5 -81.5 -28.5zM392 390h-90q-26 0 -41.5 -12.5q-15.5 -12.5 -23.5 -31q-8 -18.5 -10.5 -40.5q-2.5 -22 -2.5 -41q0 -24 2.5 -46.5q2.5 -22.5 11 -40q8.5 -17.5 24.5 -28q16 -10.5 44 -10.5h36q30 0 40 10q10 10 10 40z" />
<glyph unicode="&#101;" horiz-adv-x="617" d="M229 0q-64 0 -104 11q-40 11 -62.5 40.5q-22.5 29.5 -30.5 81.5q-8 52 -8 135q0 90 11 143q11 53 41.5 81q30.5 28 86.5 36q56 8 146 8q75 0 128.5 -5.5q53.5 -5.5 88 -27.5q34.5 -22 51 -65q16.5 -43 16.5 -118q0 -23 -3.5 -44q-3.5 -21 -12.5 -37.5q-9 -16.5 -25.5 -26.5q-16.5 -10 -42.5 -10h-289q0 -38 22 -52q22 -14 75 -14h257v-136zM365 326q12 0 18.5 3.5q6.5 3.5 9.5 9q3 5.5 3.5 11q0.5 5.5 0.5 9.5q0 14 -9.5 22.5q-9.5 8.5 -23 12.5q-13.5 4 -29 5q-15.5 1 -26.5 1q-19 0 -35 -2.5q-16 -2.5 -28 -10q-12 -7.5 -19 -22q-7 -14.5 -7 -39.5z" />
<glyph unicode="&#102;" horiz-adv-x="431" d="M83 0v390h-79v140h79q4 67 35.5 103q31.5 36 80 52.5q48.5 16.5 108.5 19.5q60 3 120 3l0 -122q-34 0 -61 -1q-27 -1 -46.5 -6q-19.5 -5 -30 -16.5q-10.5 -11.5 -10.5 -32.5l148 0v-140h-148l0 -390z" />
<glyph unicode="&#103;" horiz-adv-x="626" d="M478 530q53 0 81.5 -28.5q28.5 -28.5 28.5 -81.5v-370q0 -120 -55 -175q-55 -55 -175 -55h-297v128h241q32 0 56 8.5q24 8.5 34 43.5l-148 0q-64 0 -106 18.5q-42 18.5 -67.5 53q-25.5 34.5 -36 83.5q-10.5 49 -10.5 109q0 60 10.5 109q10.5 49 36 84q25.5 35 67.5 54q42 19 106 19zM392 340q0 30 -10 40q-10 10 -40 10h-36q-28 0 -44 -10.5q-16 -10.5 -24.5 -28.5q-8.5 -18 -11 -40.5q-2.5 -22.5 -2.5 -46.5q0 -19 2.5 -41q2.5 -22 10.5 -40.5q8 -18.5 23.5 -30.5q15.5 -12 41.5 -12l90 0z" />
<glyph unicode="&#104;" horiz-adv-x="642" d="M38 700h196v-170h150q49 0 89.5 -13q40.5 -13 69.5 -38.5q29 -25.5 45 -62.5q16 -37 16 -86v-330h-196v282q0 60 -25 85q-25 25 -85 25h-64v-392l-196 0z" />
<glyph unicode="&#105;" horiz-adv-x="272" d="M38 530h196v-530h-196zM38 573v127h196l0 -127z" />
<glyph unicode="&#106;" horiz-adv-x="344" d="M-40 -44q75 0 112.5 27.5q37.5 27.5 37.5 102.5v444h196v-490q0 -75 -23 -117q-23 -42 -67.5 -63q-44.5 -21 -109 -25.5q-64.5 -4.5 -146.5 -4.5zM110 583v117h196l0 -117z" />
<glyph unicode="&#107;" horiz-adv-x="643" d="M437 0l-144 190q-22 29 -26.5 50.5q-4.5 21.5 -4.5 34.5q0 29 9 46.5q9 17.5 23 36.5l121 172h212l-161 -211q-7 -8 -10.5 -19q-3.5 -11 -3.5 -19q0 -11 5.5 -24q5.5 -13 14.5 -24l185 -233zM38 0v700h196l0 -700z" />
<glyph unicode="&#108;" horiz-adv-x="272" d="M38 700h196v-700l-196 0z" />
<glyph unicode="&#109;" horiz-adv-x="876" d="M38 420q0 60 28.5 85q28.5 25 81.5 25h480q98 0 154 -51q56 -51 56 -149v-330h-196v280q0 60 -23 85q-23 25 -83 25l0 -390h-196v390h-66q-23 0 -31.5 -8.5q-8.5 -8.5 -8.5 -31.5v-350l-196 0z" />
<glyph unicode="&#110;" horiz-adv-x="642" d="M38 420q0 60 28.5 85q28.5 25 81.5 25h246q98 0 154 -51q56 -51 56 -149v-330h-196v280q0 60 -25 85q-25 25 -85 25h-24q-23 0 -31.5 -8.5q-8.5 -8.5 -8.5 -31.5v-350l-196 0z" />
<glyph unicode="&#111;" horiz-adv-x="660" d="M330 536q82 0 140.5 -11.5q58.5 -11.5 95 -41.5q36.5 -30 53.5 -83q17 -53 17 -135q0 -83 -17 -135.5q-17 -52.5 -53.5 -82.5q-36.5 -30 -95 -41.5q-58.5 -11.5 -140.5 -11.5q-83 0 -141 11.5q-58 11.5 -94.5 41.5q-36.5 30 -53.5 82.5q-17 52.5 -17 135.5q0 82 17 135q17 53 53.5 83q36.5 30 94.5 41.5q58 11.5 141 11.5zt0 0zM224 265q0 -30 4 -54q4 -24 15.5 -41.5q11.5 -17.5 32 -26.5q20.5 -9 54.5 -9q34 0 54.5 9q20.5 9 32 26.5q11.5 17.5 15.5 41.5q4 24 4 54q0 30 -4 54q-4 24 -15.5 41.5q-11.5 17.5 -32 26.5q-20.5 9 -54.5 9q-34 0 -54.5 -9q-20.5 -9 -32 -26.5q-11.5 -17.5 -15.5 -41.5t-4 -54z" />
<glyph unicode="&#112;" horiz-adv-x="626" d="M382 530q64 0 106 -19q42 -19 67.5 -53.5q25.5 -34.5 36 -83.5q10.5 -49 10.5 -109q0 -60 -10.5 -109q-10.5 -49 -36 -83.5q-25.5 -34.5 -67.5 -53.5q-42 -19 -106 -19h-148v-170h-196v590q0 53 28.5 81.5q28.5 28.5 81.5 28.5zM234 140h90q26 0 41.5 12.5q15.5 12.5 23.5 31q8 18.5 10.5 40.5q2.5 22 2.5 41q0 24 -2.5 46.5q-2.5 22.5 -11 40q-8.5 17.5 -24.5 28q-16 10.5 -44 10.5h-36q-30 0 -40 -10q-10 -10 -10 -40z" />
<glyph unicode="&#113;" horiz-adv-x="626" d="M478 530q53 0 81.5 -28.5q28.5 -28.5 28.5 -81.5v-590h-196v170h-148q-64 0 -106 19q-42 19 -67.5 53.5q-25.5 34.5 -36 83.5q-10.5 49 -10.5 109q0 60 10.5 109q10.5 49 36 83.5q25.5 34.5 67.5 53.5q42 19 106 19zM392 340q0 30 -10 40q-10 10 -40 10h-36q-28 0 -44 -10.5q-16 -10.5 -24.5 -28q-8.5 -17.5 -11 -40q-2.5 -22.5 -2.5 -46.5q0 -19 2.5 -41q2.5 -22 10.5 -40.5q8 -18.5 23.5 -31q15.5 -12.5 41.5 -12.5l90 0z" />
<glyph unicode="&#114;" horiz-adv-x="431" d="M38 310q0 64 16.5 106q16.5 42 49.5 67.5q33 25.5 81.5 36q48.5 10.5 112.5 10.5h129v-138h-73q-68 0 -94 -36q-26 -36 -26 -104v-252l-196 0z" />
<glyph unicode="&#115;" horiz-adv-x="552" d="M24 142h289q5 0 11 3q6 3 6 11q0 6 -8.5 11q-8.5 5 -20 9q-11.5 4 -23 7.5q-11.5 3.5 -17.5 5.5l-114 37q-30 10 -54 22q-24 12 -40.5 30q-16.5 18 -25.5 43.5q-9 25.5 -9 63.5q0 75 36 110q36 35 104 35h362v-136h-288q-6 0 -19 -1.5q-13 -1.5 -13 -8.5q0 -11 16.5 -16q16.5 -5 34.5 -11l134 -45q33 -11 60.5 -24q27.5 -13 47 -32q19.5 -19 30.5 -47q11 -28 11 -69q0 -75 -36 -107.5q-36 -32.5 -104 -32.5l-370 0z" />
<glyph unicode="&#116;" horiz-adv-x="430" d="M279 0q-41 0 -77.5 10q-36.5 10 -63.5 31.5q-27 21.5 -43 55.5q-16 34 -16 83v210h-75v140h75v170h196v-170h151v-140h-151v-120q0 -30 6 -54q6 -24 20 -41q14 -17 37 -26q23 -9 57 -9h31l0 -140z" />
<glyph unicode="&#117;" horiz-adv-x="650" d="M612 110q0 -60 -28.5 -85q-28.5 -25 -81.5 -25h-254q-98 0 -154 51q-56 51 -56 149v330h196v-282q0 -60 25 -85q25 -25 85 -25h32q23 0 31.5 8.5q8.5 8.5 8.5 31.5v352l196 0z" />
<glyph unicode="&#118;" horiz-adv-x="648" d="M311 224q2 -5 5 -11.5q3 -6.5 8 -6.5q5 0 8 6.5q3 6.5 5 11.5l121 306h204l-224 -488q-8 -17 -20.5 -26.5q-12.5 -9.5 -28 -14q-15.5 -4.5 -32.5 -6q-17 -1.5 -33 -1.5q-16 0 -33 1.5q-17 1.5 -32.5 6q-15.5 4.5 -28.5 14q-13 9.5 -20 26.5l-224 488l204 0z" />
<glyph unicode="&#119;" horiz-adv-x="922" d="M252 225q1 -3 3.5 -9.5q2.5 -6.5 6.5 -6.5q4 0 6 6.5q2 6.5 3 8.5l78 256q3 9 8.5 18.5q5.5 9.5 18 18q12.5 8.5 33 14q20.5 5.5 52.5 5.5q32 0 52.5 -5.5q20.5 -5.5 33 -14q12.5 -8.5 18 -18q5.5 -9.5 8.5 -18.5l78 -256q1 -2 3 -8.5q2 -6.5 6 -6.5q4 0 6.5 6.5q2.5 6.5 3.5 9.5l80 305h186l-121 -430q-6 -22 -15 -41.5q-9 -19.5 -24.5 -33.5q-15.5 -14 -39.5 -22.5q-24 -8.5 -61 -8.5q-36 0 -60.5 6.5q-24.5 6.5 -40 17.5q-15.5 11 -23.5 25q-8 14 -12 28l-70 231q-2 5 -3.5 10.5q-1.5 5.5 -4.5 5.5q-3 0 -4.5 -5.5q-1.5 -5.5 -3.5 -10.5l-70 -231q-4 -14 -12 -28q-8 -14 -23.5 -25q-15.5 -11 -40 -17.5q-24.5 -6.5 -60.5 -6.5q-37 0 -61 8.5q-24 8.5 -39.5 22.5q-15.5 14 -24.5 33.5q-9 19.5 -15 41.5l-121 430l186 0z" />
<glyph unicode="&#120;" horiz-adv-x="612" d="M404 0l-98 150l-98 -150h-228l211 272l-194 258h223l86 -136l86 136h223l-194 -258l211 -272z" />
<glyph unicode="&#121;" horiz-adv-x="641" d="M345 -171h-196l83 171l-252 530h200l139 -336l146 336l196 0z" />
<glyph unicode="&#122;" horiz-adv-x="556" d="M97 0q-38 0 -62.5 27q-24.5 27 -24.5 75q0 39 13 62q13 23 36 41l229 175q8 6 8 9q0 5 -10 5h-257v136h419q44 0 71 -24.5q27 -24.5 27 -72.5q0 -44 -15 -68q-15 -24 -33 -38l-222 -170q-8 -6 -8 -11q0 -2 1.5 -3q1.5 -1 7.5 -1h260v-142l-440 0z" />
<glyph unicode="&#123;" horiz-adv-x="329" d="M151 280q18 -6 28 -16.5q10 -10.5 15.5 -23.5q5.5 -13 6.5 -27q1 -14 1 -27v-110q0 -45 26 -63.5q26 -18.5 71 -18.5l0 -130q-64 1 -109 10.5q-45 9.5 -73.5 34q-28.5 24.5 -41.5 67q-13 42.5 -13 110.5v79q0 26 -13 45q-13 19 -39 21l0 106q26 2 39 21q13 19 13 45v79q0 67 13 110.5q13 43.5 41.5 68q28.5 24.5 73.5 34q45 9.5 109 9.5l0 -130q-45 0 -71 -18.5q-26 -18.5 -26 -63.5v-110q0 -13 -1 -27q-1 -14 -6.5 -27q-5.5 -13 -15.5 -23.5q-10 -10.5 -28 -16.5z" />
<glyph unicode="&#124;" horiz-adv-x="200" d="M40 740h120v-910l-120 0z" />
<glyph unicode="&#125;" horiz-adv-x="329" d="M178 288q-18 6 -28 16.5q-10 10.5 -15.5 23.5q-5.5 13 -6.5 27q-1 14 -1 27v110q0 45 -26 63.5q-26 18.5 -71 18.5l0 130q64 0 109 -9.5q45 -9.5 73.5 -34q28.5 -24.5 41.5 -68q13 -43.5 13 -110.5v-79q0 -26 13 -45q13 -19 39 -21l0 -106q-26 -2 -39 -21q-13 -19 -13 -45v-79q0 -68 -13 -110.5q-13 -42.5 -41.5 -67q-28.5 -24.5 -73.5 -34q-45 -9.5 -109 -10.5l0 130q45 0 71 18.5q26 18.5 26 63.5v110q0 13 1 27q1 14 6.5 27q5.5 13 15.5 23.5q10 10.5 28 16.5z" />
<glyph unicode="&#126;" horiz-adv-x="644" d="M50 399q14 20 32.5 38.5q18.5 18.5 39.5 33q21 14.5 45.5 23q24.5 8.5 50.5 8.5q22 0 41 -5q19 -5 33 -11l55 -23q13 -5 27.5 -9.5q14.5 -4.5 35.5 -4.5q33 0 57 16.5q24 16.5 47 49.5l80 -66q-15 -23 -34.5 -43.5q-19.5 -20.5 -43 -36.5q-23.5 -16 -50 -25q-26.5 -9 -56.5 -9q-25 0 -44.5 6q-19.5 6 -33.5 12l-47 21q-6 3 -21 7q-15 4 -40 4q-30 0 -52 -16q-22 -16 -42 -39z" />
<glyph unicode="&#160;" horiz-adv-x="233" />
<glyph unicode="&#161;" horiz-adv-x="328" d="M262 700v-182h-196v182zM278 0h-228l20 459l188 0z" />
<glyph unicode="&#162;" horiz-adv-x="555" d="M272 -70v70h-22q-68 0 -110.5 18.5q-42.5 18.5 -67 53q-24.5 34.5 -33.5 83.5q-9 49 -9 109q0 60 9 109q9 49 33.5 84q24.5 35 67 54q42.5 19 110.5 19h22v70h95v-70h167v-140h-194q-60 0 -85 -33q-25 -33 -25 -93q0 -60 25 -92q25 -32 85 -32h205v-140h-178l0 -70z" />
<glyph unicode="&#163;" horiz-adv-x="723" d="M213 0q-53 0 -81.5 28.5q-28.5 28.5 -28.5 81.5v239h-73v92h73q0 71 11 120.5q11 49.5 38 80q27 30.5 73.5 44.5q46.5 14 117.5 14h185v-174h-119q-26 0 -42 -3.5q-16 -3.5 -24.5 -13q-8.5 -9.5 -11 -26q-2.5 -16.5 -2.5 -42.5l199 0v-92h-199v-132q0 -43 44 -43h350l0 -174z" />
<glyph unicode="&#164;" horiz-adv-x="706" d="M84 304q0 29 8 67q8 38 34 78l-76 76l86 87l76 -76q23 15 58 28q35 13 84 13q52 0 87 -14q35 -14 54 -26l75 75l86 -87l-74 -75q25 -37 33.5 -74q8.5 -37 8.5 -69q0 -31 -8.5 -67.5q-8.5 -36.5 -33.5 -73.5l74 -75l-86 -86l-74 74q-37 -25 -74 -33.5q-37 -8.5 -68 -8.5q-30 0 -67 8.5q-37 8.5 -75 34.5l-76 -75l-86 86l74 75q-11 16 -25.5 50q-14.5 34 -14.5 88zt0 0zM255 307q0 -20 7.5 -37.5q7.5 -17.5 21 -31.5q13.5 -14 31.5 -22q18 -8 39 -8q20 0 38 8q18 8 31.5 21.5q13.5 13.5 21.5 31.5q8 18 8 38q0 21 -8 39q-8 18 -22 31.5q-14 13.5 -32 21q-18 7.5 -37 7.5q-42 0 -70.5 -28.5t-28.5 -70.5z" />
<glyph unicode="&#165;" horiz-adv-x="712" d="M512 303l-43 -75v-14h203v-108h-203v-106h-226v106h-203v108h203v14l-43 75h-160v108h97l-167 289h242l144 -272l144 272h242l-167 -289h97l0 -108z" />
<glyph unicode="&#166;" horiz-adv-x="200" d="M40 237h120v-300h-120zM40 740h120v-300l-120 0z" />
<glyph unicode="&#167;" horiz-adv-x="526" d="M79 -30h147q22 0 39.5 2q17.5 2 17.5 16q0 7 -8.5 14q-8.5 7 -26.5 23l-168 141q-17 15 -33.5 40.5q-16.5 25.5 -16.5 69.5q0 62 35 102q35 40 97 48l-67 56q-27 23 -36.5 50q-9.5 27 -9.5 50q0 65 39 91.5q39 26.5 107 26.5h251v-140h-170q-26 0 -30.5 -3q-4.5 -3 -4.5 -10q0 -5 6 -11q6 -6 24 -21l170 -143q10 -8 19.5 -18.5q9.5 -10.5 17.5 -24.5q8 -14 13 -32.5q5 -18.5 5 -43.5q0 -63 -37.5 -100q-37.5 -37 -101.5 -39l59 -51q37 -32 48.5 -63q11.5 -31 11.5 -53q0 -34 -11.5 -56.5q-11.5 -22.5 -31.5 -36q-20 -13.5 -48 -19q-28 -5.5 -61 -5.5h-245zM250 208q16 0 31 2q15 2 27 7q12 5 19 13.5q7 8.5 7 20.5q0 20 -9 32.5q-9 12.5 -19 20.5l-38 28q-34 0 -55 -10q-21 -10 -21 -36q0 -20 9 -33.5q9 -13.5 22 -23.5z" />
<glyph unicode="&#168;" horiz-adv-x="534" d="M311 718h173v-128h-173zM50 590v128h173l0 -128z" />
<glyph unicode="&#169;" horiz-adv-x="808" d="M404 708q94 0 161 -20.5q67 -20.5 110 -64q43 -43.5 63 -111q20 -67.5 20 -161.5q0 -94 -20 -161.5q-20 -67.5 -63 -111.5q-43 -44 -110 -65q-67 -21 -161 -21q-94 0 -161 21q-67 21 -110 65q-43 44 -63 111.5q-20 67.5 -20 161.5q0 94 20 161.5q20 67.5 63 111q43 43.5 110 64q67 20.5 161 20.5zt0 0zM165 351q0 -68 12 -116q12 -48 40 -79.5q28 -31.5 73.5 -46q45.5 -14.5 113.5 -14.5q67 0 113 14.5q46 14.5 74 46q28 31.5 40 79.5q12 48 12 116q0 67 -12 115.5q-12 48.5 -40 79q-28 30.5 -74 45q-46 14.5 -113 14.5q-68 0 -113.5 -14.5q-45.5 -14.5 -73.5 -45q-28 -30.5 -40 -79q-12 -48.5 -12 -115.5zt0 0zM383 177q-44 0 -72 13.5q-28 13.5 -44 37.5q-16 24 -22 56q-6 32 -6 70q0 37 6 70q6 33 22.5 57.5q16.5 24.5 45 38.5q28.5 14 73.5 14h152v-100h-86q-45 0 -59 -17.5q-14 -17.5 -14 -62.5q0 -45 13 -61q13 -16 52 -16h107l0 -100z" />
<glyph unicode="&#170;" horiz-adv-x="440" d="M282 704q57 0 82.5 -31.5q25.5 -31.5 25.5 -85.5v-133q0 -31 -12 -49.5q-12 -18.5 -57 -18.5h-187q-46 0 -65 23.5q-19 23.5 -19 76.5q0 53 19 76.5q19 23.5 65 23.5h139v5q0 16 -9 25q-9 9 -33 9h-160v79zM188 511q-11 0 -16 -4q-5 -4 -5 -16q0 -12 5 -16q5 -4 16 -4h61q10 0 17 3q7 3 7 17v20zM54 310h332v-80l-332 0z" />
<glyph unicode="&#171;" horiz-adv-x="636" d="M248 313q-11 -14 -11 -32q0 -18 11 -32l97 -139l-124 -96l-145 189q-14 17 -20 35.5q-6 18.5 -6 42.5q0 24 6 42.5q6 18.5 20 35.5l145 189l124 -96zM532 305q-4 -5 -7.5 -11q-3.5 -6 -3.5 -13q0 -7 3.5 -13q3.5 -6 7.5 -11l54 -77l-128 -96l-102 133q-18 24 -24 39q-6 15 -6 25q0 10 6 25q6 15 24 39l102 133l128 -96z" />
<glyph unicode="&#172;" horiz-adv-x="708" d="M658 101h-140v158h-468v130l608 0z" />
<glyph unicode="&#173;" horiz-adv-x="487" d="M30 347h427v-158l-427 0z" />
<glyph unicode="&#174;" horiz-adv-x="534" d="M267 275q-56 0 -97 11.5q-41 11.5 -67.5 37q-26.5 25.5 -39.5 67q-13 41.5 -13 101.5q0 60 13 101q13 41 39.5 66q26.5 25 67.5 36q41 11 97 11q56 0 97 -11q41 -11 67.5 -36q26.5 -25 39.5 -66q13 -41 13 -101q0 -60 -13 -101.5q-13 -41.5 -39.5 -67q-26.5 -25.5 -67.5 -37q-41 -11.5 -97 -11.5zt0 0zM267 337q45 0 74 7.5q29 7.5 46 25q17 17.5 23.5 46.5q6.5 29 6.5 72q0 47 -6.5 77.5q-6.5 30.5 -23.5 48q-17 17.5 -46 24q-29 6.5 -74 6.5q-45 0 -74 -6.5q-29 -6.5 -46 -23.5q-17 -17 -23.5 -46q-6.5 -29 -6.5 -74q0 -45 6.5 -75q6.5 -30 23.5 -48.5q17 -18.5 46 -26q29 -7.5 74 -7.5zt0 0zM155 389v187q0 20 8.5 24.5q8.5 4.5 38.5 4.5h98q21 0 35.5 -2.5q14.5 -2.5 23.5 -10.5q9 -8 13 -23q4 -15 4 -40q0 -11 -1 -23.5q-1 -12.5 -6 -24q-5 -11.5 -14.5 -19q-9.5 -7.5 -25.5 -7.5h-11l62 -66h-86l-38 52q-6 8 -10 14.5q-4 6.5 -4 19.5q0 14 5 23q5 9 21 9h12q8 0 16 2q8 2 8 15v11q0 14 -8.5 16q-8.5 2 -19.5 2h-31q-14 0 -17 -4q-3 -4 -3 -18l0 -142z" />
<glyph unicode="&#175;" horiz-adv-x="349" d="M30 596v110h289l0 -110z" />
<glyph unicode="&#176;" horiz-adv-x="298" d="M30 649q0 25 9.5 46.5q9.5 21.5 25.5 37.5q16 16 37.5 25.5q21.5 9.5 46.5 9.5q25 0 46.5 -9.5q21.5 -9.5 37.5 -25.5q16 -16 25.5 -37.5q9.5 -21.5 9.5 -46.5q0 -25 -9.5 -46.5q-9.5 -21.5 -25.5 -37.5q-16 -16 -37.5 -25.5q-21.5 -9.5 -46.5 -9.5q-25 0 -46.5 9.5q-21.5 9.5 -37.5 25.5q-16 16 -25.5 37.5q-9.5 21.5 -9.5 46.5zt0 0zM90 649q0 -25 17 -42q17 -17 42 -17q25 0 42 17q17 17 17 42q0 25 -17 42q-17 17 -42 17q-25 0 -42 -17t-17 -42z" />
<glyph unicode="&#177;" horiz-adv-x="708" d="M286 172v205h-236v130h236v205h136v-205h236v-130h-236v-205zM50 -20v130h608l0 -130z" />
<glyph unicode="&#178;" horiz-adv-x="457" d="M108 295q-32 0 -45 23.5q-13 23.5 -13 52.5q0 19 6.5 42q6.5 23 30.5 36l169 91q14 8 17.5 18q3.5 10 3.5 17q0 16 -11.5 22q-11.5 6 -30.5 6h-161v97h243q30 0 47.5 -10q17.5 -10 27 -26q9.5 -16 12.5 -35.5q3 -19.5 3 -37.5q0 -35 -5.5 -56q-5.5 -21 -14.5 -34q-9 -13 -20 -20q-11 -7 -22 -13l-122 -63q-6 -3 -6 -6q0 -2 4 -2h178v-102l-291 0z" />
<glyph unicode="&#179;" horiz-adv-x="461" d="M50 395h183q20 0 32.5 4q12.5 4 12.5 29q0 22 -12.5 25.5q-12.5 3.5 -31.5 3.5h-175v89h168q16 0 28.5 4q12.5 4 12.5 27q0 20 -13 23.5q-13 3.5 -27 3.5h-174v96h247q53 0 76 -24.5q23 -24.5 23 -77.5q0 -38 -13.5 -60q-13.5 -22 -51.5 -30l0 -4q76 -4 76 -92q0 -53 -23 -85q-23 -32 -83 -32l-255 0z" />
<glyph unicode="&#180;" horiz-adv-x="339" d="M309 728l-192 -158l-87 108l192 159z" />
<glyph unicode="&#181;" horiz-adv-x="670" d="M50 530h197v-300q0 -40 21 -68q21 -28 66 -28q38 0 63.5 26.5q25.5 26.5 25.5 66.5v303h197v-530h-187v73q-12 -38 -39.5 -58.5q-27.5 -20.5 -60.5 -20.5q-35 0 -60.5 20q-25.5 20 -35.5 52l0 -243l-187 0z" />
<glyph unicode="&#182;" horiz-adv-x="742" d="M511 -170v740h-62v-740h-136v459h-65q-56 0 -94 14.5q-38 14.5 -61 41.5q-23 27 -33 65q-10 38 -10 85q0 45 10 82.5q10 37.5 33 65q23 27.5 61 42.5q38 15 94 15h464v-130h-65v-740zM313 570h-49q-74 0 -74 -75q0 -76 74 -76l49 0z" />
<glyph unicode="&#183;" horiz-adv-x="298" d="M50 250v180h198l0 -180z" />
<glyph unicode="&#184;" horiz-adv-x="244" d="M30 -130h69q9 0 15 3q6 3 6 11q0 11 -9 13q-9 2 -15 2h-30q-20 0 -27.5 9q-7.5 9 -7.5 20q0 6 1.5 11.5q1.5 5.5 3.5 9.5l24 51h76l-11 -23q-3 -6 -3 -7q0 -4 3 -4.5q3 -0.5 5 -0.5h9q38 0 56.5 -18.5q18.5 -18.5 18.5 -63.5q0 -45 -27.5 -64q-27.5 -19 -72.5 -19l-84 0z" />
<glyph unicode="&#185;" horiz-adv-x="261" d="M83 571q0 30 -30 30h-43v99h131q38 0 54 -16q16 -16 16 -54v-335l-128 0z" />
<glyph unicode="&#186;" horiz-adv-x="441" d="M221 708q90 0 130 -38.5q40 -38.5 40 -131.5q0 -93 -40 -131q-40 -38 -130 -38q-90 0 -130.5 38q-40.5 38 -40.5 131q0 93 40.5 131.5q40.5 38.5 130.5 38.5zt0 0zM138 538q0 -48 17.5 -68q17.5 -20 65.5 -20q48 0 65 20q17 20 17 68q0 48 -17 68.5q-17 20.5 -65 20.5q-48 0 -65.5 -20.5q-17.5 -20.5 -17.5 -68.5zt0 0zM54 310h333v-80l-333 0z" />
<glyph unicode="&#187;" horiz-adv-x="636" d="M415 548l145 -189q14 -17 20 -35.5q6 -18.5 6 -42.5q0 -24 -6 -42.5q-6 -18.5 -20 -35.5l-145 -189l-124 96l97 139q11 14 11 32q0 18 -11 32l-97 139zM178 478l102 -133q18 -24 24 -39q6 -15 6 -25q0 -10 -6 -25q-6 -15 -24 -39l-102 -133l-128 96l54 77q4 5 7.5 11q3.5 6 3.5 13q0 7 -3.5 13q-3.5 6 -7.5 11l-54 77z" />
<glyph unicode="&#188;" horiz-adv-x="874" d="M539 700h104l-406 -700h-104zM638 57h-178q-19 0 -30.5 7q-11.5 7 -18 18.5q-6.5 11.5 -8.5 26q-2 14.5 -2 29.5q0 32 8.5 50q8.5 18 22.5 31l184 165q10 8 27.5 17q17.5 9 51.5 9q13 0 26 -1.5q13 -1.5 23 -8.5q10 -7 16 -20q6 -13 6 -35v-183h58v-105h-58v-57h-128zM638 263q0 3 -2 3q-3 0 -9 -6l-96 -86q-2 -2 -3.5 -3.5q-1.5 -1.5 -1.5 -3.5q0 -5 7 -5h105zM123 571q0 30 -30 30h-43v99h131q38 0 54 -16q16 -16 16 -54v-335l-128 0z" />
<glyph unicode="&#189;" horiz-adv-x="910" d="M539 700h104l-406 -700h-104zM123 571q0 30 -30 30h-43v99h131q38 0 54 -16q16 -16 16 -54v-335h-128zM561 0q-32 0 -45 23.5q-13 23.5 -13 52.5q0 19 6.5 42q6.5 23 30.5 36l169 91q14 8 17.5 18q3.5 10 3.5 17q0 16 -11.5 22q-11.5 6 -30.5 6h-161v97h243q30 0 47.5 -10q17.5 -10 27 -26q9.5 -16 12.5 -35.5q3 -19.5 3 -37.5q0 -35 -5.5 -56q-5.5 -21 -14.5 -34q-9 -13 -20 -20q-11 -7 -22 -13l-122 -63q-6 -3 -6 -6q0 -2 4 -2h178l0 -102z" />
<glyph unicode="&#190;" horiz-adv-x="1002" d="M667 700h104l-406 -700h-104zM50 395h183q20 0 32.5 4q12.5 4 12.5 29q0 22 -12.5 25.5q-12.5 3.5 -31.5 3.5h-175v89h168q16 0 28.5 4q12.5 4 12.5 27q0 20 -13 23.5q-13 3.5 -27 3.5h-174v96h247q53 0 76 -24.5q23 -24.5 23 -77.5q0 -38 -13.5 -60q-13.5 -22 -51.5 -30l0 -4q76 -4 76 -92q0 -53 -23 -85q-23 -32 -83 -32h-255zM766 57h-178q-19 0 -30.5 7q-11.5 7 -18 18.5q-6.5 11.5 -8.5 26q-2 14.5 -2 29.5q0 32 8.5 50q8.5 18 22.5 31l184 165q10 8 27.5 17q17.5 9 51.5 9q13 0 26 -1.5q13 -1.5 23 -8.5q10 -7 16 -20q6 -13 6 -35v-183h58v-105h-58v-57h-128zM766 263q0 3 -2 3q-3 0 -9 -6l-96 -86q-2 -2 -3.5 -3.5q-1.5 -1.5 -1.5 -3.5q0 -5 7 -5l105 0z" />
<glyph unicode="&#191;" horiz-adv-x="510" d="M406 518h-196v182h196zM406 459v-35q0 -45 -20 -69q-20 -24 -55 -48l-31 -21q-30 -20 -38 -34.5q-8 -14.5 -8 -36.5q0 -30 18.5 -35.5q18.5 -5.5 48.5 -5.5h179v-174h-313q-83 0 -120 38q-37 38 -37 128q0 70 22.5 109q22.5 39 64.5 67l50 34q14 9 28.5 26q14.5 17 14.5 40l0 17z" />
<glyph unicode="&#192;" horiz-adv-x="798" d="M239 623q8 19 19 35q11 16 29 27q18 11 44.5 17q26.5 6 67.5 6q25 0 48.5 -2.5q23.5 -2.5 44.5 -11q21 -8.5 38 -25.5q17 -17 29 -46l259 -623h-238l-55 144h-252l-55 -144h-238zM327 304h144l-63 177q-2 5 -4 10q-2 5 -5 5q-3 0 -5 -5q-2 -5 -4 -10zM538 848l-87 -108l-192 158l87 109z" />
<glyph unicode="&#193;" horiz-adv-x="798" d="M239 623q8 19 19 35q11 16 29 27q18 11 44.5 17q26.5 6 67.5 6q25 0 48.5 -2.5q23.5 -2.5 44.5 -11q21 -8.5 38 -25.5q17 -17 29 -46l259 -623h-238l-55 144h-252l-55 -144h-238zM327 304h144l-63 177q-2 5 -4 10q-2 5 -5 5q-3 0 -5 -5q-2 -5 -4 -10zM538 898l-192 -158l-87 108l192 159z" />
<glyph unicode="&#194;" horiz-adv-x="798" d="M239 623q8 19 19 35q11 16 29 27q18 11 44.5 17q26.5 6 67.5 6q25 0 48.5 -2.5q23.5 -2.5 44.5 -11q21 -8.5 38 -25.5q17 -17 29 -46l259 -623h-238l-55 144h-252l-55 -144h-238zM327 304h144l-63 177q-2 5 -4 10q-2 5 -5 5q-3 0 -5 -5q-2 -5 -4 -10zM429 835q-6 5 -13 8.5q-7 3.5 -16 3.5q-13 0 -29 -12l-119 -95l-62 89l159 120q10 8 21.5 12.5q11.5 4.5 28.5 4.5q17 0 28.5 -4.5q11.5 -4.5 21.5 -12.5l159 -120l-60 -89z" />
<glyph unicode="&#195;" horiz-adv-x="798" d="M239 623q8 19 19 35q11 16 29 27q18 11 44.5 17q26.5 6 67.5 6q25 0 48.5 -2.5q23.5 -2.5 44.5 -11q21 -8.5 38 -25.5q17 -17 29 -46l259 -623h-238l-55 144h-252l-55 -144h-238zM327 304h144l-63 177q-2 5 -4 10q-2 5 -5 5q-3 0 -5 -5q-2 -5 -4 -10zM169 810q26 37 64.5 66q38.5 29 88.5 29q27 0 52 -11l44 -21q28 -14 43 -17q15 -3 22 -3q26 0 45 19.5q19 19.5 32 39.5l68 -62q-14 -20 -30 -38.5q-16 -18.5 -34.5 -33q-18.5 -14.5 -41 -23.5q-22.5 -9 -49.5 -9q-23 0 -39 4.5q-16 4.5 -27 9.5l-42 21q-8 5 -21 9.5q-13 4.5 -30 4.5q-25 0 -42.5 -15.5q-17.5 -15.5 -34.5 -35.5z" />
<glyph unicode="&#196;" horiz-adv-x="798" d="M239 623q8 19 19 35q11 16 29 27q18 11 44.5 17q26.5 6 67.5 6q25 0 48.5 -2.5q23.5 -2.5 44.5 -11q21 -8.5 38 -25.5q17 -17 29 -46l259 -623h-238l-55 144h-252l-55 -144h-238zM327 304h144l-63 177q-2 5 -4 10q-2 5 -5 5q-3 0 -5 -5q-2 -5 -4 -10zM442 766v129h182v-129zM174 766v129h183l0 -129z" />
<glyph unicode="&#197;" horiz-adv-x="798" d="M239 623q8 19 19 35q11 16 29 27q18 11 44.5 17q26.5 6 67.5 6q25 0 48.5 -2.5q23.5 -2.5 44.5 -11q21 -8.5 38 -25.5q17 -17 29 -46l259 -623h-238l-55 144h-252l-55 -144h-238zM327 304h144l-63 177q-2 5 -4 10q-2 5 -5 5q-3 0 -5 -5q-2 -5 -4 -10zM399 978q68 0 93.5 -29.5q25.5 -29.5 25.5 -89.5q0 -60 -25.5 -89q-25.5 -29 -93.5 -29q-68 0 -94 29q-26 29 -26 89q0 60 26 89.5q26 29.5 94 29.5zt0 0zM351 859q0 -23 9 -37.5q9 -14.5 39 -14.5q30 0 38.5 14.5q8.5 14.5 8.5 37.5q0 23 -8.5 38q-8.5 15 -38.5 15q-30 0 -39 -15t-9 -38z" />
<glyph unicode="&#198;" horiz-adv-x="1174" d="M1139 530h-346q-44 0 -44 -44v-52h382v-154h-382v-66q0 -44 44 -44h351v-170h-511q-53 0 -81.5 28.5q-28.5 28.5 -28.5 81.5v31h-217l-80 -141h-256l393 632q14 23 31 36.5q17 13.5 36.5 20.5q19.5 7 42 9q22.5 2 47.5 2h619zM398 303h125v198q0 14 -3 14q-3 0 -9 -13z" />
<glyph unicode="&#199;" horiz-adv-x="652" d="M340 -130h69q9 0 15 3q6 3 6 11q0 11 -9 13q-9 2 -15 2h-30q-20 0 -27.5 9q-7.5 9 -7.5 20q0 6 1.5 11.5q1.5 5.5 3.5 9.5l24 51h-34q-86 0 -144.5 21q-58.5 21 -94.5 64q-36 43 -51.5 109q-15.5 66 -15.5 156q0 90 15.5 156q15.5 66 51.5 109q36 43 94.5 64q58.5 21 144.5 21h296v-174h-180q-56 0 -93 -6.5q-37 -6.5 -58.5 -25.5q-21.5 -19 -30 -53.5q-8.5 -34.5 -8.5 -90.5q0 -56 8.5 -90.5q8.5 -34.5 30 -53.5q21.5 -19 58.5 -25.5q37 -6.5 93 -6.5h190v-174h-196l-11 -23q-3 -6 -3 -7q0 -4 3 -4.5q3 -0.5 5 -0.5h9q38 0 56.5 -18.5q18.5 -18.5 18.5 -63.5q0 -45 -27.5 -64q-27.5 -19 -72.5 -19l-84 0z" />
<glyph unicode="&#200;" horiz-adv-x="700" d="M666 530h-346q-44 0 -44 -44v-52h382v-154h-382v-66q0 -44 44 -44h350v-170h-510q-53 0 -81.5 28.5q-28.5 28.5 -28.5 81.5v480q0 53 28.5 81.5q28.5 28.5 81.5 28.5h506zM489 848l-87 -108l-192 158l87 109z" />
<glyph unicode="&#201;" horiz-adv-x="700" d="M666 530h-346q-44 0 -44 -44v-52h382v-154h-382v-66q0 -44 44 -44h350v-170h-510q-53 0 -81.5 28.5q-28.5 28.5 -28.5 81.5v480q0 53 28.5 81.5q28.5 28.5 81.5 28.5h506zM549 898l-192 -158l-87 108l192 159z" />
<glyph unicode="&#202;" horiz-adv-x="700" d="M666 530h-346q-44 0 -44 -44v-52h382v-154h-382v-66q0 -44 44 -44h350v-170h-510q-53 0 -81.5 28.5q-28.5 28.5 -28.5 81.5v480q0 53 28.5 81.5q28.5 28.5 81.5 28.5h506zM400 835q-6 5 -13 8.5q-7 3.5 -16 3.5q-13 0 -29 -12l-119 -95l-62 89l159 120q10 8 21.5 12.5q11.5 4.5 28.5 4.5q17 0 28.5 -4.5q11.5 -4.5 21.5 -12.5l159 -120l-60 -89z" />
<glyph unicode="&#203;" horiz-adv-x="700" d="M666 530h-346q-44 0 -44 -44v-52h382v-154h-382v-66q0 -44 44 -44h350v-170h-510q-53 0 -81.5 28.5q-28.5 28.5 -28.5 81.5v480q0 53 28.5 81.5q28.5 28.5 81.5 28.5h506zM403 766v129h182v-129zM135 766v129h183l0 -129z" />
<glyph unicode="&#204;" horiz-adv-x="326" d="M50 0v700h226v-700zM302 848l-87 -108l-192 158l87 109z" />
<glyph unicode="&#205;" horiz-adv-x="326" d="M50 0v700h226v-700zM302 898l-192 -158l-87 108l192 159z" />
<glyph unicode="&#206;" horiz-adv-x="326" d="M50 0v700h226v-700zM193 835q-6 5 -13 8.5q-7 3.5 -16 3.5q-13 0 -29 -12l-119 -95l-62 89l159 120q10 8 21.5 12.5q11.5 4.5 28.5 4.5q17 0 28.5 -4.5q11.5 -4.5 21.5 -12.5l159 -120l-60 -89z" />
<glyph unicode="&#207;" horiz-adv-x="354" d="M65 0v700h226v-700zM207 746v129h157v-129zM-10 746v129h158l0 -129z" />
<glyph unicode="&#208;" horiz-adv-x="816" d="M178 0q-53 0 -81.5 28.5q-28.5 28.5 -28.5 81.5v161h-78v148h78v171q0 53 28.5 81.5q28.5 28.5 81.5 28.5h292q86 0 143 -21q57 -21 91 -64q34 -43 48 -109q14 -66 14 -156q0 -90 -14 -156q-14 -66 -48 -109q-34 -43 -91 -64q-57 -21 -143 -21zM294 419h127v-148h-127v-47q0 -27 11.5 -38.5q11.5 -11.5 38.5 -11.5h10q52 0 87 6.5q35 6.5 55.5 25.5q20.5 19 29 53.5q8.5 34.5 8.5 90.5q0 55 -9.5 89.5q-9.5 34.5 -31 53.5q-21.5 19 -56 26q-34.5 7 -83.5 7h-10q-27 0 -38.5 -11.5q-11.5 -11.5 -11.5 -38.5z" />
<glyph unicode="&#209;" horiz-adv-x="864" d="M814 117q0 -9 -3 -30q-3 -21 -18 -42q-15 -21 -45.5 -37q-30.5 -16 -85.5 -16q-20 0 -40 2q-20 2 -39.5 9q-19.5 7 -38 21q-18.5 14 -34.5 37l-253 357q-4 5 -9 11q-5 6 -10 6q-2 0 -8 -2.5q-6 -2.5 -6 -17.5v-415h-174v584q0 34 13 57.5q13 23.5 35 38.5q22 15 50.5 21.5q28.5 6.5 58.5 6.5q14 0 32.5 -1.5q18.5 -1.5 39 -8q20.5 -6.5 40.5 -19.5q20 -13 36 -36l255 -360q4 -5 8.5 -11q4.5 -6 10.5 -6q8 0 9.5 6.5q1.5 6.5 1.5 10.5v417h174zM202 810q26 37 64.5 66q38.5 29 88.5 29q27 0 52 -11l44 -21q28 -14 43 -17q15 -3 22 -3q26 0 45 19.5q19 19.5 32 39.5l68 -62q-14 -20 -30 -38.5q-16 -18.5 -34.5 -33q-18.5 -14.5 -41 -23.5q-22.5 -9 -49.5 -9q-23 0 -39 4.5q-16 4.5 -27 9.5l-42 21q-8 5 -21 9.5q-13 4.5 -30 4.5q-25 0 -42.5 -15.5q-17.5 -15.5 -34.5 -35.5z" />
<glyph unicode="&#210;" horiz-adv-x="830" d="M415 708q109 0 182.5 -14q73.5 -14 118.5 -53q45 -39 64.5 -109q19.5 -70 19.5 -182q0 -113 -19.5 -183q-19.5 -70 -64.5 -109q-45 -39 -118.5 -52.5q-73.5 -13.5 -182.5 -13.5q-109 0 -182.5 13.5q-73.5 13.5 -118.5 52.5q-45 39 -64.5 109q-19.5 70 -19.5 183q0 112 19.5 182q19.5 70 64.5 109q45 39 118.5 53q73.5 14 182.5 14zt0 0zM262 350q0 -49 7 -83.5q7 -34.5 24.5 -57q17.5 -22.5 47 -33q29.5 -10.5 74.5 -10.5q45 0 74.5 10.5q29.5 10.5 47 33q17.5 22.5 24.5 57q7 34.5 7 83.5q0 49 -7 83.5q-7 34.5 -24.5 57q-17.5 22.5 -47 33q-29.5 10.5 -74.5 10.5q-45 0 -74.5 -10.5q-29.5 -10.5 -47 -33q-17.5 -22.5 -24.5 -57q-7 -34.5 -7 -83.5zt0 0zM554 848l-87 -108l-192 158l87 109z" />
<glyph unicode="&#211;" horiz-adv-x="830" d="M415 708q109 0 182.5 -14q73.5 -14 118.5 -53q45 -39 64.5 -109q19.5 -70 19.5 -182q0 -113 -19.5 -183q-19.5 -70 -64.5 -109q-45 -39 -118.5 -52.5q-73.5 -13.5 -182.5 -13.5q-109 0 -182.5 13.5q-73.5 13.5 -118.5 52.5q-45 39 -64.5 109q-19.5 70 -19.5 183q0 112 19.5 182q19.5 70 64.5 109q45 39 118.5 53q73.5 14 182.5 14zt0 0zM262 350q0 -49 7 -83.5q7 -34.5 24.5 -57q17.5 -22.5 47 -33q29.5 -10.5 74.5 -10.5q45 0 74.5 10.5q29.5 10.5 47 33q17.5 22.5 24.5 57q7 34.5 7 83.5q0 49 -7 83.5q-7 34.5 -24.5 57q-17.5 22.5 -47 33q-29.5 10.5 -74.5 10.5q-45 0 -74.5 -10.5q-29.5 -10.5 -47 -33q-17.5 -22.5 -24.5 -57q-7 -34.5 -7 -83.5zt0 0zM554 898l-192 -158l-87 108l192 159z" />
<glyph unicode="&#212;" horiz-adv-x="830" d="M415 708q109 0 182.5 -14q73.5 -14 118.5 -53q45 -39 64.5 -109q19.5 -70 19.5 -182q0 -113 -19.5 -183q-19.5 -70 -64.5 -109q-45 -39 -118.5 -52.5q-73.5 -13.5 -182.5 -13.5q-109 0 -182.5 13.5q-73.5 13.5 -118.5 52.5q-45 39 -64.5 109q-19.5 70 -19.5 183q0 112 19.5 182q19.5 70 64.5 109q45 39 118.5 53q73.5 14 182.5 14zt0 0zM262 350q0 -49 7 -83.5q7 -34.5 24.5 -57q17.5 -22.5 47 -33q29.5 -10.5 74.5 -10.5q45 0 74.5 10.5q29.5 10.5 47 33q17.5 22.5 24.5 57q7 34.5 7 83.5q0 49 -7 83.5q-7 34.5 -24.5 57q-17.5 22.5 -47 33q-29.5 10.5 -74.5 10.5q-45 0 -74.5 -10.5q-29.5 -10.5 -47 -33q-17.5 -22.5 -24.5 -57q-7 -34.5 -7 -83.5zt0 0zM445 835q-6 5 -13 8.5q-7 3.5 -16 3.5q-13 0 -29 -12l-119 -95l-62 89l159 120q10 8 21.5 12.5q11.5 4.5 28.5 4.5q17 0 28.5 -4.5q11.5 -4.5 21.5 -12.5l159 -120l-60 -89z" />
<glyph unicode="&#213;" horiz-adv-x="830" d="M415 708q109 0 182.5 -14q73.5 -14 118.5 -53q45 -39 64.5 -109q19.5 -70 19.5 -182q0 -113 -19.5 -183q-19.5 -70 -64.5 -109q-45 -39 -118.5 -52.5q-73.5 -13.5 -182.5 -13.5q-109 0 -182.5 13.5q-73.5 13.5 -118.5 52.5q-45 39 -64.5 109q-19.5 70 -19.5 183q0 112 19.5 182q19.5 70 64.5 109q45 39 118.5 53q73.5 14 182.5 14zt0 0zM262 350q0 -49 7 -83.5q7 -34.5 24.5 -57q17.5 -22.5 47 -33q29.5 -10.5 74.5 -10.5q45 0 74.5 10.5q29.5 10.5 47 33q17.5 22.5 24.5 57q7 34.5 7 83.5q0 49 -7 83.5q-7 34.5 -24.5 57q-17.5 22.5 -47 33q-29.5 10.5 -74.5 10.5q-45 0 -74.5 -10.5q-29.5 -10.5 -47 -33q-17.5 -22.5 -24.5 -57q-7 -34.5 -7 -83.5zt0 0zM185 810q26 37 64.5 66q38.5 29 88.5 29q27 0 52 -11l44 -21q28 -14 43 -17q15 -3 22 -3q26 0 45 19.5q19 19.5 32 39.5l68 -62q-14 -20 -30 -38.5q-16 -18.5 -34.5 -33q-18.5 -14.5 -41 -23.5q-22.5 -9 -49.5 -9q-23 0 -39 4.5q-16 4.5 -27 9.5l-42 21q-8 5 -21 9.5q-13 4.5 -30 4.5q-25 0 -42.5 -15.5q-17.5 -15.5 -34.5 -35.5z" />
<glyph unicode="&#214;" horiz-adv-x="830" d="M415 708q109 0 182.5 -14q73.5 -14 118.5 -53q45 -39 64.5 -109q19.5 -70 19.5 -182q0 -113 -19.5 -183q-19.5 -70 -64.5 -109q-45 -39 -118.5 -52.5q-73.5 -13.5 -182.5 -13.5q-109 0 -182.5 13.5q-73.5 13.5 -118.5 52.5q-45 39 -64.5 109q-19.5 70 -19.5 183q0 112 19.5 182q19.5 70 64.5 109q45 39 118.5 53q73.5 14 182.5 14zt0 0zM262 350q0 -49 7 -83.5q7 -34.5 24.5 -57q17.5 -22.5 47 -33q29.5 -10.5 74.5 -10.5q45 0 74.5 10.5q29.5 10.5 47 33q17.5 22.5 24.5 57q7 34.5 7 83.5q0 49 -7 83.5q-7 34.5 -24.5 57q-17.5 22.5 -47 33q-29.5 10.5 -74.5 10.5q-45 0 -74.5 -10.5q-29.5 -10.5 -47 -33q-17.5 -22.5 -24.5 -57q-7 -34.5 -7 -83.5zt0 0zM458 766v129h182v-129zM190 766v129h183l0 -129z" />
<glyph unicode="&#215;" horiz-adv-x="672" d="M506 43l-170 170l-170 -170l-96 96l170 170l-170 170l96 96l170 -170l170 170l96 -96l-170 -170l170 -170z" />
<glyph unicode="&#216;" horiz-adv-x="833" d="M417 708q100 0 169 -11q69 -11 115 -43l69 63l48 -54l-67 -60q27 -42 39 -103q12 -61 12 -150q0 -113 -19.5 -183q-19.5 -70 -64.5 -109q-45 -39 -118.5 -52.5q-73.5 -13.5 -182.5 -13.5q-100 0 -170 11q-70 11 -115 43l-69 -62l-48 54l67 60q-26 41 -38 102q-12 61 -12 150q0 112 19.5 182q19.5 70 64.5 109q45 39 118.5 53q73.5 14 182.5 14zt0 0zM570 350q0 24 -1.5 45q-1.5 21 -5.5 38l-260 -233q35 -34 114 -34q45 0 74.5 10.5q29.5 10.5 47 33q17.5 22.5 24.5 57q7 34.5 7 83.5zt0 0zM264 350q0 -48 6 -82l259 232q-34 34 -112 34q-45 0 -74.5 -10.5q-29.5 -10.5 -47 -33q-17.5 -22.5 -24.5 -57t-7 -83.5z" />
<glyph unicode="&#217;" horiz-adv-x="794" d="M397 174q60 0 90.5 28q30.5 28 30.5 96v402h226v-420q0 -83 -23.5 -138q-23.5 -55 -67.5 -88.5q-44 -33.5 -109 -47.5q-65 -14 -147 -14q-83 0 -147.5 14q-64.5 14 -108.5 47.5q-44 33.5 -67.5 88.5q-23.5 55 -23.5 138v420h226v-402q0 -68 30.5 -96q30.5 -28 90.5 -28zt0 0zM506 848l-87 -108l-192 158l87 109z" />
<glyph unicode="&#218;" horiz-adv-x="794" d="M397 174q60 0 90.5 28q30.5 28 30.5 96v402h226v-420q0 -83 -23.5 -138q-23.5 -55 -67.5 -88.5q-44 -33.5 -109 -47.5q-65 -14 -147 -14q-83 0 -147.5 14q-64.5 14 -108.5 47.5q-44 33.5 -67.5 88.5q-23.5 55 -23.5 138v420h226v-402q0 -68 30.5 -96q30.5 -28 90.5 -28zt0 0zM566 898l-192 -158l-87 108l192 159z" />
<glyph unicode="&#219;" horiz-adv-x="794" d="M397 174q60 0 90.5 28q30.5 28 30.5 96v402h226v-420q0 -83 -23.5 -138q-23.5 -55 -67.5 -88.5q-44 -33.5 -109 -47.5q-65 -14 -147 -14q-83 0 -147.5 14q-64.5 14 -108.5 47.5q-44 33.5 -67.5 88.5q-23.5 55 -23.5 138v420h226v-402q0 -68 30.5 -96q30.5 -28 90.5 -28zt0 0zM427 835q-6 5 -13 8.5q-7 3.5 -16 3.5q-13 0 -29 -12l-119 -95l-62 89l159 120q10 8 21.5 12.5q11.5 4.5 28.5 4.5q17 0 28.5 -4.5q11.5 -4.5 21.5 -12.5l159 -120l-60 -89z" />
<glyph unicode="&#220;" horiz-adv-x="794" d="M397 174q60 0 90.5 28q30.5 28 30.5 96v402h226v-420q0 -83 -23.5 -138q-23.5 -55 -67.5 -88.5q-44 -33.5 -109 -47.5q-65 -14 -147 -14q-83 0 -147.5 14q-64.5 14 -108.5 47.5q-44 33.5 -67.5 88.5q-23.5 55 -23.5 138v420h226v-402q0 -68 30.5 -96q30.5 -28 90.5 -28zt0 0zM440 766v129h182v-129zM172 766v129h183l0 -129z" />
<glyph unicode="&#221;" horiz-adv-x="792" d="M570 700h242l-303 -506v-194h-226v194l-303 506h242l174 -302zM575 898l-192 -158l-87 108l192 159z" />
<glyph unicode="&#222;" horiz-adv-x="828" d="M70 700h226v-100h304q56 0 91 -15.5q35 -15.5 54.5 -44.5q19.5 -29 26 -71q6.5 -42 6.5 -94q0 -53 -6.5 -94.5q-6.5 -41.5 -26 -71q-19.5 -29.5 -54.5 -45q-35 -15.5 -91 -15.5h-304v-149h-226zM465 323q15 0 29.5 1q14.5 1 26 5.5q11.5 4.5 18.5 15q7 10.5 7 30.5q0 19 -7 29.5q-7 10.5 -18 15q-11 4.5 -25.5 5.5q-14.5 1 -29.5 1h-170l0 -103z" />
<glyph unicode="&#223;" horiz-adv-x="649" d="M50 419q0 77 20.5 131.5q20.5 54.5 59.5 89q39 34.5 95 50.5q56 16 127 16q52 0 96 -9q44 -9 75 -31.5q31 -22.5 48.5 -61q17.5 -38.5 17.5 -98.5q0 -26 -4.5 -49q-4.5 -23 -16 -41q-11.5 -18 -30.5 -29.5q-19 -11.5 -48 -14.5l0 -4q40 -4 65 -16q25 -12 39 -32.5q14 -20.5 19.5 -49.5q5.5 -29 5.5 -66q0 -49 -8.5 -87q-8.5 -38 -29 -64q-20.5 -26 -55.5 -39.5q-35 -13.5 -87 -13.5h-120v140h24q45 0 60.5 19.5q15.5 19.5 15.5 57.5q0 38 -15.5 58q-15.5 20 -60.5 20h-24v134h20q30 0 41 18q11 18 11 48q0 30 -13 53.5q-13 23.5 -50 23.5q-46 0 -64 -26q-18 -26 -18 -86v-460l-196 0z" />
<glyph unicode="&#224;" horiz-adv-x="630" d="M412 530q83 0 131.5 -48.5q48.5 -48.5 48.5 -131.5v-240q0 -53 -28.5 -81.5q-28.5 -28.5 -81.5 -28.5h-328q-75 0 -102.5 42.5q-27.5 42.5 -27.5 125.5q0 37 6 67.5q6 30.5 21 52q15 21.5 40 33q25 11.5 63 11.5h242v10q0 26 -16 39q-16 13 -44 13h-276v136zM257 208q-15 0 -26 -11q-11 -11 -11 -29q0 -14 9 -26q9 -12 26 -12h101q23 0 31.5 8.5q8.5 8.5 8.5 31.5v38zM423 678l-87 -108l-192 158l87 109z" />
<glyph unicode="&#225;" horiz-adv-x="630" d="M412 530q83 0 131.5 -48.5q48.5 -48.5 48.5 -131.5v-240q0 -53 -28.5 -81.5q-28.5 -28.5 -81.5 -28.5h-328q-75 0 -102.5 42.5q-27.5 42.5 -27.5 125.5q0 37 6 67.5q6 30.5 21 52q15 21.5 40 33q25 11.5 63 11.5h242v10q0 26 -16 39q-16 13 -44 13h-276v136zM257 208q-15 0 -26 -11q-11 -11 -11 -29q0 -14 9 -26q9 -12 26 -12h101q23 0 31.5 8.5q8.5 8.5 8.5 31.5v38zM463 728l-192 -158l-87 108l192 159z" />
<glyph unicode="&#226;" horiz-adv-x="630" d="M412 530q83 0 131.5 -48.5q48.5 -48.5 48.5 -131.5v-240q0 -53 -28.5 -81.5q-28.5 -28.5 -81.5 -28.5h-328q-75 0 -102.5 42.5q-27.5 42.5 -27.5 125.5q0 37 6 67.5q6 30.5 21 52q15 21.5 40 33q25 11.5 63 11.5h242v10q0 26 -16 39q-16 13 -44 13h-276v136zM257 208q-15 0 -26 -11q-11 -11 -11 -29q0 -14 9 -26q9 -12 26 -12h101q23 0 31.5 8.5q8.5 8.5 8.5 31.5v38zM344 665q-6 5 -13 8.5q-7 3.5 -16 3.5q-13 0 -29 -12l-119 -95l-62 89l159 120q9 7 24 12q15 5 26 5q11 0 26 -5q15 -5 24 -12l159 -120l-60 -89z" />
<glyph unicode="&#227;" horiz-adv-x="630" d="M412 530q83 0 131.5 -48.5q48.5 -48.5 48.5 -131.5v-240q0 -53 -28.5 -81.5q-28.5 -28.5 -81.5 -28.5h-328q-75 0 -102.5 42.5q-27.5 42.5 -27.5 125.5q0 37 6 67.5q6 30.5 21 52q15 21.5 40 33q25 11.5 63 11.5h242v10q0 26 -16 39q-16 13 -44 13h-276v136zM257 208q-15 0 -26 -11q-11 -11 -11 -29q0 -14 9 -26q9 -12 26 -12h101q23 0 31.5 8.5q8.5 8.5 8.5 31.5v38zM84 640q26 37 64.5 66q38.5 29 88.5 29q30 0 52 -11l44 -21q29 -14 43.5 -17q14.5 -3 21.5 -3q26 0 45 19.5q19 19.5 32 39.5l68 -62q-14 -20 -30 -38.5q-16 -18.5 -34.5 -33q-18.5 -14.5 -41 -23.5q-22.5 -9 -49.5 -9q-23 0 -39 4q-16 4 -27 10l-42 21q-8 5 -21 9.5q-13 4.5 -30 4.5q-25 0 -42.5 -15.5q-17.5 -15.5 -34.5 -35.5z" />
<glyph unicode="&#228;" horiz-adv-x="630" d="M412 530q83 0 131.5 -48.5q48.5 -48.5 48.5 -131.5v-240q0 -53 -28.5 -81.5q-28.5 -28.5 -81.5 -28.5h-328q-75 0 -102.5 42.5q-27.5 42.5 -27.5 125.5q0 37 6 67.5q6 30.5 21 52q15 21.5 40 33q25 11.5 63 11.5h242v10q0 26 -16 39q-16 13 -44 13h-276v136zM257 208q-15 0 -26 -11q-11 -11 -11 -29q0 -14 9 -26q9 -12 26 -12h101q23 0 31.5 8.5q8.5 8.5 8.5 31.5v38zM358 718h173v-128h-173zM97 590v128h173l0 -128z" />
<glyph unicode="&#229;" horiz-adv-x="630" d="M412 530q83 0 131.5 -48.5q48.5 -48.5 48.5 -131.5v-240q0 -53 -28.5 -81.5q-28.5 -28.5 -81.5 -28.5h-328q-75 0 -102.5 42.5q-27.5 42.5 -27.5 125.5q0 37 6 67.5q6 30.5 21 52q15 21.5 40 33q25 11.5 63 11.5h242v10q0 26 -16 39q-16 13 -44 13h-276v136zM257 208q-15 0 -26 -11q-11 -11 -11 -29q0 -14 9 -26q9 -12 26 -12h101q23 0 31.5 8.5q8.5 8.5 8.5 31.5v38zM314 807q68 0 93.5 -29.5q25.5 -29.5 25.5 -89.5q0 -60 -25.5 -89q-25.5 -29 -93.5 -29q-68 0 -94 29q-26 29 -26 89q0 60 26 89.5q26 29.5 94 29.5zt0 0zM266 688q0 -23 9 -37.5q9 -14.5 39 -14.5q30 0 38.5 14.5q8.5 14.5 8.5 37.5q0 23 -8.5 38q-8.5 15 -38.5 15q-30 0 -39 -15t-9 -38z" />
<glyph unicode="&#230;" horiz-adv-x="977" d="M595 0q-48 0 -71 9q-23 9 -32 15q-12 -14 -25.5 -19q-13.5 -5 -30.5 -5h-288q-75 0 -102.5 42.5q-27.5 42.5 -27.5 125.5q0 37 6 67.5q6 30.5 21 52q15 21.5 40 33q25 11.5 63 11.5h242v10q0 27 -16.5 39.5q-16.5 12.5 -43.5 12.5h-276v136h332q39 0 62 -8.5q23 -8.5 44 -23.5q14 10 30.5 17.5q16.5 7.5 38 12q21.5 4.5 49.5 6.5q28 2 65 2q75 0 128.5 -5.5q53.5 -5.5 88 -27.5q34.5 -22 51 -65q16.5 -43 16.5 -118q0 -23 -3.5 -43q-3.5 -20 -12.5 -35.5q-9 -15.5 -25.5 -24.5q-16.5 -9 -42.5 -9h-289q0 -38 22 -55q22 -17 75 -17h257v-136zM251 208q-15 0 -26 -9.5q-11 -9.5 -11 -27.5q0 -14 9 -27.5q9 -13.5 26 -13.5h101q23 0 31.5 11.5q8.5 11.5 8.5 34.5v32zM731 332q12 0 18.5 3.5q6.5 3.5 9.5 8q3 4.5 3.5 9.5q0.5 5 0.5 9q0 14 -9.5 22q-9.5 8 -23 11.5q-13.5 3.5 -29 4q-15.5 0.5 -26.5 0.5q-19 0 -35 -1.5q-16 -1.5 -28 -8q-12 -6.5 -19 -20q-7 -13.5 -7 -38.5z" />
<glyph unicode="&#231;" horiz-adv-x="551" d="M260 -130h69q9 0 15 3q6 3 6 11q0 11 -9 13q-9 2 -15 2h-30q-20 0 -27.5 9q-7.5 9 -7.5 20q0 6 1.5 11.5q1.5 5.5 3.5 9.5l24 51h-46q-68 0 -110.5 18.5q-42.5 18.5 -67 53q-24.5 34.5 -33.5 83.5q-9 49 -9 109q0 60 9 109q9 49 33.5 84q24.5 35 67 54q42.5 19 110.5 19h284v-140h-194q-60 0 -85 -33q-25 -33 -25 -93q0 -60 25 -92q25 -32 85 -32h205v-140h-173l-11 -23q-3 -6 -3 -7q0 -4 3 -4.5q3 -0.5 5 -0.5h9q38 0 56.5 -18.5q18.5 -18.5 18.5 -63.5q0 -45 -27.5 -64q-27.5 -19 -72.5 -19l-84 0z" />
<glyph unicode="&#232;" horiz-adv-x="617" d="M229 0q-64 0 -104 11q-40 11 -62.5 40.5q-22.5 29.5 -30.5 81.5q-8 52 -8 135q0 90 11 143q11 53 41.5 81q30.5 28 86.5 36q56 8 146 8q75 0 128.5 -5.5q53.5 -5.5 88 -27.5q34.5 -22 51 -65q16.5 -43 16.5 -118q0 -23 -3.5 -44q-3.5 -21 -12.5 -37.5q-9 -16.5 -25.5 -26.5q-16.5 -10 -42.5 -10h-289q0 -38 22 -52q22 -14 75 -14h257v-136zM365 326q12 0 18.5 3.5q6.5 3.5 9.5 9q3 5.5 3.5 11q0.5 5.5 0.5 9.5q0 14 -9.5 22.5q-9.5 8.5 -23 12.5q-13.5 4 -29 5q-15.5 1 -26.5 1q-19 0 -35 -2.5q-16 -2.5 -28 -10q-12 -7.5 -19 -22q-7 -14.5 -7 -39.5zM428 678l-87 -108l-192 158l87 109z" />
<glyph unicode="&#233;" horiz-adv-x="617" d="M229 0q-64 0 -104 11q-40 11 -62.5 40.5q-22.5 29.5 -30.5 81.5q-8 52 -8 135q0 90 11 143q11 53 41.5 81q30.5 28 86.5 36q56 8 146 8q75 0 128.5 -5.5q53.5 -5.5 88 -27.5q34.5 -22 51 -65q16.5 -43 16.5 -118q0 -23 -3.5 -44q-3.5 -21 -12.5 -37.5q-9 -16.5 -25.5 -26.5q-16.5 -10 -42.5 -10h-289q0 -38 22 -52q22 -14 75 -14h257v-136zM365 326q12 0 18.5 3.5q6.5 3.5 9.5 9q3 5.5 3.5 11q0.5 5.5 0.5 9.5q0 14 -9.5 22.5q-9.5 8.5 -23 12.5q-13.5 4 -29 5q-15.5 1 -26.5 1q-19 0 -35 -2.5q-16 -2.5 -28 -10q-12 -7.5 -19 -22q-7 -14.5 -7 -39.5zM498 728l-192 -158l-87 108l192 159z" />
<glyph unicode="&#234;" horiz-adv-x="617" d="M229 0q-64 0 -104 11q-40 11 -62.5 40.5q-22.5 29.5 -30.5 81.5q-8 52 -8 135q0 90 11 143q11 53 41.5 81q30.5 28 86.5 36q56 8 146 8q75 0 128.5 -5.5q53.5 -5.5 88 -27.5q34.5 -22 51 -65q16.5 -43 16.5 -118q0 -23 -3.5 -44q-3.5 -21 -12.5 -37.5q-9 -16.5 -25.5 -26.5q-16.5 -10 -42.5 -10h-289q0 -38 22 -52q22 -14 75 -14h257v-136zM365 326q12 0 18.5 3.5q6.5 3.5 9.5 9q3 5.5 3.5 11q0.5 5.5 0.5 9.5q0 14 -9.5 22.5q-9.5 8.5 -23 12.5q-13.5 4 -29 5q-15.5 1 -26.5 1q-19 0 -35 -2.5q-16 -2.5 -28 -10q-12 -7.5 -19 -22q-7 -14.5 -7 -39.5zM338 665q-6 5 -13 8.5q-7 3.5 -16 3.5q-13 0 -29 -12l-119 -95l-62 89l159 120q9 7 24 12q15 5 26 5q11 0 26 -5q15 -5 24 -12l159 -120l-60 -89z" />
<glyph unicode="&#235;" horiz-adv-x="617" d="M229 0q-64 0 -104 11q-40 11 -62.5 40.5q-22.5 29.5 -30.5 81.5q-8 52 -8 135q0 90 11 143q11 53 41.5 81q30.5 28 86.5 36q56 8 146 8q75 0 128.5 -5.5q53.5 -5.5 88 -27.5q34.5 -22 51 -65q16.5 -43 16.5 -118q0 -23 -3.5 -44q-3.5 -21 -12.5 -37.5q-9 -16.5 -25.5 -26.5q-16.5 -10 -42.5 -10h-289q0 -38 22 -52q22 -14 75 -14h257v-136zM365 326q12 0 18.5 3.5q6.5 3.5 9.5 9q3 5.5 3.5 11q0.5 5.5 0.5 9.5q0 14 -9.5 22.5q-9.5 8.5 -23 12.5q-13.5 4 -29 5q-15.5 1 -26.5 1q-19 0 -35 -2.5q-16 -2.5 -28 -10q-12 -7.5 -19 -22q-7 -14.5 -7 -39.5zM352 718h173v-128h-173zM91 590v128h173l0 -128z" />
<glyph unicode="&#236;" horiz-adv-x="272" d="M38 530h196v-530h-196zM275 678l-87 -108l-192 158l87 109z" />
<glyph unicode="&#237;" horiz-adv-x="272" d="M38 530h196v-530h-196zM275 728l-192 -158l-87 108l192 159z" />
<glyph unicode="&#238;" horiz-adv-x="272" d="M38 530h196v-530h-196zM166 665q-6 5 -13 8.5q-7 3.5 -16 3.5q-13 0 -29 -12l-119 -95l-62 89l159 120q9 7 24 12q15 5 26 5q11 0 26 -5q15 -5 24 -12l159 -120l-60 -89z" />
<glyph unicode="&#239;" horiz-adv-x="364" d="M84 530h196v-530h-196zM208 700h156v-128h-156zM0 572v128h156l0 -128z" />
<glyph unicode="&#240;" horiz-adv-x="612" d="M238 0q-64 0 -106 19q-42 19 -67.5 53.5q-25.5 34.5 -36 83.5q-10.5 49 -10.5 109q0 60 10.5 109q10.5 49 36 83.5q25.5 34.5 67.5 53.5q42 19 106 19h148q0 32 -13 54.5q-13 22.5 -24 35.5l-112 -39l-24 67l83 29q-11 11 -36 30q-25 19 -68 40l84 51q26 -11 60 -29.5q34 -18.5 76 -52.5l110 38l26 -66l-70 -24q51 -45 77.5 -100.5q26.5 -55.5 26.5 -136.5v-317q0 -53 -28.5 -81.5q-28.5 -28.5 -81.5 -28.5zM386 390h-90q-26 0 -41.5 -12.5q-15.5 -12.5 -23.5 -31q-8 -18.5 -10.5 -40.5q-2.5 -22 -2.5 -41q0 -24 2.5 -46.5q2.5 -22.5 11 -40q8.5 -17.5 24.5 -28q16 -10.5 44 -10.5h36q30 0 40 10q10 10 10 40z" />
<glyph unicode="&#241;" horiz-adv-x="642" d="M38 420q0 60 28.5 85q28.5 25 81.5 25h246q98 0 154 -51q56 -51 56 -149v-330h-196v280q0 60 -25 85q-25 25 -85 25h-24q-23 0 -31.5 -8.5q-8.5 -8.5 -8.5 -31.5v-350h-196zM91 640q26 37 64.5 66q38.5 29 88.5 29q30 0 52 -11l44 -21q29 -14 43.5 -17q14.5 -3 21.5 -3q26 0 45 19.5q19 19.5 32 39.5l68 -62q-14 -20 -30 -38.5q-16 -18.5 -34.5 -33q-18.5 -14.5 -41 -23.5q-22.5 -9 -49.5 -9q-23 0 -39 4q-16 4 -27 10l-42 21q-8 5 -21 9.5q-13 4.5 -30 4.5q-25 0 -42.5 -15.5q-17.5 -15.5 -34.5 -35.5z" />
<glyph unicode="&#242;" horiz-adv-x="660" d="M330 536q82 0 140.5 -11.5q58.5 -11.5 95 -41.5q36.5 -30 53.5 -83q17 -53 17 -135q0 -83 -17 -135.5q-17 -52.5 -53.5 -82.5q-36.5 -30 -95 -41.5q-58.5 -11.5 -140.5 -11.5q-83 0 -141 11.5q-58 11.5 -94.5 41.5q-36.5 30 -53.5 82.5q-17 52.5 -17 135.5q0 82 17 135q17 53 53.5 83q36.5 30 94.5 41.5q58 11.5 141 11.5zt0 0zM224 265q0 -30 4 -54q4 -24 15.5 -41.5q11.5 -17.5 32 -26.5q20.5 -9 54.5 -9q34 0 54.5 9q20.5 9 32 26.5q11.5 17.5 15.5 41.5q4 24 4 54q0 30 -4 54q-4 24 -15.5 41.5q-11.5 17.5 -32 26.5q-20.5 9 -54.5 9q-34 0 -54.5 -9q-20.5 -9 -32 -26.5q-11.5 -17.5 -15.5 -41.5q-4 -24 -4 -54zt0 0zM469 678l-87 -108l-192 158l87 109z" />
<glyph unicode="&#243;" horiz-adv-x="660" d="M330 536q82 0 140.5 -11.5q58.5 -11.5 95 -41.5q36.5 -30 53.5 -83q17 -53 17 -135q0 -83 -17 -135.5q-17 -52.5 -53.5 -82.5q-36.5 -30 -95 -41.5q-58.5 -11.5 -140.5 -11.5q-83 0 -141 11.5q-58 11.5 -94.5 41.5q-36.5 30 -53.5 82.5q-17 52.5 -17 135.5q0 82 17 135q17 53 53.5 83q36.5 30 94.5 41.5q58 11.5 141 11.5zt0 0zM224 265q0 -30 4 -54q4 -24 15.5 -41.5q11.5 -17.5 32 -26.5q20.5 -9 54.5 -9q34 0 54.5 9q20.5 9 32 26.5q11.5 17.5 15.5 41.5q4 24 4 54q0 30 -4 54q-4 24 -15.5 41.5q-11.5 17.5 -32 26.5q-20.5 9 -54.5 9q-34 0 -54.5 -9q-20.5 -9 -32 -26.5q-11.5 -17.5 -15.5 -41.5q-4 -24 -4 -54zt0 0zM469 728l-192 -158l-87 108l192 159z" />
<glyph unicode="&#244;" horiz-adv-x="660" d="M330 536q82 0 140.5 -11.5q58.5 -11.5 95 -41.5q36.5 -30 53.5 -83q17 -53 17 -135q0 -83 -17 -135.5q-17 -52.5 -53.5 -82.5q-36.5 -30 -95 -41.5q-58.5 -11.5 -140.5 -11.5q-83 0 -141 11.5q-58 11.5 -94.5 41.5q-36.5 30 -53.5 82.5q-17 52.5 -17 135.5q0 82 17 135q17 53 53.5 83q36.5 30 94.5 41.5q58 11.5 141 11.5zt0 0zM224 265q0 -30 4 -54q4 -24 15.5 -41.5q11.5 -17.5 32 -26.5q20.5 -9 54.5 -9q34 0 54.5 9q20.5 9 32 26.5q11.5 17.5 15.5 41.5q4 24 4 54q0 30 -4 54q-4 24 -15.5 41.5q-11.5 17.5 -32 26.5q-20.5 9 -54.5 9q-34 0 -54.5 -9q-20.5 -9 -32 -26.5q-11.5 -17.5 -15.5 -41.5q-4 -24 -4 -54zt0 0zM360 665q-6 5 -13 8.5q-7 3.5 -16 3.5q-13 0 -29 -12l-119 -95l-62 89l159 120q9 7 24 12q15 5 26 5q11 0 26 -5q15 -5 24 -12l159 -120l-60 -89z" />
<glyph unicode="&#245;" horiz-adv-x="660" d="M330 536q82 0 140.5 -11.5q58.5 -11.5 95 -41.5q36.5 -30 53.5 -83q17 -53 17 -135q0 -83 -17 -135.5q-17 -52.5 -53.5 -82.5q-36.5 -30 -95 -41.5q-58.5 -11.5 -140.5 -11.5q-83 0 -141 11.5q-58 11.5 -94.5 41.5q-36.5 30 -53.5 82.5q-17 52.5 -17 135.5q0 82 17 135q17 53 53.5 83q36.5 30 94.5 41.5q58 11.5 141 11.5zt0 0zM224 265q0 -30 4 -54q4 -24 15.5 -41.5q11.5 -17.5 32 -26.5q20.5 -9 54.5 -9q34 0 54.5 9q20.5 9 32 26.5q11.5 17.5 15.5 41.5q4 24 4 54q0 30 -4 54q-4 24 -15.5 41.5q-11.5 17.5 -32 26.5q-20.5 9 -54.5 9q-34 0 -54.5 -9q-20.5 -9 -32 -26.5q-11.5 -17.5 -15.5 -41.5q-4 -24 -4 -54zt0 0zM100 640q26 37 64.5 66q38.5 29 88.5 29q30 0 52 -11l44 -21q29 -14 43.5 -17q14.5 -3 21.5 -3q26 0 45 19.5q19 19.5 32 39.5l68 -62q-14 -20 -30 -38.5q-16 -18.5 -34.5 -33q-18.5 -14.5 -41 -23.5q-22.5 -9 -49.5 -9q-23 0 -39 4q-16 4 -27 10l-42 21q-8 5 -21 9.5q-13 4.5 -30 4.5q-25 0 -42.5 -15.5q-17.5 -15.5 -34.5 -35.5z" />
<glyph unicode="&#246;" horiz-adv-x="660" d="M330 536q82 0 140.5 -11.5q58.5 -11.5 95 -41.5q36.5 -30 53.5 -83q17 -53 17 -135q0 -83 -17 -135.5q-17 -52.5 -53.5 -82.5q-36.5 -30 -95 -41.5q-58.5 -11.5 -140.5 -11.5q-83 0 -141 11.5q-58 11.5 -94.5 41.5q-36.5 30 -53.5 82.5q-17 52.5 -17 135.5q0 82 17 135q17 53 53.5 83q36.5 30 94.5 41.5q58 11.5 141 11.5zt0 0zM224 265q0 -30 4 -54q4 -24 15.5 -41.5q11.5 -17.5 32 -26.5q20.5 -9 54.5 -9q34 0 54.5 9q20.5 9 32 26.5q11.5 17.5 15.5 41.5q4 24 4 54q0 30 -4 54q-4 24 -15.5 41.5q-11.5 17.5 -32 26.5q-20.5 9 -54.5 9q-34 0 -54.5 -9q-20.5 -9 -32 -26.5q-11.5 -17.5 -15.5 -41.5q-4 -24 -4 -54zt0 0zM374 718h173v-128h-173zM113 590v128h173l0 -128z" />
<glyph unicode="&#247;" horiz-adv-x="708" d="M50 259v130h608v-130zM264 495v180h180v-180zM264 -27v180h180l0 -180z" />
<glyph unicode="&#248;" horiz-adv-x="652" d="M326 536q71 0 124 -9.5q53 -9.5 90 -30.5l68 59l44 -51l-62 -53q23 -32 32.5 -76.5q9.5 -44.5 9.5 -109.5q0 -83 -17 -135.5q-17 -52.5 -53.5 -82.5q-36.5 -30 -95 -41.5q-58.5 -11.5 -140.5 -11.5q-74 0 -127.5 8.5q-53.5 8.5 -90.5 31.5l-64 -56l-44 51l59 52q-20 31 -29.5 76q-9.5 45 -9.5 108q0 82 17 135q17 53 53.5 83q36.5 30 94.5 41.5q58 11.5 141 11.5zt0 0zM432 265q0 27 -3 48l-180 -156q12 -11 30.5 -17q18.5 -6 46.5 -6q34 0 54.5 9q20.5 9 32 26.5q11.5 17.5 15.5 41.5q4 24 4 54zt0 0zM220 265q0 -11 0.5 -21.5q0.5 -10.5 1.5 -20.5l176 153q-25 20 -72 20q-34 0 -54.5 -9q-20.5 -9 -32 -26.5q-11.5 -17.5 -15.5 -41.5t-4 -54z" />
<glyph unicode="&#249;" horiz-adv-x="650" d="M612 110q0 -60 -28.5 -85q-28.5 -25 -81.5 -25h-254q-98 0 -154 51q-56 51 -56 149v330h196v-282q0 -60 25 -85q25 -25 85 -25h32q23 0 31.5 8.5q8.5 8.5 8.5 31.5v352h196zM434 678l-87 -108l-192 158l87 109z" />
<glyph unicode="&#250;" horiz-adv-x="650" d="M612 110q0 -60 -28.5 -85q-28.5 -25 -81.5 -25h-254q-98 0 -154 51q-56 51 -56 149v330h196v-282q0 -60 25 -85q25 -25 85 -25h32q23 0 31.5 8.5q8.5 8.5 8.5 31.5v352h196zM494 728l-192 -158l-87 108l192 159z" />
<glyph unicode="&#251;" horiz-adv-x="650" d="M612 110q0 -60 -28.5 -85q-28.5 -25 -81.5 -25h-254q-98 0 -154 51q-56 51 -56 149v330h196v-282q0 -60 25 -85q25 -25 85 -25h32q23 0 31.5 8.5q8.5 8.5 8.5 31.5v352h196zM355 665q-6 5 -13 8.5q-7 3.5 -16 3.5q-13 0 -29 -12l-119 -95l-62 89l159 120q9 7 24 12q15 5 26 5q11 0 26 -5q15 -5 24 -12l159 -120l-60 -89z" />
<glyph unicode="&#252;" horiz-adv-x="650" d="M612 110q0 -60 -28.5 -85q-28.5 -25 -81.5 -25h-254q-98 0 -154 51q-56 51 -56 149v330h196v-282q0 -60 25 -85q25 -25 85 -25h32q23 0 31.5 8.5q8.5 8.5 8.5 31.5v352h196zM369 718h173v-128h-173zM108 590v128h173l0 -128z" />
<glyph unicode="&#253;" horiz-adv-x="641" d="M345 -171h-196l83 171l-252 530h200l139 -336l146 336h196zM490 728l-192 -158l-87 108l192 159z" />
<glyph unicode="&#254;" horiz-adv-x="644" d="M50 700h196v-170h148q64 0 106 -19q42 -19 67.5 -53.5q25.5 -34.5 36 -83.5q10.5 -49 10.5 -109q0 -60 -10.5 -109q-10.5 -49 -36 -83.5q-25.5 -34.5 -67.5 -53.5q-42 -19 -106 -19h-148v-170h-196zM246 140h90q26 0 41.5 12.5q15.5 12.5 23.5 31q8 18.5 10.5 40.5q2.5 22 2.5 41q0 24 -2.5 46.5q-2.5 22.5 -11 40q-8.5 17.5 -24.5 28q-16 10.5 -44 10.5l-86 0z" />
<glyph unicode="&#255;" horiz-adv-x="641" d="M345 -171h-196l83 171l-252 530h200l139 -336l146 336h196zM364 718h173v-128h-173zM103 590v128h173l0 -128z" />
<glyph unicode="&#256;" horiz-adv-x="798" d="M239 623q8 19 19 35q11 16 29 27q18 11 44.5 17q26.5 6 67.5 6q25 0 48.5 -2.5q23.5 -2.5 44.5 -11q21 -8.5 38 -25.5q17 -17 29 -46l259 -623h-238l-55 144h-252l-55 -144h-238zM327 304h144l-63 177q-2 5 -4 10q-2 5 -5 5q-3 0 -5 -5q-2 -5 -4 -10zM254 770v110h289l0 -110z" />
<glyph unicode="&#257;" horiz-adv-x="630" d="M412 530q83 0 131.5 -48.5q48.5 -48.5 48.5 -131.5v-240q0 -53 -28.5 -81.5q-28.5 -28.5 -81.5 -28.5h-328q-75 0 -102.5 42.5q-27.5 42.5 -27.5 125.5q0 37 6 67.5q6 30.5 21 52q15 21.5 40 33q25 11.5 63 11.5h242v10q0 26 -16 39q-16 13 -44 13h-276v136zM257 208q-15 0 -26 -11q-11 -11 -11 -29q0 -14 9 -26q9 -12 26 -12h101q23 0 31.5 8.5q8.5 8.5 8.5 31.5v38zM169 596v110h289l0 -110z" />
<glyph unicode="&#258;" horiz-adv-x="798" d="M239 623q8 19 19 35q11 16 29 27q18 11 44.5 17q26.5 6 67.5 6q25 0 48.5 -2.5q23.5 -2.5 44.5 -11q21 -8.5 38 -25.5q17 -17 29 -46l259 -623h-238l-55 144h-252l-55 -144h-238zM327 304h144l-63 177q-2 5 -4 10q-2 5 -5 5q-3 0 -5 -5q-2 -5 -4 -10zM399 843q30 0 57 15q27 15 40 56l129 0q-14 -47 -32.5 -80q-18.5 -33 -45.5 -54q-27 -21 -63 -30.5q-36 -9.5 -85 -9.5q-98 0 -152.5 40.5q-54.5 40.5 -73.5 133.5l129 0q13 -41 40 -56t57 -15z" />
<glyph unicode="&#259;" horiz-adv-x="630" d="M412 530q83 0 131.5 -48.5q48.5 -48.5 48.5 -131.5v-240q0 -53 -28.5 -81.5q-28.5 -28.5 -81.5 -28.5h-328q-75 0 -102.5 42.5q-27.5 42.5 -27.5 125.5q0 37 6 67.5q6 30.5 21 52q15 21.5 40 33q25 11.5 63 11.5h242v10q0 26 -16 39q-16 13 -44 13h-276v136zM257 208q-15 0 -26 -11q-11 -11 -11 -29q0 -14 9 -26q9 -12 26 -12h101q23 0 31.5 8.5q8.5 8.5 8.5 31.5v38zM314 663q30 0 57 15q27 15 40 56l129 0q-14 -47 -32.5 -80q-18.5 -33 -45.5 -54q-27 -21 -63 -30.5q-36 -9.5 -85 -9.5q-98 0 -152.5 40.5q-54.5 40.5 -73.5 133.5l129 0q13 -41 40 -56t57 -15z" />
<glyph unicode="&#260;" horiz-adv-x="800" d="M735 -209q-38 0 -60.5 16.5q-22.5 16.5 -22.5 52.5q0 9 3 21.5q3 12.5 8 21.5l58 97h-141l-55 144h-252l-55 -144h-238l259 623q8 19 19 35q11 16 29 27q18 11 44.5 17q26.5 6 67.5 6q25 0 48.5 -2.5q23.5 -2.5 44.5 -11q21 -8.5 38 -25.5q17 -17 29 -46l259 -623l-55 -91q-9 -15 -9 -22q0 -17 27 -17h39v-79zM327 304h144l-63 177q-2 5 -4 10q-2 5 -5 5q-3 0 -5 -5q-2 -5 -4 -10z" />
<glyph unicode="&#261;" horiz-adv-x="616" d="M393 -209q-38 0 -60.5 16.5q-22.5 16.5 -22.5 52.5q0 9 3 21.5q3 12.5 8 21.5l58 97h-231q-75 0 -102.5 42.5q-27.5 42.5 -27.5 125.5q0 37 6 67.5q6 30.5 21 52q15 21.5 40 33q25 11.5 63 11.5h242q0 62 -60 62h-276v136h352q83 0 131.5 -48.5q48.5 -48.5 48.5 -131.5v-240q0 -53 -28.5 -81.5q-28.5 -28.5 -81.5 -28.5l-55 -91q-9 -15 -9 -22q0 -17 27 -17h39v-79zM251 208q-15 0 -26 -11q-11 -11 -11 -29q0 -14 9 -26q9 -12 26 -12h101q23 0 31.5 8.5q8.5 8.5 8.5 31.5l0 38z" />
<glyph unicode="&#262;" horiz-adv-x="658" d="M336 0q-86 0 -144.5 21q-58.5 21 -94.5 64q-36 43 -51.5 109q-15.5 66 -15.5 156q0 90 15.5 156q15.5 66 51.5 109q36 43 94.5 64q58.5 21 144.5 21h296v-174h-180q-56 0 -93 -6.5q-37 -6.5 -58.5 -25.5q-21.5 -19 -30 -53.5q-8.5 -34.5 -8.5 -90.5q0 -56 8.5 -90.5q8.5 -34.5 30 -53.5q21.5 -19 58.5 -25.5q37 -6.5 93 -6.5h190v-174zM525 898l-192 -158l-87 108l192 159z" />
<glyph unicode="&#263;" horiz-adv-x="551" d="M244 0q-68 0 -110.5 18.5q-42.5 18.5 -67 53q-24.5 34.5 -33.5 83.5q-9 49 -9 109q0 60 9 109q9 49 33.5 84q24.5 35 67 54q42.5 19 110.5 19h284v-140h-194q-60 0 -85 -33q-25 -33 -25 -93q0 -60 25 -92q25 -32 85 -32h205v-140zM467 728l-192 -158l-87 108l192 159z" />
<glyph unicode="&#264;" horiz-adv-x="658" d="M336 0q-86 0 -144.5 21q-58.5 21 -94.5 64q-36 43 -51.5 109q-15.5 66 -15.5 156q0 90 15.5 156q15.5 66 51.5 109q36 43 94.5 64q58.5 21 144.5 21h296v-174h-180q-56 0 -93 -6.5q-37 -6.5 -58.5 -25.5q-21.5 -19 -30 -53.5q-8.5 -34.5 -8.5 -90.5q0 -56 8.5 -90.5q8.5 -34.5 30 -53.5q21.5 -19 58.5 -25.5q37 -6.5 93 -6.5h190v-174zM376 835q-6 5 -13 8.5q-7 3.5 -16 3.5q-13 0 -29 -12l-119 -95l-62 89l159 120q10 8 21.5 12.5q11.5 4.5 28.5 4.5q17 0 28.5 -4.5q11.5 -4.5 21.5 -12.5l159 -120l-60 -89z" />
<glyph unicode="&#265;" horiz-adv-x="551" d="M244 0q-68 0 -110.5 18.5q-42.5 18.5 -67 53q-24.5 34.5 -33.5 83.5q-9 49 -9 109q0 60 9 109q9 49 33.5 84q24.5 35 67 54q42.5 19 110.5 19h284v-140h-194q-60 0 -85 -33q-25 -33 -25 -93q0 -60 25 -92q25 -32 85 -32h205v-140zM317 665q-6 5 -13 8.5q-7 3.5 -16 3.5q-13 0 -29 -12l-119 -95l-62 89l159 120q9 7 24 12q15 5 26 5q11 0 26 -5q15 -5 24 -12l159 -120l-60 -89z" />
<glyph unicode="&#266;" horiz-adv-x="658" d="M336 0q-86 0 -144.5 21q-58.5 21 -94.5 64q-36 43 -51.5 109q-15.5 66 -15.5 156q0 90 15.5 156q15.5 66 51.5 109q36 43 94.5 64q58.5 21 144.5 21h296v-174h-180q-56 0 -93 -6.5q-37 -6.5 -58.5 -25.5q-21.5 -19 -30 -53.5q-8.5 -34.5 -8.5 -90.5q0 -56 8.5 -90.5q8.5 -34.5 30 -53.5q21.5 -19 58.5 -25.5q37 -6.5 93 -6.5h190v-174zM264 766v129h183l0 -129z" />
<glyph unicode="&#267;" horiz-adv-x="551" d="M244 0q-68 0 -110.5 18.5q-42.5 18.5 -67 53q-24.5 34.5 -33.5 83.5q-9 49 -9 109q0 60 9 109q9 49 33.5 84q24.5 35 67 54q42.5 19 110.5 19h284v-140h-194q-60 0 -85 -33q-25 -33 -25 -93q0 -60 25 -92q25 -32 85 -32h205v-140zM221 590v128h173l0 -128z" />
<glyph unicode="&#268;" horiz-adv-x="658" d="M336 0q-86 0 -144.5 21q-58.5 21 -94.5 64q-36 43 -51.5 109q-15.5 66 -15.5 156q0 90 15.5 156q15.5 66 51.5 109q36 43 94.5 64q58.5 21 144.5 21h296v-174h-180q-56 0 -93 -6.5q-37 -6.5 -58.5 -25.5q-21.5 -19 -30 -53.5q-8.5 -34.5 -8.5 -90.5q0 -56 8.5 -90.5q8.5 -34.5 30 -53.5q21.5 -19 58.5 -25.5q37 -6.5 93 -6.5h190v-174zM555 877l-159 -120q-10 -8 -21.5 -12.5q-11.5 -4.5 -28.5 -4.5q-17 0 -28.5 4.5q-11.5 4.5 -21.5 12.5l-159 120l62 89l119 -95q16 -12 29 -12q9 0 16 3.5q7 3.5 13 8.5l119 95z" />
<glyph unicode="&#269;" horiz-adv-x="551" d="M244 0q-68 0 -110.5 18.5q-42.5 18.5 -67 53q-24.5 34.5 -33.5 83.5q-9 49 -9 109q0 60 9 109q9 49 33.5 84q24.5 35 67 54q42.5 19 110.5 19h284v-140h-194q-60 0 -85 -33q-25 -33 -25 -93q0 -60 25 -92q25 -32 85 -32h205v-140zM496 707l-159 -120q-10 -8 -21.5 -12.5q-11.5 -4.5 -28.5 -4.5q-17 0 -28.5 4.5q-11.5 4.5 -21.5 12.5l-159 120l62 89l119 -95q16 -12 29 -12q9 0 16 3.5q7 3.5 13 8.5l119 95z" />
<glyph unicode="&#270;" horiz-adv-x="778" d="M160 0q-53 0 -81.5 28.5q-28.5 28.5 -28.5 81.5v480q0 53 28.5 81.5q28.5 28.5 81.5 28.5h292q86 0 143 -21q57 -21 91 -64q34 -43 48 -109q14 -66 14 -156q0 -90 -14 -156q-14 -66 -48 -109q-34 -43 -91 -64q-57 -21 -143 -21zM276 224q0 -27 11.5 -38.5q11.5 -11.5 38.5 -11.5h10q52 0 87 6.5q35 6.5 55.5 25.5q20.5 19 29 53.5q8.5 34.5 8.5 90.5q0 55 -9.5 89.5q-9.5 34.5 -31 53.5q-21.5 19 -56 26q-34.5 7 -83.5 7h-10q-27 0 -38.5 -11.5q-11.5 -11.5 -11.5 -38.5zM598 877l-159 -120q-10 -8 -21.5 -12.5q-11.5 -4.5 -28.5 -4.5q-17 0 -28.5 4.5q-11.5 4.5 -21.5 12.5l-159 120l62 89l119 -95q16 -12 29 -12q9 0 16 3.5q7 3.5 13 8.5l119 95z" />
<glyph unicode="&#271;" horiz-adv-x="868" d="M244 0q-64 0 -106 19q-42 19 -67.5 53.5q-25.5 34.5 -36 83.5q-10.5 49 -10.5 109q0 60 10.5 109q10.5 49 36 83.5q25.5 34.5 67.5 53.5q42 19 106 19h148v170h196v-590q0 -53 -28.5 -81.5q-28.5 -28.5 -81.5 -28.5zM392 390h-90q-26 0 -41.5 -12.5q-15.5 -12.5 -23.5 -31q-8 -18.5 -10.5 -40.5q-2.5 -22 -2.5 -41q0 -24 2.5 -46.5q2.5 -22.5 11 -40q8.5 -17.5 24.5 -28q16 -10.5 44 -10.5h36q30 0 40 10q10 10 10 40zM619 439l86 286l167 -51l-104 -280z" />
<glyph unicode="&#272;" horiz-adv-x="816" d="M178 0q-53 0 -81.5 28.5q-28.5 28.5 -28.5 81.5v161h-78v148h78v171q0 53 28.5 81.5q28.5 28.5 81.5 28.5h292q86 0 143 -21q57 -21 91 -64q34 -43 48 -109q14 -66 14 -156q0 -90 -14 -156q-14 -66 -48 -109q-34 -43 -91 -64q-57 -21 -143 -21zM294 419h127v-148h-127v-47q0 -27 11.5 -38.5q11.5 -11.5 38.5 -11.5h10q52 0 87 6.5q35 6.5 55.5 25.5q20.5 19 29 53.5q8.5 34.5 8.5 90.5q0 55 -9.5 89.5q-9.5 34.5 -31 53.5q-21.5 19 -56 26q-34.5 7 -83.5 7h-10q-27 0 -38.5 -11.5q-11.5 -11.5 -11.5 -38.5z" />
<glyph unicode="&#273;" horiz-adv-x="614" d="M238 0q-64 0 -106 19q-42 19 -67.5 53.5q-25.5 34.5 -36 83.5q-10.5 49 -10.5 109q0 60 10.5 109q10.5 49 36 83.5q25.5 34.5 67.5 53.5q42 19 106 19h148v44h-143v86h143v40h196v-40h72v-86h-72v-464q0 -53 -28.5 -81.5q-28.5 -28.5 -81.5 -28.5zM386 390h-90q-26 0 -41.5 -12.5q-15.5 -12.5 -23.5 -31q-8 -18.5 -10.5 -40.5q-2.5 -22 -2.5 -41q0 -24 2.5 -46.5q2.5 -22.5 11 -40q8.5 -17.5 24.5 -28q16 -10.5 44 -10.5h36q30 0 40 10q10 10 10 40z" />
<glyph unicode="&#274;" horiz-adv-x="700" d="M666 530h-346q-44 0 -44 -44v-52h382v-154h-382v-66q0 -44 44 -44h350v-170h-510q-53 0 -81.5 28.5q-28.5 28.5 -28.5 81.5v480q0 53 28.5 81.5q28.5 28.5 81.5 28.5h506zM216 770v110h289l0 -110z" />
<glyph unicode="&#275;" horiz-adv-x="617" d="M229 0q-64 0 -104 11q-40 11 -62.5 40.5q-22.5 29.5 -30.5 81.5q-8 52 -8 135q0 90 11 143q11 53 41.5 81q30.5 28 86.5 36q56 8 146 8q75 0 128.5 -5.5q53.5 -5.5 88 -27.5q34.5 -22 51 -65q16.5 -43 16.5 -118q0 -23 -3.5 -44q-3.5 -21 -12.5 -37.5q-9 -16.5 -25.5 -26.5q-16.5 -10 -42.5 -10h-289q0 -38 22 -52q22 -14 75 -14h257v-136zM365 326q12 0 18.5 3.5q6.5 3.5 9.5 9q3 5.5 3.5 11q0.5 5.5 0.5 9.5q0 14 -9.5 22.5q-9.5 8.5 -23 12.5q-13.5 4 -29 5q-15.5 1 -26.5 1q-19 0 -35 -2.5q-16 -2.5 -28 -10q-12 -7.5 -19 -22q-7 -14.5 -7 -39.5zM152 596v110h289l0 -110z" />
<glyph unicode="&#278;" horiz-adv-x="700" d="M666 530h-346q-44 0 -44 -44v-52h382v-154h-382v-66q0 -44 44 -44h350v-170h-510q-53 0 -81.5 28.5q-28.5 28.5 -28.5 81.5v480q0 53 28.5 81.5q28.5 28.5 81.5 28.5h506zM278 766v129h183l0 -129z" />
<glyph unicode="&#279;" horiz-adv-x="617" d="M229 0q-64 0 -104 11q-40 11 -62.5 40.5q-22.5 29.5 -30.5 81.5q-8 52 -8 135q0 90 11 143q11 53 41.5 81q30.5 28 86.5 36q56 8 146 8q75 0 128.5 -5.5q53.5 -5.5 88 -27.5q34.5 -22 51 -65q16.5 -43 16.5 -118q0 -23 -3.5 -44q-3.5 -21 -12.5 -37.5q-9 -16.5 -25.5 -26.5q-16.5 -10 -42.5 -10h-289q0 -38 22 -52q22 -14 75 -14h257v-136zM365 326q12 0 18.5 3.5q6.5 3.5 9.5 9q3 5.5 3.5 11q0.5 5.5 0.5 9.5q0 14 -9.5 22.5q-9.5 8.5 -23 12.5q-13.5 4 -29 5q-15.5 1 -26.5 1q-19 0 -35 -2.5q-16 -2.5 -28 -10q-12 -7.5 -19 -22q-7 -14.5 -7 -39.5zM222 590v128h173l0 -128z" />
<glyph unicode="&#280;" horiz-adv-x="702" d="M587 -209q-38 0 -60.5 16.5q-22.5 16.5 -22.5 52.5q0 9 3 21.5q3 12.5 8 21.5l59 97h-414q-53 0 -81.5 28.5q-28.5 28.5 -28.5 81.5v480q0 53 28.5 81.5q28.5 28.5 81.5 28.5h506v-170h-346q-44 0 -44 -44v-52h382v-154h-382v-66q0 -44 44 -44h352v-170l-57 -91q-9 -15 -9 -22q0 -17 27 -17h39l0 -79z" />
<glyph unicode="&#281;" horiz-adv-x="605" d="M483 -209q-38 0 -60.5 16.5q-22.5 16.5 -22.5 52.5q0 9 3 21.5q3 12.5 8 21.5l60 97h-248q-64 0 -104 11q-40 11 -62.5 40.5q-22.5 29.5 -30.5 81.5q-8 52 -8 135q0 90 11 143q11 53 41.5 81q30.5 28 86.5 36q56 8 146 8q75 0 128.5 -5.5q53.5 -5.5 88 -27.5q34.5 -22 51 -65q16.5 -43 16.5 -118q0 -23 -3.5 -44q-3.5 -21 -12.5 -37.5q-9 -16.5 -25.5 -26.5q-16.5 -10 -42.5 -10h-289q0 -38 22 -52q22 -14 75 -14h257v-136l-57 -91q-9 -15 -9 -22q0 -17 27 -17h39v-79zM359 326q12 0 18.5 3.5q6.5 3.5 9.5 9q3 5.5 3.5 11q0.5 5.5 0.5 9.5q0 14 -9.5 22.5q-9.5 8.5 -23 12.5q-13.5 4 -29 5q-15.5 1 -26.5 1q-19 0 -35 -2.5q-16 -2.5 -28 -10q-12 -7.5 -19 -22q-7 -14.5 -7 -39.5z" />
<glyph unicode="&#282;" horiz-adv-x="700" d="M666 530h-346q-44 0 -44 -44v-52h382v-154h-382v-66q0 -44 44 -44h350v-170h-510q-53 0 -81.5 28.5q-28.5 28.5 -28.5 81.5v480q0 53 28.5 81.5q28.5 28.5 81.5 28.5h506zM579 877l-159 -120q-10 -8 -21.5 -12.5q-11.5 -4.5 -28.5 -4.5q-17 0 -28.5 4.5q-11.5 4.5 -21.5 12.5l-159 120l62 89l119 -95q16 -12 29 -12q9 0 16 3.5q7 3.5 13 8.5l119 95z" />
<glyph unicode="&#283;" horiz-adv-x="617" d="M229 0q-64 0 -104 11q-40 11 -62.5 40.5q-22.5 29.5 -30.5 81.5q-8 52 -8 135q0 90 11 143q11 53 41.5 81q30.5 28 86.5 36q56 8 146 8q75 0 128.5 -5.5q53.5 -5.5 88 -27.5q34.5 -22 51 -65q16.5 -43 16.5 -118q0 -23 -3.5 -44q-3.5 -21 -12.5 -37.5q-9 -16.5 -25.5 -26.5q-16.5 -10 -42.5 -10h-289q0 -38 22 -52q22 -14 75 -14h257v-136zM365 326q12 0 18.5 3.5q6.5 3.5 9.5 9q3 5.5 3.5 11q0.5 5.5 0.5 9.5q0 14 -9.5 22.5q-9.5 8.5 -23 12.5q-13.5 4 -29 5q-15.5 1 -26.5 1q-19 0 -35 -2.5q-16 -2.5 -28 -10q-12 -7.5 -19 -22q-7 -14.5 -7 -39.5zM527 707l-159 -120q-10 -8 -21.5 -12.5q-11.5 -4.5 -28.5 -4.5q-17 0 -28.5 4.5q-11.5 4.5 -21.5 12.5l-159 120l62 89l119 -95q16 -12 29 -12q9 0 16 3.5q7 3.5 13 8.5l119 95z" />
<glyph unicode="&#284;" horiz-adv-x="760" d="M412 526q-41 0 -69.5 -8q-28.5 -8 -46.5 -27.5q-18 -19.5 -26 -54q-8 -34.5 -8 -86.5q0 -53 8 -87q8 -34 26 -53.5q18 -19.5 46.5 -27.5q28.5 -8 69.5 -8h48q44 0 44 44v152h226v-260q0 -53 -28.5 -81.5q-28.5 -28.5 -81.5 -28.5h-284q-86 0 -144.5 21q-58.5 21 -94.5 64q-36 43 -51.5 109q-15.5 66 -15.5 156q0 90 15.5 156q15.5 66 51.5 109q36 43 94.5 64q58.5 21 144.5 21h378v-174zM420 835q-6 5 -13 8.5q-7 3.5 -16 3.5q-13 0 -29 -12l-119 -95l-62 89l159 120q10 8 21.5 12.5q11.5 4.5 28.5 4.5q17 0 28.5 -4.5q11.5 -4.5 21.5 -12.5l159 -120l-60 -89z" />
<glyph unicode="&#285;" horiz-adv-x="626" d="M478 530q53 0 81.5 -28.5q28.5 -28.5 28.5 -81.5v-370q0 -120 -55 -175q-55 -55 -175 -55h-297v128h241q32 0 56 8.5q24 8.5 34 43.5l-148 0q-64 0 -106 18.5q-42 18.5 -67.5 53q-25.5 34.5 -36 83.5q-10.5 49 -10.5 109q0 60 10.5 109q10.5 49 36 84q25.5 35 67.5 54q42 19 106 19zM392 340q0 30 -10 40q-10 10 -40 10h-36q-28 0 -44 -10.5q-16 -10.5 -24.5 -28.5q-8.5 -18 -11 -40.5q-2.5 -22.5 -2.5 -46.5q0 -19 2.5 -41q2.5 -22 10.5 -40.5q8 -18.5 23.5 -30.5q15.5 -12 41.5 -12h90zM342 665q-6 5 -13 8.5q-7 3.5 -16 3.5q-13 0 -29 -12l-119 -95l-62 89l159 120q9 7 24 12q15 5 26 5q11 0 26 -5q15 -5 24 -12l159 -120l-60 -89z" />
<glyph unicode="&#286;" horiz-adv-x="760" d="M412 526q-41 0 -69.5 -8q-28.5 -8 -46.5 -27.5q-18 -19.5 -26 -54q-8 -34.5 -8 -86.5q0 -53 8 -87q8 -34 26 -53.5q18 -19.5 46.5 -27.5q28.5 -8 69.5 -8h48q44 0 44 44v152h226v-260q0 -53 -28.5 -81.5q-28.5 -28.5 -81.5 -28.5h-284q-86 0 -144.5 21q-58.5 21 -94.5 64q-36 43 -51.5 109q-15.5 66 -15.5 156q0 90 15.5 156q15.5 66 51.5 109q36 43 94.5 64q58.5 21 144.5 21h378v-174zM400 843q30 0 57 15q27 15 40 56l129 0q-14 -47 -32.5 -80q-18.5 -33 -45.5 -54q-27 -21 -63 -30.5q-36 -9.5 -85 -9.5q-98 0 -152.5 40.5q-54.5 40.5 -73.5 133.5l129 0q13 -41 40 -56t57 -15z" />
<glyph unicode="&#287;" horiz-adv-x="626" d="M478 530q53 0 81.5 -28.5q28.5 -28.5 28.5 -81.5v-370q0 -120 -55 -175q-55 -55 -175 -55h-297v128h241q32 0 56 8.5q24 8.5 34 43.5l-148 0q-64 0 -106 18.5q-42 18.5 -67.5 53q-25.5 34.5 -36 83.5q-10.5 49 -10.5 109q0 60 10.5 109q10.5 49 36 84q25.5 35 67.5 54q42 19 106 19zM392 340q0 30 -10 40q-10 10 -40 10h-36q-28 0 -44 -10.5q-16 -10.5 -24.5 -28.5q-8.5 -18 -11 -40.5q-2.5 -22.5 -2.5 -46.5q0 -19 2.5 -41q2.5 -22 10.5 -40.5q8 -18.5 23.5 -30.5q15.5 -12 41.5 -12h90zM312 663q30 0 57 15q27 15 40 56l129 0q-14 -47 -32.5 -80q-18.5 -33 -45.5 -54q-27 -21 -63 -30.5q-36 -9.5 -85 -9.5q-98 0 -152.5 40.5q-54.5 40.5 -73.5 133.5l129 0q13 -41 40 -56t57 -15z" />
<glyph unicode="&#288;" horiz-adv-x="760" d="M412 526q-41 0 -69.5 -8q-28.5 -8 -46.5 -27.5q-18 -19.5 -26 -54q-8 -34.5 -8 -86.5q0 -53 8 -87q8 -34 26 -53.5q18 -19.5 46.5 -27.5q28.5 -8 69.5 -8h48q44 0 44 44v152h226v-260q0 -53 -28.5 -81.5q-28.5 -28.5 -81.5 -28.5h-284q-86 0 -144.5 21q-58.5 21 -94.5 64q-36 43 -51.5 109q-15.5 66 -15.5 156q0 90 15.5 156q15.5 66 51.5 109q36 43 94.5 64q58.5 21 144.5 21h378v-174zM320 766v129h183l0 -129z" />
<glyph unicode="&#289;" horiz-adv-x="626" d="M478 530q53 0 81.5 -28.5q28.5 -28.5 28.5 -81.5v-370q0 -120 -55 -175q-55 -55 -175 -55h-297v128h241q32 0 56 8.5q24 8.5 34 43.5l-148 0q-64 0 -106 18.5q-42 18.5 -67.5 53q-25.5 34.5 -36 83.5q-10.5 49 -10.5 109q0 60 10.5 109q10.5 49 36 84q25.5 35 67.5 54q42 19 106 19zM392 340q0 30 -10 40q-10 10 -40 10h-36q-28 0 -44 -10.5q-16 -10.5 -24.5 -28.5q-8.5 -18 -11 -40.5q-2.5 -22.5 -2.5 -46.5q0 -19 2.5 -41q2.5 -22 10.5 -40.5q8 -18.5 23.5 -30.5q15.5 -12 41.5 -12h90zM230 590v128h173l0 -128z" />
<glyph unicode="&#290;" horiz-adv-x="760" d="M412 526q-41 0 -69.5 -8q-28.5 -8 -46.5 -27.5q-18 -19.5 -26 -54q-8 -34.5 -8 -86.5q0 -53 8 -87q8 -34 26 -53.5q18 -19.5 46.5 -27.5q28.5 -8 69.5 -8h48q44 0 44 44v152h226v-260q0 -53 -28.5 -81.5q-28.5 -28.5 -81.5 -28.5h-284q-86 0 -144.5 21q-58.5 21 -94.5 64q-36 43 -51.5 109q-15.5 66 -15.5 156q0 90 15.5 156q15.5 66 51.5 109q36 43 94.5 64q58.5 21 144.5 21h378v-174zM318 -259l69 229l134 -41l-84 -224z" />
<glyph unicode="&#291;" horiz-adv-x="626" d="M478 530q53 0 81.5 -28.5q28.5 -28.5 28.5 -81.5v-370q0 -120 -55 -175q-55 -55 -175 -55h-297v128h241q32 0 56 8.5q24 8.5 34 43.5l-148 0q-64 0 -106 18.5q-42 18.5 -67.5 53q-25.5 34.5 -36 83.5q-10.5 49 -10.5 109q0 60 10.5 109q10.5 49 36 84q25.5 35 67.5 54q42 19 106 19zM392 340q0 30 -10 40q-10 10 -40 10h-36q-28 0 -44 -10.5q-16 -10.5 -24.5 -28.5q-8.5 -18 -11 -40.5q-2.5 -22.5 -2.5 -46.5q0 -19 2.5 -41q2.5 -22 10.5 -40.5q8 -18.5 23.5 -30.5q15.5 -12 41.5 -12h90zM434 789l-69 -229l-134 41l84 224z" />
<glyph unicode="&#292;" horiz-adv-x="806" d="M756 0h-226v278h-254v-278h-226v700h226v-248h254v248h226zM433 835q-6 5 -13 8.5q-7 3.5 -16 3.5q-13 0 -29 -12l-119 -95l-62 89l159 120q10 8 21.5 12.5q11.5 4.5 28.5 4.5q17 0 28.5 -4.5q11.5 -4.5 21.5 -12.5l159 -120l-60 -89z" />
<glyph unicode="&#293;" horiz-adv-x="642" d="M38 700h196v-170h150q49 0 89.5 -13q40.5 -13 69.5 -38.5q29 -25.5 45 -62.5q16 -37 16 -86v-330h-196v282q0 60 -25 85q-25 25 -85 25h-64v-392h-196zM171 825q-6 5 -13 8.5q-7 3.5 -16 3.5q-13 0 -29 -12l-119 -95l-62 89l159 120q9 7 24 12q15 5 26 5q11 0 26 -5q15 -5 24 -12l159 -120l-60 -89z" />
<glyph unicode="&#294;" horiz-adv-x="846" d="M-20 636h90v64h226v-64h254v64h226v-64h90v-118h-90v-518h-226v278h-254v-278h-226v518h-90zM550 452v66h-254l0 -66z" />
<glyph unicode="&#295;" horiz-adv-x="642" d="M38 577h-74v88h74v35h196v-35h157v-88h-157v-47h150q49 0 89.5 -13q40.5 -13 69.5 -38.5q29 -25.5 45 -62.5q16 -37 16 -86v-330h-196v282q0 60 -25 85q-25 25 -85 25h-64v-392l-196 0z" />
<glyph unicode="&#298;" horiz-adv-x="326" d="M50 0v700h226v-700zM18 770v110h289l0 -110z" />
<glyph unicode="&#299;" horiz-adv-x="272" d="M38 530h196v-530h-196zM-9 596v110h289l0 -110z" />
<glyph unicode="&#302;" horiz-adv-x="328" d="M276 0l-55 -91q-9 -15 -9 -22q0 -17 27 -17h39v-79h-85q-38 0 -60.5 16.5q-22.5 16.5 -22.5 52.5q0 9 3 21.5q3 12.5 8 21.5l58 97h-129v700l226 0z" />
<glyph unicode="&#303;" horiz-adv-x="258" d="M226 0l-55 -91q-9 -15 -9 -22q0 -17 27 -17h39v-79h-85q-38 0 -60.5 16.5q-22.5 16.5 -22.5 52.5q0 9 3 21.5q3 12.5 8 21.5l58 97h-99v530h196zM30 583v117h196l0 -117z" />
<glyph unicode="&#304;" horiz-adv-x="326" d="M50 0v700h226v-700zM71 766v129h183l0 -129z" />
<glyph unicode="&#305;" horiz-adv-x="272" d="M38 530h196v-530l-196 0z" />
<glyph unicode="&#308;" horiz-adv-x="532" d="M0 174h96q45 0 75.5 8q30.5 8 49.5 27q19 19 27 49.5q8 30.5 8 75.5v366h226v-450q0 -56 -18 -102q-18 -46 -51 -79q-33 -33 -79 -51q-46 -18 -102 -18h-232zM392 835q-6 5 -13 8.5q-7 3.5 -16 3.5q-13 0 -29 -12l-119 -95l-62 89l159 120q10 8 21.5 12.5q11.5 4.5 28.5 4.5q17 0 28.5 -4.5q11.5 -4.5 21.5 -12.5l159 -120l-60 -89z" />
<glyph unicode="&#309;" horiz-adv-x="344" d="M-40 -44q75 0 112.5 27.5q37.5 27.5 37.5 102.5v444h196v-490q0 -75 -23 -117q-23 -42 -67.5 -63q-44.5 -21 -109 -25.5q-64.5 -4.5 -146.5 -4.5zM232 665q-6 5 -13 8.5q-7 3.5 -16 3.5q-13 0 -29 -12l-119 -95l-62 89l159 120q9 7 24 12q15 5 26 5q11 0 26 -5q15 -5 24 -12l159 -120l-60 -89z" />
<glyph unicode="&#310;" horiz-adv-x="803" d="M551 0l-212 271q-31 38 -31 88q0 20 5.5 41q5.5 21 16.5 36l188 264h268l-243 -289q-8 -9 -14.5 -22.5q-6.5 -13.5 -6.5 -27.5q0 -11 5.5 -23q5.5 -12 23.5 -32l272 -306zM50 700h226v-700h-226zM285 -259l69 229l134 -41l-84 -224z" />
<glyph unicode="&#311;" horiz-adv-x="643" d="M437 0l-144 190q-22 29 -26.5 50.5q-4.5 21.5 -4.5 34.5q0 29 9 46.5q9 17.5 23 36.5l121 172h212l-161 -211q-7 -8 -10.5 -19q-3.5 -11 -3.5 -19q0 -11 5.5 -24q5.5 -13 14.5 -24l185 -233zM38 0v700h196v-700zM219 -259l69 229l134 -41l-84 -224z" />
<glyph unicode="&#313;" horiz-adv-x="666" d="M160 0q-53 0 -81.5 28.5q-28.5 28.5 -28.5 81.5v590h226v-482q0 -44 44 -44h346v-174zM472 898l-192 -158l-87 108l192 159z" />
<glyph unicode="&#314;" horiz-adv-x="272" d="M38 700h196v-700h-196zM275 888l-192 -158l-87 108l192 159z" />
<glyph unicode="&#315;" horiz-adv-x="666" d="M160 0q-53 0 -81.5 28.5q-28.5 28.5 -28.5 81.5v590h226v-482q0 -44 44 -44h346v-174zM271 -259l69 229l134 -41l-84 -224z" />
<glyph unicode="&#316;" horiz-adv-x="272" d="M38 700h196v-700h-196zM29 -259l69 229l134 -41l-84 -224z" />
<glyph unicode="&#317;" horiz-adv-x="666" d="M160 0q-53 0 -81.5 28.5q-28.5 28.5 -28.5 81.5v590h226v-482q0 -44 44 -44h346v-174zM416 441l86 286l167 -51l-104 -280z" />
<glyph unicode="&#318;" horiz-adv-x="514" d="M38 700h196v-700h-196zM265 439l86 286l167 -51l-104 -280z" />
<glyph unicode="&#319;" horiz-adv-x="666" d="M160 0q-53 0 -81.5 28.5q-28.5 28.5 -28.5 81.5v590h226v-482q0 -44 44 -44h346v-174zM400 356v129h183l0 -129z" />
<glyph unicode="&#320;" horiz-adv-x="445" d="M38 700h196v-700h-196zM272 290v128h173l0 -128z" />
<glyph unicode="&#321;" horiz-adv-x="722" d="M216 0q-53 0 -81.5 28.5q-28.5 28.5 -28.5 81.5v76l-66 -48l-50 67l116 87v408h226v-246l177 134l50 -67l-227 -172v-131q0 -44 44 -44h346l0 -174z" />
<glyph unicode="&#322;" horiz-adv-x="409" d="M107 201l-64 -49l-53 67l117 92v389h196v-236l73 57l53 -68l-126 -99v-354l-196 0z" />
<glyph unicode="&#323;" horiz-adv-x="864" d="M814 117q0 -9 -3 -30q-3 -21 -18 -42q-15 -21 -45.5 -37q-30.5 -16 -85.5 -16q-20 0 -40 2q-20 2 -39.5 9q-19.5 7 -38 21q-18.5 14 -34.5 37l-253 357q-4 5 -9 11q-5 6 -10 6q-2 0 -8 -2.5q-6 -2.5 -6 -17.5v-415h-174v584q0 34 13 57.5q13 23.5 35 38.5q22 15 50.5 21.5q28.5 6.5 58.5 6.5q14 0 32.5 -1.5q18.5 -1.5 39 -8q20.5 -6.5 40.5 -19.5q20 -13 36 -36l255 -360q4 -5 8.5 -11q4.5 -6 10.5 -6q8 0 9.5 6.5q1.5 6.5 1.5 10.5v417h174zM591 898l-192 -158l-87 108l192 159z" />
<glyph unicode="&#324;" horiz-adv-x="642" d="M38 420q0 60 28.5 85q28.5 25 81.5 25h246q98 0 154 -51q56 -51 56 -149v-330h-196v280q0 60 -25 85q-25 25 -85 25h-24q-23 0 -31.5 -8.5q-8.5 -8.5 -8.5 -31.5v-350h-196zM480 728l-192 -158l-87 108l192 159z" />
<glyph unicode="&#325;" horiz-adv-x="864" d="M814 117q0 -9 -3 -30q-3 -21 -18 -42q-15 -21 -45.5 -37q-30.5 -16 -85.5 -16q-20 0 -40 2q-20 2 -39.5 9q-19.5 7 -38 21q-18.5 14 -34.5 37l-253 357q-4 5 -9 11q-5 6 -10 6q-2 0 -8 -2.5q-6 -2.5 -6 -17.5v-415h-174v584q0 34 13 57.5q13 23.5 35 38.5q22 15 50.5 21.5q28.5 6.5 58.5 6.5q14 0 32.5 -1.5q18.5 -1.5 39 -8q20.5 -6.5 40.5 -19.5q20 -13 36 -36l255 -360q4 -5 8.5 -11q4.5 -6 10.5 -6q8 0 9.5 6.5q1.5 6.5 1.5 10.5v417h174zM340 -259l69 229l134 -41l-84 -224z" />
<glyph unicode="&#326;" horiz-adv-x="642" d="M38 420q0 60 28.5 85q28.5 25 81.5 25h246q98 0 154 -51q56 -51 56 -149v-330h-196v280q0 60 -25 85q-25 25 -85 25h-24q-23 0 -31.5 -8.5q-8.5 -8.5 -8.5 -31.5v-350h-196zM224 -259l69 229l134 -41l-84 -224z" />
<glyph unicode="&#327;" horiz-adv-x="864" d="M814 117q0 -9 -3 -30q-3 -21 -18 -42q-15 -21 -45.5 -37q-30.5 -16 -85.5 -16q-20 0 -40 2q-20 2 -39.5 9q-19.5 7 -38 21q-18.5 14 -34.5 37l-253 357q-4 5 -9 11q-5 6 -10 6q-2 0 -8 -2.5q-6 -2.5 -6 -17.5v-415h-174v584q0 34 13 57.5q13 23.5 35 38.5q22 15 50.5 21.5q28.5 6.5 58.5 6.5q14 0 32.5 -1.5q18.5 -1.5 39 -8q20.5 -6.5 40.5 -19.5q20 -13 36 -36l255 -360q4 -5 8.5 -11q4.5 -6 10.5 -6q8 0 9.5 6.5q1.5 6.5 1.5 10.5v417h174zM641 877l-159 -120q-10 -8 -21.5 -12.5q-11.5 -4.5 -28.5 -4.5q-17 0 -28.5 4.5q-11.5 4.5 -21.5 12.5l-159 120l62 89l119 -95q16 -12 29 -12q9 0 16 3.5q7 3.5 13 8.5l119 95z" />
<glyph unicode="&#328;" horiz-adv-x="642" d="M38 420q0 60 28.5 85q28.5 25 81.5 25h246q98 0 154 -51q56 -51 56 -149v-330h-196v280q0 60 -25 85q-25 25 -85 25h-24q-23 0 -31.5 -8.5q-8.5 -8.5 -8.5 -31.5v-350h-196zM530 707l-159 -120q-10 -8 -21.5 -12.5q-11.5 -4.5 -28.5 -4.5q-17 0 -28.5 4.5q-11.5 4.5 -21.5 12.5l-159 120l62 89l119 -95q16 -12 29 -12q9 0 16 3.5q7 3.5 13 8.5l119 95z" />
<glyph unicode="&#332;" horiz-adv-x="830" d="M415 708q109 0 182.5 -14q73.5 -14 118.5 -53q45 -39 64.5 -109q19.5 -70 19.5 -182q0 -113 -19.5 -183q-19.5 -70 -64.5 -109q-45 -39 -118.5 -52.5q-73.5 -13.5 -182.5 -13.5q-109 0 -182.5 13.5q-73.5 13.5 -118.5 52.5q-45 39 -64.5 109q-19.5 70 -19.5 183q0 112 19.5 182q19.5 70 64.5 109q45 39 118.5 53q73.5 14 182.5 14zt0 0zM262 350q0 -49 7 -83.5q7 -34.5 24.5 -57q17.5 -22.5 47 -33q29.5 -10.5 74.5 -10.5q45 0 74.5 10.5q29.5 10.5 47 33q17.5 22.5 24.5 57q7 34.5 7 83.5q0 49 -7 83.5q-7 34.5 -24.5 57q-17.5 22.5 -47 33q-29.5 10.5 -74.5 10.5q-45 0 -74.5 -10.5q-29.5 -10.5 -47 -33q-17.5 -22.5 -24.5 -57q-7 -34.5 -7 -83.5zt0 0zM270 770v110h289l0 -110z" />
<glyph unicode="&#333;" horiz-adv-x="660" d="M330 536q82 0 140.5 -11.5q58.5 -11.5 95 -41.5q36.5 -30 53.5 -83q17 -53 17 -135q0 -83 -17 -135.5q-17 -52.5 -53.5 -82.5q-36.5 -30 -95 -41.5q-58.5 -11.5 -140.5 -11.5q-83 0 -141 11.5q-58 11.5 -94.5 41.5q-36.5 30 -53.5 82.5q-17 52.5 -17 135.5q0 82 17 135q17 53 53.5 83q36.5 30 94.5 41.5q58 11.5 141 11.5zt0 0zM224 265q0 -30 4 -54q4 -24 15.5 -41.5q11.5 -17.5 32 -26.5q20.5 -9 54.5 -9q34 0 54.5 9q20.5 9 32 26.5q11.5 17.5 15.5 41.5q4 24 4 54q0 30 -4 54q-4 24 -15.5 41.5q-11.5 17.5 -32 26.5q-20.5 9 -54.5 9q-34 0 -54.5 -9q-20.5 -9 -32 -26.5q-11.5 -17.5 -15.5 -41.5q-4 -24 -4 -54zt0 0zM185 596v110h289l0 -110z" />
<glyph unicode="&#334;" horiz-adv-x="830" d="M415 708q109 0 182.5 -14q73.5 -14 118.5 -53q45 -39 64.5 -109q19.5 -70 19.5 -182q0 -113 -19.5 -183q-19.5 -70 -64.5 -109q-45 -39 -118.5 -52.5q-73.5 -13.5 -182.5 -13.5q-109 0 -182.5 13.5q-73.5 13.5 -118.5 52.5q-45 39 -64.5 109q-19.5 70 -19.5 183q0 112 19.5 182q19.5 70 64.5 109q45 39 118.5 53q73.5 14 182.5 14zt0 0zM262 350q0 -49 7 -83.5q7 -34.5 24.5 -57q17.5 -22.5 47 -33q29.5 -10.5 74.5 -10.5q45 0 74.5 10.5q29.5 10.5 47 33q17.5 22.5 24.5 57q7 34.5 7 83.5q0 49 -7 83.5q-7 34.5 -24.5 57q-17.5 22.5 -47 33q-29.5 10.5 -74.5 10.5q-45 0 -74.5 -10.5q-29.5 -10.5 -47 -33q-17.5 -22.5 -24.5 -57q-7 -34.5 -7 -83.5zt0 0zM415 843q30 0 57 15q27 15 40 56l129 0q-14 -47 -32.5 -80q-18.5 -33 -45.5 -54q-27 -21 -63 -30.5q-36 -9.5 -85 -9.5q-98 0 -152.5 40.5q-54.5 40.5 -73.5 133.5l129 0q13 -41 40 -56t57 -15z" />
<glyph unicode="&#335;" horiz-adv-x="660" d="M330 536q82 0 140.5 -11.5q58.5 -11.5 95 -41.5q36.5 -30 53.5 -83q17 -53 17 -135q0 -83 -17 -135.5q-17 -52.5 -53.5 -82.5q-36.5 -30 -95 -41.5q-58.5 -11.5 -140.5 -11.5q-83 0 -141 11.5q-58 11.5 -94.5 41.5q-36.5 30 -53.5 82.5q-17 52.5 -17 135.5q0 82 17 135q17 53 53.5 83q36.5 30 94.5 41.5q58 11.5 141 11.5zt0 0zM224 265q0 -30 4 -54q4 -24 15.5 -41.5q11.5 -17.5 32 -26.5q20.5 -9 54.5 -9q34 0 54.5 9q20.5 9 32 26.5q11.5 17.5 15.5 41.5q4 24 4 54q0 30 -4 54q-4 24 -15.5 41.5q-11.5 17.5 -32 26.5q-20.5 9 -54.5 9q-34 0 -54.5 -9q-20.5 -9 -32 -26.5q-11.5 -17.5 -15.5 -41.5q-4 -24 -4 -54zt0 0zM330 663q30 0 57 15q27 15 40 56l129 0q-14 -47 -32.5 -80q-18.5 -33 -45.5 -54q-27 -21 -63 -30.5q-36 -9.5 -85 -9.5q-98 0 -152.5 40.5q-54.5 40.5 -73.5 133.5l129 0q13 -41 40 -56t57 -15z" />
<glyph unicode="&#336;" horiz-adv-x="830" d="M415 708q109 0 182.5 -14q73.5 -14 118.5 -53q45 -39 64.5 -109q19.5 -70 19.5 -182q0 -113 -19.5 -183q-19.5 -70 -64.5 -109q-45 -39 -118.5 -52.5q-73.5 -13.5 -182.5 -13.5q-109 0 -182.5 13.5q-73.5 13.5 -118.5 52.5q-45 39 -64.5 109q-19.5 70 -19.5 183q0 112 19.5 182q19.5 70 64.5 109q45 39 118.5 53q73.5 14 182.5 14zt0 0zM262 350q0 -49 7 -83.5q7 -34.5 24.5 -57q17.5 -22.5 47 -33q29.5 -10.5 74.5 -10.5q45 0 74.5 10.5q29.5 10.5 47 33q17.5 22.5 24.5 57q7 34.5 7 83.5q0 49 -7 83.5q-7 34.5 -24.5 57q-17.5 22.5 -47 33q-29.5 10.5 -74.5 10.5q-45 0 -74.5 -10.5q-29.5 -10.5 -47 -33q-17.5 -22.5 -24.5 -57q-7 -34.5 -7 -83.5zt0 0zM429 927l-146 -170l-86 75l145 171zM662 927l-146 -170l-86 75l145 171z" />
<glyph unicode="&#337;" horiz-adv-x="660" d="M330 536q82 0 140.5 -11.5q58.5 -11.5 95 -41.5q36.5 -30 53.5 -83q17 -53 17 -135q0 -83 -17 -135.5q-17 -52.5 -53.5 -82.5q-36.5 -30 -95 -41.5q-58.5 -11.5 -140.5 -11.5q-83 0 -141 11.5q-58 11.5 -94.5 41.5q-36.5 30 -53.5 82.5q-17 52.5 -17 135.5q0 82 17 135q17 53 53.5 83q36.5 30 94.5 41.5q58 11.5 141 11.5zt0 0zM224 265q0 -30 4 -54q4 -24 15.5 -41.5q11.5 -17.5 32 -26.5q20.5 -9 54.5 -9q34 0 54.5 9q20.5 9 32 26.5q11.5 17.5 15.5 41.5q4 24 4 54q0 30 -4 54q-4 24 -15.5 41.5q-11.5 17.5 -32 26.5q-20.5 9 -54.5 9q-34 0 -54.5 -9q-20.5 -9 -32 -26.5q-11.5 -17.5 -15.5 -41.5q-4 -24 -4 -54zt0 0zM344 801l-146 -170l-86 75l145 171zM577 801l-146 -170l-86 75l145 171z" />
<glyph unicode="&#338;" horiz-adv-x="1221" d="M1187 530h-346q-44 0 -44 -44v-52h382v-154h-382v-66q0 -44 44 -44h350v-170h-480q-20 0 -35 6.5q-15 6.5 -27 17.5q-42 -18 -99.5 -25q-57.5 -7 -134.5 -7q-109 0 -182.5 13.5q-73.5 13.5 -118.5 52.5q-45 39 -64.5 109q-19.5 70 -19.5 183q0 112 19.5 182q19.5 70 64.5 109q45 39 118.5 53q73.5 14 182.5 14q77 0 134.5 -7q57.5 -7 99.5 -26q12 11 27 18q15 7 35 7h476zM262 350q0 -49 7 -83.5q7 -34.5 24.5 -57q17.5 -22.5 47 -33q29.5 -10.5 74.5 -10.5q45 0 74.5 10.5q29.5 10.5 47 33q17.5 22.5 24.5 57q7 34.5 7 83.5q0 49 -7 83.5q-7 34.5 -24.5 57q-17.5 22.5 -47 33q-29.5 10.5 -74.5 10.5q-45 0 -74.5 -10.5q-29.5 -10.5 -47 -33q-17.5 -22.5 -24.5 -57t-7 -83.5z" />
<glyph unicode="&#339;" horiz-adv-x="1018" d="M636 0q-41 0 -70 7q-29 7 -49 24q-33 -21 -80.5 -29q-47.5 -8 -112.5 -8q-83 0 -141 11.5q-58 11.5 -94.5 41.5q-36.5 30 -53.5 82.5q-17 52.5 -17 135.5q0 82 17 135q17 53 53.5 83q36.5 30 94.5 41.5q58 11.5 141 11.5q66 0 114 -8.5q48 -8.5 81 -30.5q29 23 76.5 31q47.5 8 120.5 8q75 0 128.5 -5.5q53.5 -5.5 88 -27.5q34.5 -22 51 -65q16.5 -43 16.5 -118q0 -23 -3.5 -44q-3.5 -21 -12.5 -37.5q-9 -16.5 -25.5 -26.5q-16.5 -10 -42.5 -10h-289q0 -38 22 -52q22 -14 75 -14h257v-136zM218 265q0 -30 4 -54q4 -24 15.5 -41.5q11.5 -17.5 32 -26.5q20.5 -9 54.5 -9q34 0 54.5 9q20.5 9 32 26.5q11.5 17.5 15.5 41.5q4 24 4 54q0 30 -4 54q-4 24 -15.5 41.5q-11.5 17.5 -32 26.5q-20.5 9 -54.5 9q-34 0 -54.5 -9q-20.5 -9 -32 -26.5q-11.5 -17.5 -15.5 -41.5q-4 -24 -4 -54zt0 0zM772 332q12 0 18.5 3.5q6.5 3.5 9.5 8q3 4.5 3.5 9.5q0.5 5 0.5 9q0 14 -9.5 22q-9.5 8 -23 11.5q-13.5 3.5 -29 4q-15.5 0.5 -26.5 0.5q-19 0 -35 -1.5q-16 -1.5 -28 -8q-12 -6.5 -19 -20q-7 -13.5 -7 -38.5z" />
<glyph unicode="&#340;" horiz-adv-x="789" d="M50 590q0 53 28.5 81.5q28.5 28.5 81.5 28.5h395q60 0 98.5 -16q38.5 -16 61 -46.5q22.5 -30.5 31.5 -75q9 -44.5 9 -100.5q0 -38 -4.5 -81.5q-4.5 -43.5 -21 -80.5q-16.5 -37 -47.5 -62q-31 -25 -83 -25h-30v-4l200 -209h-272l-135 182q-17 23 -32.5 44q-15.5 21 -15.5 51v15q0 45 28 62q28 17 73 17h34q45 0 62.5 17q17.5 17 17.5 62q0 45 -17.5 60.5q-17.5 15.5 -62.5 15.5h-129q-44 0 -44 -44v-482h-226zM564 898l-192 -158l-87 108l192 159z" />
<glyph unicode="&#341;" horiz-adv-x="431" d="M38 310q0 64 16.5 106q16.5 42 49.5 67.5q33 25.5 81.5 36q48.5 10.5 112.5 10.5h129v-138h-73q-68 0 -94 -36q-26 -36 -26 -104v-252h-196zM367 728l-192 -158l-87 108l192 159z" />
<glyph unicode="&#342;" horiz-adv-x="789" d="M50 590q0 53 28.5 81.5q28.5 28.5 81.5 28.5h395q60 0 98.5 -16q38.5 -16 61 -46.5q22.5 -30.5 31.5 -75q9 -44.5 9 -100.5q0 -38 -4.5 -81.5q-4.5 -43.5 -21 -80.5q-16.5 -37 -47.5 -62q-31 -25 -83 -25h-30v-4l200 -209h-272l-135 182q-17 23 -32.5 44q-15.5 21 -15.5 51v15q0 45 28 62q28 17 73 17h34q45 0 62.5 17q17.5 17 17.5 62q0 45 -17.5 60.5q-17.5 15.5 -62.5 15.5h-129q-44 0 -44 -44v-482h-226zM293 -259l69 229l134 -41l-84 -224z" />
<glyph unicode="&#343;" horiz-adv-x="431" d="M38 310q0 64 16.5 106q16.5 42 49.5 67.5q33 25.5 81.5 36q48.5 10.5 112.5 10.5h129v-138h-73q-68 0 -94 -36q-26 -36 -26 -104v-252h-196zM131 -259l69 229l134 -41l-84 -224z" />
<glyph unicode="&#344;" horiz-adv-x="789" d="M50 590q0 53 28.5 81.5q28.5 28.5 81.5 28.5h395q60 0 98.5 -16q38.5 -16 61 -46.5q22.5 -30.5 31.5 -75q9 -44.5 9 -100.5q0 -38 -4.5 -81.5q-4.5 -43.5 -21 -80.5q-16.5 -37 -47.5 -62q-31 -25 -83 -25h-30v-4l200 -209h-272l-135 182q-17 23 -32.5 44q-15.5 21 -15.5 51v15q0 45 28 62q28 17 73 17h34q45 0 62.5 17q17.5 17 17.5 62q0 45 -17.5 60.5q-17.5 15.5 -62.5 15.5h-129q-44 0 -44 -44v-482h-226zM603 877l-159 -120q-10 -8 -21.5 -12.5q-11.5 -4.5 -28.5 -4.5q-17 0 -28.5 4.5q-11.5 4.5 -21.5 12.5l-159 120l62 89l119 -95q16 -12 29 -12q9 0 16 3.5q7 3.5 13 8.5l119 95z" />
<glyph unicode="&#345;" horiz-adv-x="431" d="M38 310q0 64 16.5 106q16.5 42 49.5 67.5q33 25.5 81.5 36q48.5 10.5 112.5 10.5h129v-138h-73q-68 0 -94 -36q-26 -36 -26 -104v-252h-196zM430 707l-159 -120q-10 -8 -21.5 -12.5q-11.5 -4.5 -28.5 -4.5q-17 0 -28.5 4.5q-11.5 4.5 -21.5 12.5l-159 120l62 89l119 -95q16 -12 29 -12q9 0 16 3.5q7 3.5 13 8.5l119 95z" />
</font>
</defs>
</svg>
